<svg width="16" height="16" viewBox="0 0 16 16" fill="none" xmlns="http://www.w3.org/2000/svg">
<path d="M12.5 1.5H3.5C2.39543 1.5 1.5 2.39543 1.5 3.5V12.5C1.5 13.6046 2.39543 14.5 3.5 14.5H12.5C13.6046 14.5 14.5 13.6046 14.5 12.5V3.5C14.5 2.39543 13.6046 1.5 12.5 1.5Z" stroke="#666666" stroke-width="0.999998"/>
<path d="M11.0001 3L13.3095 7H8.69067L11.0001 3Z" fill="#666666"/>
<path d="M14 12.5C14 13.3284 13.3284 14 12.5 14L8 14L8 8L14 8L14 12.5Z" fill="#666666" fill-opacity="0.3"/>
<path d="M2 3.5C2 2.67157 2.67157 2 3.5 2L8 2V8L2 8L2 3.5Z" fill="#666666" fill-opacity="0.3"/>
<path d="M7 5C7 6.10457 6.10457 7 5 7C3.89543 7 3 6.10457 3 5C3 3.89543 3.89543 3 5 3C6.10457 3 7 3.89543 7 5Z" fill="#666666"/>
<path fill-rule="evenodd" clip-rule="evenodd" d="M5.10023 9C6.33527 9 7.1026 10.0006 6.98911 10.5972C6.94923 10.8068 6.88355 10.9635 6.82143 11.1116C6.70678 11.385 6.60427 11.6295 6.69851 12.1249C6.69851 12.227 6.5748 12.2137 6.42373 12.1975C6.26664 12.1806 6.07998 12.1606 5.97201 12.2638C5.86565 12.3655 5.87608 12.4671 5.88931 12.596C5.89415 12.6432 5.89937 12.6941 5.89937 12.7499C5.39082 12.9582 5.02757 12.9582 4.51903 12.7499C4.51903 12.5416 4.51902 12.4027 4.37373 12.2638C4.26416 12.159 4.09504 12.18 3.95625 12.1971C3.82438 12.2135 3.71989 12.2264 3.71989 12.1249C3.76261 11.6756 3.65388 11.4367 3.54268 11.1924C3.46482 11.0213 3.38576 10.8476 3.35664 10.5972C3.28398 9.97219 3.86519 9 5.10023 9ZM4.56989 11.6876C4.83401 11.5963 4.99283 11.3761 4.92461 11.1957C4.85639 11.0154 4.58697 10.9432 4.32285 11.0345C4.05872 11.1258 3.89991 11.346 3.96813 11.5263C4.03635 11.7067 4.30576 11.7788 4.56989 11.6876ZM5.4673 11.1957C5.39908 11.3761 5.55789 11.5963 5.82202 11.6876C6.08614 11.7788 6.35556 11.7067 6.42378 11.5263C6.492 11.346 6.33319 11.1258 6.06906 11.0345C5.80494 10.9432 5.53552 11.0154 5.4673 11.1957ZM5.28746 11.6961C5.24529 11.5983 5.10045 11.5983 5.05828 11.6961L4.92889 11.996C4.89525 12.074 4.95523 12.1596 5.04349 12.1596H5.30225C5.39051 12.1596 5.45049 12.074 5.41684 11.996L5.28746 11.6961Z" fill="#666666"/>
</svg>
