<svg width="48" height="48" viewBox="0 0 48 48" fill="none" xmlns="http://www.w3.org/2000/svg">
<path opacity="0.6" d="M45 41.75H40V46.25H45V41.75Z" fill="url(#paint0_radial_677_336)"/>
<path opacity="0.6" d="M3 46.25H8V41.75H3V46.25Z" fill="url(#paint1_radial_677_336)"/>
<path opacity="0.6" d="M40 41.75H8V46.25H40V41.75Z" fill="url(#paint2_linear_677_336)"/>
<path d="M39.5 5.5H8.5C6.29086 5.5 4.5 7.29086 4.5 9.5V40.5C4.5 42.7091 6.29086 44.5 8.5 44.5H39.5C41.7091 44.5 43.5 42.7091 43.5 40.5V9.5C43.5 7.29086 41.7091 5.5 39.5 5.5Z" fill="url(#paint3_linear_677_336)" stroke="#AD5F00" stroke-opacity="0.5" stroke-width="0.999998"/>
<path opacity="0.35" d="M39.5 6.5H8.5C6.84315 6.5 5.5 7.84315 5.5 9.5V40.5C5.5 42.1569 6.84315 43.5 8.5 43.5H39.5C41.1569 43.5 42.5 42.1569 42.5 40.5V9.5C42.5 7.84315 41.1569 6.5 39.5 6.5Z" stroke="url(#paint4_linear_677_336)" stroke-linecap="round" stroke-linejoin="round"/>
<path d="M6 9.5C6 8.11929 7.11929 7 8.5 7H24V25H6V9.5Z" fill="white" fill-opacity="0.3"/>
<path d="M42 40.5C42 41.8807 40.8807 43 39.5 43L24 43L24 25L42 25L42 40.5Z" fill="white" fill-opacity="0.3"/>
<g filter="url(#filter0_i_677_336)">
<path d="M19.8542 16.0064C19.8542 18.6828 17.6845 20.8525 15.008 20.8525C12.3316 20.8525 10.1619 18.6828 10.1619 16.0064C10.1619 13.3299 12.3316 11.1602 15.008 11.1602C17.6845 11.1602 19.8542 13.3299 19.8542 16.0064Z" fill="url(#paint5_linear_677_336)"/>
</g>
<path d="M18.3923 12.538C20.3079 14.4072 16.2713 13.4851 14.4021 15.4006C12.5328 17.3162 13.5387 21.344 11.6232 19.4748C9.70764 17.6055 9.67011 14.5374 11.5394 12.6218C13.4086 10.7063 16.4768 10.6687 18.3923 12.538Z" fill="url(#paint6_linear_677_336)"/>
<g filter="url(#filter1_d_677_336)">
<path d="M18 16.0001C18 17.6569 16.6569 19.0001 15 19.0001C13.3431 19.0001 12 17.6569 12 16.0001C12 14.3432 13.3431 13.0001 15 13.0001C16.6569 13.0001 18 14.3432 18 16.0001Z" fill="white"/>
</g>
<path d="M18.4087 15.0644C17.8565 15.7951 17.8282 14.6629 16.5538 13.7181C15.2794 12.7733 14.2203 13.0993 14.7724 12.3686C15.3246 11.6379 16.5862 11.6491 17.5903 12.3935C18.5945 13.1379 18.9608 14.3337 18.4087 15.0644Z" fill="url(#paint7_linear_677_336)"/>
<path fill-rule="evenodd" clip-rule="evenodd" d="M15.008 19.8525C17.1322 19.8525 18.8542 18.1305 18.8542 16.0064C18.8542 13.8822 17.1322 12.1602 15.008 12.1602C12.8838 12.1602 11.1619 13.8822 11.1619 16.0064C11.1619 18.1305 12.8838 19.8525 15.008 19.8525ZM15.008 20.8525C17.6845 20.8525 19.8542 18.6828 19.8542 16.0064C19.8542 13.3299 17.6845 11.1602 15.008 11.1602C12.3316 11.1602 10.1619 13.3299 10.1619 16.0064C10.1619 18.6828 12.3316 20.8525 15.008 20.8525Z" fill="url(#paint8_linear_677_336)"/>
<path d="M18.6715 17.7261C18.4833 18.1152 18.1321 18.3365 17.8871 18.2202C17.642 18.104 17.5959 17.6943 17.784 17.3051C17.9722 16.9159 18.3234 16.6947 18.5685 16.811C18.8135 16.9272 18.8597 17.3369 18.6715 17.7261Z" fill="url(#paint9_linear_677_336)"/>
<path d="M12.8439 14.5763C12.4087 15.1684 11.7537 15.4304 11.3808 15.1616C11.008 14.8927 11.0585 14.1948 11.4937 13.6027C11.9289 13.0106 12.584 12.7486 12.9568 13.0175C13.3297 13.2863 13.2791 13.9843 12.8439 14.5763Z" fill="url(#paint10_linear_677_336)"/>
<path fill-rule="evenodd" clip-rule="evenodd" d="M14.8664 28.0773C18.4013 28.0773 20.5975 31.2882 20.2727 33.2027C20.1585 33.8755 19.9705 34.3782 19.7927 34.8536C19.4646 35.7309 19.1712 36.5154 19.4409 38.1053C19.4409 38.433 19.0869 38.3904 18.6545 38.3383C18.2049 38.2841 17.6706 38.2198 17.3616 38.5509C17.0572 38.8772 17.087 39.2035 17.1249 39.6171C17.1387 39.7686 17.1537 39.9317 17.1537 40.1108C15.6981 40.7794 14.6584 40.7794 13.2029 40.1108C13.2029 39.4423 13.2029 38.9966 12.7871 38.5509C12.4734 38.2148 11.9894 38.282 11.5922 38.3371C11.2147 38.3895 10.9156 38.431 10.9156 38.1053C11.0379 36.6635 10.7267 35.8968 10.4084 35.1128C10.1856 34.5638 9.95931 34.0063 9.87598 33.2027C9.668 31.1971 11.3315 28.0773 14.8664 28.0773Z" fill="#AD5F00" fill-opacity="0.25"/>
<path fill-rule="evenodd" clip-rule="evenodd" d="M17.805 31.7578C17.151 31.0855 16.1615 30.5628 14.9274 30.5628C12.5007 30.5628 11.4806 32.5388 11.5995 33.6141C11.6342 33.928 11.7042 34.1775 11.7998 34.4313C12.0462 34.2122 12.3403 34.0394 12.659 33.9236C13.1604 33.7414 13.7059 33.7066 14.1994 33.8456C14.545 33.9429 14.9045 34.1418 15.1646 34.4654C15.4248 34.1418 15.7842 33.9429 16.1298 33.8456C16.6234 33.7066 17.1689 33.7414 17.6702 33.9236C17.9375 34.0207 18.1875 34.1579 18.4065 34.3289C18.4967 34.0841 18.572 33.8403 18.6253 33.546C18.6872 33.2037 18.501 32.4734 17.805 31.7578ZM19.1177 35.2561C19.1425 35.1924 19.168 35.1287 19.1936 35.0643C19.3476 34.6784 19.5104 34.2703 19.6093 33.724C19.8906 32.1696 17.9886 29.5628 14.9274 29.5628C11.8661 29.5628 10.4255 32.0957 10.6056 33.724C10.6778 34.3765 10.8737 34.8291 11.0667 35.2748C11.0929 35.3352 11.119 35.3955 11.1447 35.4562C11.2659 35.7416 11.3788 36.0349 11.4506 36.3862C11.4915 36.5867 11.5191 36.8061 11.5271 37.0536C11.5335 37.251 11.5275 37.4664 11.506 37.7043C11.506 37.9688 11.765 37.9351 12.0918 37.8926C12.4358 37.8478 12.855 37.7933 13.1266 38.0662C13.4867 38.428 13.4868 38.7899 13.4868 39.3327C14.7473 39.8754 15.6476 39.8754 16.9082 39.3327C16.9082 39.1872 16.8952 39.0548 16.8832 38.9318C16.8504 38.596 16.8246 38.3311 17.0882 38.0662C17.2879 37.8656 17.5962 37.8437 17.9016 37.8638C17.9265 37.8655 17.9514 37.8674 17.9763 37.8695C18.0549 37.8763 18.1327 37.885 18.2079 37.8935C18.5823 37.9358 18.889 37.9704 18.889 37.7043C18.8457 37.465 18.8191 37.2481 18.8064 37.049C18.7902 36.7952 18.7966 36.5704 18.8194 36.3649C18.8664 35.9411 18.9836 35.5997 19.1177 35.2561ZM17.8019 36.5626C17.5099 36.6969 17.1108 36.7082 16.7164 36.5649C16.6029 36.5237 16.4973 36.4723 16.401 36.4132C16.3247 36.3663 16.2544 36.3146 16.1907 36.259C15.9696 36.0661 15.8293 35.8278 15.8026 35.5919C15.7908 35.4872 15.8014 35.3831 15.8372 35.2835C16.0063 34.8137 16.6741 34.6256 17.3288 34.8635C17.6215 34.9698 17.862 35.1433 18.0234 35.3446C18.223 35.5936 18.3015 35.8851 18.208 36.1448C18.1408 36.3317 17.9946 36.474 17.8019 36.5626ZM15.0368 36.4041C14.9467 36.4248 14.8649 36.4858 14.8234 36.5871L14.5027 37.3684C14.4193 37.5716 14.568 37.7948 14.7867 37.7948H15.4281C15.6469 37.7948 15.7955 37.5716 15.7121 37.3684L15.3914 36.5871C15.3649 36.5224 15.3219 36.4742 15.2709 36.4423C15.2009 36.3987 15.1157 36.386 15.0368 36.4041ZM13.7806 36.494C13.8992 36.4365 14.0068 36.3676 14.1011 36.2906C14.3651 36.0751 14.5249 35.7964 14.5311 35.5266C14.5329 35.444 14.5204 35.3623 14.4921 35.2835C14.323 34.8137 13.6552 34.6256 13.0005 34.8635C12.6524 34.9899 12.3781 35.2114 12.2229 35.4616C12.0863 35.682 12.0421 35.9248 12.1213 36.1448C12.184 36.3191 12.3153 36.4546 12.4891 36.544C12.7839 36.6956 13.201 36.7145 13.6128 36.5649C13.6709 36.5438 13.7269 36.5201 13.7806 36.494Z" fill="#AD5F00"/>
<path fill-rule="evenodd" clip-rule="evenodd" d="M14.9274 28.8848C17.9886 28.8848 19.8906 31.4916 19.6093 33.046C19.5104 33.5922 19.3476 34.0003 19.1936 34.3863C18.9095 35.0986 18.6554 35.7355 18.889 37.0263C18.889 37.2924 18.5823 37.2578 18.2079 37.2155C17.8185 37.1715 17.3558 37.1193 17.0882 37.3881C16.8246 37.653 16.8504 37.9179 16.8832 38.2538C16.8952 38.3767 16.9082 38.5092 16.9082 38.6546C15.6476 39.1974 14.7473 39.1974 13.4868 38.6546C13.4868 38.1118 13.4867 37.75 13.1266 37.3881C12.855 37.1152 12.4358 37.1698 12.0918 37.2145C11.765 37.2571 11.506 37.2908 11.506 37.0263C11.6119 35.8558 11.3423 35.2333 11.0667 34.5967C10.8737 34.1511 10.6778 33.6985 10.6056 33.046C10.4255 31.4177 11.8661 28.8848 14.9274 28.8848ZM13.6128 35.8869C14.2675 35.649 14.6611 35.0753 14.4921 34.6055C14.323 34.1357 13.6552 33.9476 13.0005 34.1854C12.3458 34.4233 11.9522 34.997 12.1213 35.4668C12.2903 35.9366 12.9581 36.1247 13.6128 35.8869ZM15.8372 34.6055C15.6681 35.0753 16.0618 35.649 16.7164 35.8869C17.3711 36.1247 18.0389 35.9366 18.208 35.4668C18.3771 34.997 17.9834 34.4233 17.3288 34.1854C16.6741 33.9476 16.0063 34.1357 15.8372 34.6055ZM15.3914 35.9091C15.2869 35.6544 14.9279 35.6544 14.8234 35.9091L14.5027 36.6904C14.4193 36.8936 14.568 37.1168 14.7867 37.1168H15.4281C15.6469 37.1168 15.7955 36.8936 15.7121 36.6904L15.3914 35.9091Z" fill="white"/>
<path d="M33.3462 10.4615L39.042 20.8462H27.6504L33.3462 10.4615Z" fill="#AD5F00" fill-opacity="0.25"/>
<path fill-rule="evenodd" clip-rule="evenodd" d="M33.346 12.5385L28.8494 20.3269H37.8427L33.346 12.5385ZM33.346 14.5385L30.5814 19.3269H36.1107L33.346 14.5385Z" fill="#AD5F00"/>
<path fill-rule="evenodd" clip-rule="evenodd" d="M33.346 11.9153L28.9243 19.5739H37.7677L33.346 11.9153ZM33.346 13.9153L30.6564 18.5739H36.0356L33.346 13.9153Z" fill="white"/>
<defs>
<filter id="filter0_i_677_336" x="10.1619" y="11.1602" width="13.6924" height="13.6923" filterUnits="userSpaceOnUse" color-interpolation-filters="sRGB">
<feFlood flood-opacity="0" result="BackgroundImageFix"/>
<feBlend mode="normal" in="SourceGraphic" in2="BackgroundImageFix" result="shape"/>
<feColorMatrix in="SourceAlpha" type="matrix" values="0 0 0 0 0 0 0 0 0 0 0 0 0 0 0 0 0 0 127 0" result="hardAlpha"/>
<feOffset dx="4" dy="4"/>
<feGaussianBlur stdDeviation="2"/>
<feComposite in2="hardAlpha" operator="arithmetic" k2="-1" k3="1"/>
<feColorMatrix type="matrix" values="0 0 0 0 0 0 0 0 0 0 0 0 0 0 0 0 0 0 0.5 0"/>
<feBlend mode="normal" in2="shape" result="effect1_innerShadow_677_336"/>
</filter>
<filter id="filter1_d_677_336" x="10" y="11.0001" width="10" height="10" filterUnits="userSpaceOnUse" color-interpolation-filters="sRGB">
<feFlood flood-opacity="0" result="BackgroundImageFix"/>
<feColorMatrix in="SourceAlpha" type="matrix" values="0 0 0 0 0 0 0 0 0 0 0 0 0 0 0 0 0 0 127 0" result="hardAlpha"/>
<feOffset/>
<feGaussianBlur stdDeviation="1"/>
<feComposite in2="hardAlpha" operator="out"/>
<feColorMatrix type="matrix" values="0 0 0 0 1 0 0 0 0 1 0 0 0 0 1 0 0 0 1 0"/>
<feBlend mode="normal" in2="BackgroundImageFix" result="effect1_dropShadow_677_336"/>
<feBlend mode="normal" in="SourceGraphic" in2="effect1_dropShadow_677_336" result="shape"/>
</filter>
<radialGradient id="paint0_radial_677_336" cx="0" cy="0" r="1" gradientUnits="userSpaceOnUse" gradientTransform="translate(39.993 44) scale(5.00946 2.25)">
<stop stop-color="#181818"/>
<stop offset="1" stop-color="#181818" stop-opacity="0"/>
</radialGradient>
<radialGradient id="paint1_radial_677_336" cx="0" cy="0" r="1" gradientUnits="userSpaceOnUse" gradientTransform="translate(8.00702 44) rotate(180) scale(5.00946 2.25)">
<stop stop-color="#181818"/>
<stop offset="1" stop-color="#181818" stop-opacity="0"/>
</radialGradient>
<linearGradient id="paint2_linear_677_336" x1="25.2093" y1="46.2678" x2="25.2093" y2="41.7496" gradientUnits="userSpaceOnUse">
<stop stop-color="#181818" stop-opacity="0"/>
<stop offset="0.5" stop-color="#181818"/>
<stop offset="1" stop-color="#181818" stop-opacity="0"/>
</linearGradient>
<linearGradient id="paint3_linear_677_336" x1="23.5283" y1="6.08319" x2="23.5283" y2="44.2331" gradientUnits="userSpaceOnUse">
<stop stop-color="#F9C440"/>
<stop offset="1" stop-color="#D48E15"/>
</linearGradient>
<linearGradient id="paint4_linear_677_336" x1="39" y1="7" x2="39" y2="42.9454" gradientUnits="userSpaceOnUse">
<stop stop-color="white"/>
<stop offset="0.0678164" stop-color="white" stop-opacity="0.235294"/>
<stop offset="0.946944" stop-color="white" stop-opacity="0.156863"/>
<stop offset="1" stop-color="white" stop-opacity="0.392157"/>
</linearGradient>
<linearGradient id="paint5_linear_677_336" x1="12.0023" y1="11.1602" x2="18.3507" y2="20.1798" gradientUnits="userSpaceOnUse">
<stop offset="0.389307" stop-color="#FF698A"/>
<stop offset="1" stop-color="#79EBFF"/>
</linearGradient>
<linearGradient id="paint6_linear_677_336" x1="11.3732" y1="12.3718" x2="18.0367" y2="19.641" gradientUnits="userSpaceOnUse">
<stop stop-color="white" stop-opacity="0.75"/>
<stop offset="1" stop-color="white" stop-opacity="0"/>
</linearGradient>
<linearGradient id="paint7_linear_677_336" x1="17.5903" y1="12.3935" x2="16.3567" y2="14.0575" gradientUnits="userSpaceOnUse">
<stop offset="0.479901" stop-color="#F9F5AB"/>
<stop offset="1" stop-color="white" stop-opacity="0.5"/>
</linearGradient>
<linearGradient id="paint8_linear_677_336" x1="11.4231" y1="12.3039" x2="18.7982" y2="19.0296" gradientUnits="userSpaceOnUse">
<stop stop-color="white"/>
<stop offset="0.5" stop-color="white" stop-opacity="0"/>
<stop offset="1" stop-color="#99E9FF"/>
</linearGradient>
<linearGradient id="paint9_linear_677_336" x1="18.7622" y1="17.3251" x2="17.9193" y2="17.2604" gradientUnits="userSpaceOnUse">
<stop stop-color="#D7F9FF"/>
<stop offset="1" stop-color="#D7F9FF" stop-opacity="0"/>
</linearGradient>
<linearGradient id="paint10_linear_677_336" x1="11.8913" y1="13.8069" x2="13.6454" y2="15.2882" gradientUnits="userSpaceOnUse">
<stop stop-color="white"/>
<stop offset="1" stop-color="white" stop-opacity="0"/>
</linearGradient>
</defs>
</svg>
