<svg width="24" height="24" viewBox="0 0 24 24" fill="none" xmlns="http://www.w3.org/2000/svg">
<g opacity="0.4">
<path d="M23 20H20.1052V23H23V20Z" fill="url(#paint0_radial_677_362)"/>
<path d="M1.00004 23H3.89478V20H1.00004V23Z" fill="url(#paint1_radial_677_362)"/>
<path d="M20.1053 20H3.89478V23H20.1053V20Z" fill="url(#paint2_linear_677_362)"/>
</g>
<path d="M19.5 2.5H4.5C3.39543 2.5 2.5 3.39543 2.5 4.5V19.5C2.5 20.6046 3.39543 21.5 4.5 21.5H19.5C20.6046 21.5 21.5 20.6046 21.5 19.5V4.5C21.5 3.39543 20.6046 2.5 19.5 2.5Z" fill="url(#paint3_linear_677_362)" stroke="#AD5F00" stroke-opacity="0.5" stroke-width="0.999998"/>
<path opacity="0.35" d="M19.5012 3.49878H4.50122C3.94894 3.49878 3.50122 3.94649 3.50122 4.49878V19.4988C3.50122 20.0511 3.94894 20.4988 4.50122 20.4988H19.5012C20.0535 20.4988 20.5012 20.0511 20.5012 19.4988V4.49878C20.5012 3.94649 20.0535 3.49878 19.5012 3.49878Z" stroke="url(#paint4_linear_677_362)" stroke-linecap="round" stroke-linejoin="round"/>
<path d="M3 4.5C3 3.67157 3.67157 3 4.5 3H12V12H3V4.5Z" fill="white" fill-opacity="0.3"/>
<path d="M21 19.5C21 20.3284 20.3284 21 19.5 21L12 21L12 12L21 12L21 19.5Z" fill="white" fill-opacity="0.3"/>
<g filter="url(#filter0_i_677_362)">
<path d="M10.0039 7.50317C10.0039 8.88389 8.88462 10.0032 7.50391 10.0032C6.12319 10.0032 5.00391 8.88389 5.00391 7.50317C5.00391 6.12246 6.12319 5.00317 7.50391 5.00317C8.88462 5.00317 10.0039 6.12246 10.0039 7.50317Z" fill="url(#paint5_linear_677_362)"/>
</g>
<path d="M9.25003 5.714C10.2382 6.6783 8.15585 6.20259 7.19156 7.19077C6.22726 8.17895 6.74619 10.2568 5.75801 9.29252C4.76983 8.32822 4.75047 6.74543 5.71476 5.75725C6.67906 4.76907 8.26185 4.74971 9.25003 5.714Z" fill="url(#paint6_linear_677_362)"/>
<g filter="url(#filter1_d_677_362)">
<path d="M9.04763 7.50001C9.04763 8.35474 8.35474 9.04763 7.50001 9.04763C6.64529 9.04763 5.95239 8.35474 5.95239 7.50001C5.95239 6.64529 6.64529 5.95239 7.50001 5.95239C8.35474 5.95239 9.04763 6.64529 9.04763 7.50001Z" fill="white"/>
</g>
<path d="M9.25834 7.01733C8.97349 7.39427 8.95888 6.81019 8.30145 6.32279C7.64402 5.83539 7.09764 6.00358 7.38248 5.62664C7.66733 5.2497 8.31816 5.25545 8.83617 5.63948C9.35417 6.02351 9.54318 6.64039 9.25834 7.01733Z" fill="url(#paint7_linear_677_362)"/>
<path fill-rule="evenodd" clip-rule="evenodd" d="M7.50391 9.70317C8.71893 9.70317 9.70391 8.7182 9.70391 7.50317C9.70391 6.28815 8.71893 5.30317 7.50391 5.30317C6.28888 5.30317 5.30391 6.28815 5.30391 7.50317C5.30391 8.7182 6.28888 9.70317 7.50391 9.70317ZM7.50391 10.0032C8.88462 10.0032 10.0039 8.88389 10.0039 7.50317C10.0039 6.12246 8.88462 5.00317 7.50391 5.00317C6.12319 5.00317 5.00391 6.12246 5.00391 7.50317C5.00391 8.88389 6.12319 10.0032 7.50391 10.0032Z" fill="url(#paint8_linear_677_362)"/>
<path d="M9.39411 8.39043C9.29704 8.59119 9.11586 8.70532 8.98944 8.64535C8.86301 8.58537 8.83922 8.37401 8.93629 8.17326C9.03337 7.9725 9.21455 7.85837 9.34097 7.91834C9.46739 7.97831 9.49118 8.18967 9.39411 8.39043Z" fill="url(#paint9_linear_677_362)"/>
<path d="M6.38768 6.76558C6.16317 7.07102 5.82525 7.20618 5.6329 7.06748C5.44056 6.92878 5.46664 6.56874 5.69115 6.26331C5.91566 5.95787 6.25358 5.8227 6.44592 5.9614C6.63826 6.1001 6.61218 6.46015 6.38768 6.76558Z" fill="url(#paint10_linear_677_362)"/>
<path fill-rule="evenodd" clip-rule="evenodd" d="M7.40629 12.7505C9.61824 12.7505 10.9925 14.7597 10.7893 15.9577C10.7178 16.3788 10.6002 16.6933 10.4889 16.9908C10.2836 17.5398 10.1 18.0307 10.2688 19.0255C10.2688 19.2306 10.0472 19.2039 9.77667 19.1713C9.49534 19.1374 9.16102 19.0971 8.96765 19.3044C8.77715 19.5085 8.79584 19.7127 8.81953 19.9715C8.82821 20.0663 8.83755 20.1684 8.83755 20.2805C7.92674 20.6988 7.27617 20.6988 6.36538 20.2805C6.36538 19.8622 6.36537 19.5833 6.10515 19.3044C5.9089 19.094 5.60601 19.1361 5.35745 19.1706C5.12126 19.2033 4.93412 19.2293 4.93412 19.0255C5.01064 18.1233 4.81589 17.6436 4.61674 17.153C4.4773 16.8094 4.3357 16.4606 4.28355 15.9577C4.15341 14.7028 5.19435 12.7505 7.40629 12.7505Z" fill="#AD5F00" fill-opacity="0.25"/>
<path fill-rule="evenodd" clip-rule="evenodd" d="M8.54397 15.9617C8.30145 15.7124 7.9324 15.5156 7.46356 15.5156C6.99966 15.5156 6.7102 15.6974 6.53324 15.903C6.45761 15.9908 6.40408 16.0806 6.3672 16.1636C6.64852 16.097 6.94872 16.095 7.23513 16.1757C7.34808 16.2075 7.46687 16.2555 7.58219 16.322C7.69751 16.2555 7.8163 16.2075 7.92925 16.1757C8.18032 16.105 8.44198 16.0978 8.69223 16.142C8.6552 16.0872 8.60696 16.0265 8.54397 15.9617ZM8.34455 19.4456C8.11866 19.5342 7.91454 19.5856 7.71393 19.5999C7.60696 19.6075 7.50098 19.6046 7.39323 19.591C7.18919 19.5654 6.9788 19.5019 6.74326 19.4005C6.74326 19.2678 6.74326 19.1568 6.72222 19.0568C6.70022 18.9522 6.65522 18.8597 6.56319 18.7673C6.47945 18.6831 6.36766 18.6612 6.25392 18.6621C6.1832 18.6626 6.11173 18.6719 6.04579 18.6804C5.88235 18.7017 5.75286 18.7186 5.75286 18.5863C5.77712 18.3181 5.76196 18.1074 5.72516 17.9273C5.68165 17.7143 5.60789 17.544 5.53323 17.3716C5.46077 17.2042 5.38746 17.0349 5.34016 16.8228C5.32448 16.7524 5.31166 16.6774 5.30267 16.5962C5.21262 15.782 5.93293 14.5156 7.46356 14.5156C8.99418 14.5156 9.94516 15.819 9.80451 16.5962C9.79444 16.6518 9.78304 16.7046 9.77062 16.755C9.72209 16.952 9.65799 17.1127 9.5967 17.2663C9.51456 17.4722 9.43746 17.6655 9.40957 17.9166C9.38921 18.0999 9.39508 18.314 9.44437 18.5863C9.44437 18.7194 9.29105 18.7021 9.10381 18.6809C9.06625 18.6767 9.02733 18.6723 8.988 18.6689C8.94307 18.6651 8.89761 18.6626 8.85306 18.6632C8.74667 18.6646 8.6455 18.6838 8.56913 18.7447C8.56042 18.7517 8.55203 18.7592 8.54399 18.7673C8.45231 18.8594 8.43065 18.9515 8.43147 19.0555C8.43183 19.1011 8.4365 19.1489 8.44149 19.2001C8.44649 19.2513 8.45181 19.3057 8.45345 19.3645C8.45378 19.3763 8.45396 19.3883 8.45396 19.4005C8.41689 19.4164 8.38044 19.4315 8.34455 19.4456ZM8.56182 18.0639C8.5791 18.0657 8.59624 18.0669 8.6132 18.0676C8.64957 18.0689 8.68511 18.0677 8.71943 18.064C8.71943 18.064 8.71943 18.064 8.71943 18.064C8.74249 18.0614 8.76501 18.0578 8.78685 18.053C8.93869 18.0201 9.058 17.9341 9.10388 17.8066C9.11438 17.7774 9.12054 17.7474 9.12265 17.7171C9.12357 17.7038 9.12372 17.6904 9.12311 17.677C9.11636 17.5275 9.01592 17.3733 8.85549 17.2635C8.79944 17.2252 8.73607 17.1922 8.66682 17.1668C8.66597 17.1665 8.66512 17.1662 8.66426 17.1659C8.63433 17.155 8.60434 17.1459 8.57449 17.1386C8.58276 17.1154 8.591 17.0929 8.59913 17.0713C8.58461 17.0734 8.56856 17.0768 8.55096 17.0817C8.52781 17.0882 8.49622 17.0999 8.46054 17.1186C8.37445 17.1097 8.29178 17.1152 8.21756 17.1337C8.21598 17.134 8.2144 17.1344 8.21282 17.1349C8.07184 17.1712 7.96205 17.2549 7.91848 17.3759C7.86056 17.5369 7.9347 17.7222 8.0924 17.8612C8.09334 17.862 8.0943 17.8628 8.09525 17.8637C8.11752 17.8831 8.14144 17.9016 8.16686 17.919C8.17473 17.9244 8.18274 17.9297 8.1909 17.9348C8.24082 17.9665 8.296 17.9938 8.35554 18.0157C8.35639 18.016 8.35724 18.0163 8.35809 18.0166C8.37203 18.0217 8.38598 18.0264 8.39992 18.0306C8.4544 18.0474 8.50876 18.0584 8.56182 18.0639ZM7.74858 18.1568L7.6956 18.0277C7.64333 17.9004 7.46383 17.9004 7.41156 18.0277L7.25122 18.4184M7.75315 18.1679L7.74858 18.1568ZM7.04841 17.8811C7.04908 17.8806 7.04975 17.88 7.05041 17.8795C7.22281 17.7387 7.30641 17.544 7.2459 17.3759C7.20185 17.2535 7.09008 17.1694 6.94682 17.1337C6.93422 17.1305 6.92138 17.1277 6.90832 17.1254C6.84444 17.1137 6.77532 17.1112 6.70385 17.1186C6.66816 17.0999 6.63657 17.0882 6.61342 17.0817C6.55736 17.0659 6.51692 17.0666 6.49215 17.0702C6.50402 17.0982 6.51599 17.1268 6.52796 17.1563C6.51868 17.1593 6.5094 17.1625 6.50012 17.1659C6.49927 17.1662 6.49842 17.1665 6.49756 17.1668C6.42831 17.1922 6.36494 17.2252 6.30889 17.2635C6.14964 17.3725 6.04949 17.5252 6.04143 17.6737C6.04074 17.6865 6.04073 17.6993 6.04142 17.7119C6.04316 17.744 6.04941 17.7758 6.06051 17.8066C6.10104 17.9192 6.19887 17.9994 6.32582 18.0394C6.32844 18.0402 6.33107 18.041 6.33372 18.0418C6.33372 18.0418 6.33372 18.0418 6.33372 18.0418C6.40803 18.064 6.49194 18.0725 6.57995 18.0659C6.58746 18.0654 6.595 18.0647 6.60256 18.0639C6.65109 18.0589 6.70069 18.0493 6.75049 18.0348C6.76908 18.0294 6.78769 18.0234 6.80629 18.0166C6.80714 18.0163 6.80799 18.016 6.80885 18.0157C6.86838 17.9938 6.92356 17.9665 6.97349 17.9348C6.98164 17.9297 6.98965 17.9244 6.99752 17.919C7.01523 17.9069 7.03221 17.8942 7.04841 17.8811ZM7.24898 18.4241C7.23628 18.4588 7.23682 18.4943 7.2474 18.526C7.26314 18.573 7.30111 18.6115 7.35084 18.6257C7.36419 18.6295 7.37839 18.6316 7.39323 18.6316M7.70993 18.6316H7.71393C7.72878 18.6316 7.74297 18.6295 7.75633 18.6257C7.79227 18.6155 7.82207 18.5925 7.84177 18.5628C7.85798 18.5384 7.86736 18.5093 7.8677 18.4791C7.86792 18.4591 7.86422 18.4385 7.85595 18.4184M7.63765 18.6316H7.70993ZM7.45445 18.6316H7.63765Z" fill="#AD5F00"/>
<path fill-rule="evenodd" clip-rule="evenodd" d="M7.4638 13.9424C8.99443 13.9424 9.9454 15.2458 9.80476 16.023C9.75533 16.2961 9.67393 16.5002 9.59694 16.6931C9.45485 17.0493 9.32781 17.3678 9.44461 18.0132C9.44461 18.1462 9.29129 18.1289 9.10406 18.1077C8.90938 18.0858 8.67804 18.0596 8.54423 18.1941C8.41241 18.3265 8.42534 18.459 8.44174 18.6269C8.44774 18.6884 8.4542 18.7546 8.4542 18.8273C7.82394 19.0987 7.37375 19.0987 6.7435 18.8273C6.7435 18.5559 6.7435 18.375 6.56343 18.1941C6.42763 18.0576 6.21804 18.0849 6.04604 18.1073C5.8826 18.1285 5.7531 18.1454 5.7531 18.0132C5.80605 17.4279 5.67129 17.1166 5.53348 16.7984C5.43699 16.5755 5.339 16.3492 5.30292 16.023C5.21286 15.2088 5.93317 13.9424 7.4638 13.9424ZM6.80653 17.4434C7.13387 17.3245 7.33069 17.0377 7.24615 16.8027C7.1616 16.5678 6.8277 16.4738 6.50036 16.5927C6.17303 16.7116 5.9762 16.9985 6.06075 17.2334C6.1453 17.4683 6.47919 17.5624 6.80653 17.4434ZM7.91872 16.8027C7.83418 17.0377 8.031 17.3245 8.35834 17.4434C8.68568 17.5624 9.01957 17.4683 9.10412 17.2334C9.18867 16.9985 8.99185 16.7116 8.66451 16.5927C8.33717 16.4738 8.00327 16.5678 7.91872 16.8027ZM7.69584 17.4545C7.64358 17.3272 7.46407 17.3272 7.41181 17.4545L7.25146 17.8452C7.20976 17.9468 7.2841 18.0584 7.39348 18.0584H7.71418C7.82356 18.0584 7.89789 17.9468 7.85619 17.8452L7.69584 17.4545Z" fill="white"/>
<path d="M16.6733 3.52661L20.5119 10.5252H12.8347L16.6733 3.52661Z" fill="#AD5F00" fill-opacity="0.25"/>
<path fill-rule="evenodd" clip-rule="evenodd" d="M16.6731 6.35352L14.4248 10.2477H18.9215L16.6731 6.35352ZM16.6731 8.35352L16.1569 9.24775H17.1894L16.6731 8.35352Z" fill="#AD5F00"/>
<path fill-rule="evenodd" clip-rule="evenodd" d="M16.673 5.4577L14.4622 9.287H18.8838L16.673 5.4577ZM16.673 7.4577L16.1942 8.287H17.1518L16.673 7.4577Z" fill="white"/>
<defs>
<filter id="filter0_i_677_362" x="5.00391" y="5.00317" width="9" height="9" filterUnits="userSpaceOnUse" color-interpolation-filters="sRGB">
<feFlood flood-opacity="0" result="BackgroundImageFix"/>
<feBlend mode="normal" in="SourceGraphic" in2="BackgroundImageFix" result="shape"/>
<feColorMatrix in="SourceAlpha" type="matrix" values="0 0 0 0 0 0 0 0 0 0 0 0 0 0 0 0 0 0 127 0" result="hardAlpha"/>
<feOffset dx="4" dy="4"/>
<feGaussianBlur stdDeviation="2"/>
<feComposite in2="hardAlpha" operator="arithmetic" k2="-1" k3="1"/>
<feColorMatrix type="matrix" values="0 0 0 0 0 0 0 0 0 0 0 0 0 0 0 0 0 0 0.5 0"/>
<feBlend mode="normal" in2="shape" result="effect1_innerShadow_677_362"/>
</filter>
<filter id="filter1_d_677_362" x="3.95239" y="3.95239" width="7.09521" height="7.09521" filterUnits="userSpaceOnUse" color-interpolation-filters="sRGB">
<feFlood flood-opacity="0" result="BackgroundImageFix"/>
<feColorMatrix in="SourceAlpha" type="matrix" values="0 0 0 0 0 0 0 0 0 0 0 0 0 0 0 0 0 0 127 0" result="hardAlpha"/>
<feOffset/>
<feGaussianBlur stdDeviation="1"/>
<feComposite in2="hardAlpha" operator="out"/>
<feColorMatrix type="matrix" values="0 0 0 0 1 0 0 0 0 1 0 0 0 0 1 0 0 0 1 0"/>
<feBlend mode="normal" in2="BackgroundImageFix" result="effect1_dropShadow_677_362"/>
<feBlend mode="normal" in="SourceGraphic" in2="effect1_dropShadow_677_362" result="shape"/>
</filter>
<radialGradient id="paint0_radial_677_362" cx="0" cy="0" r="1" gradientUnits="userSpaceOnUse" gradientTransform="translate(20.1012 21.5) scale(2.90022 1.5)">
<stop stop-color="#181818"/>
<stop offset="1" stop-color="#181818" stop-opacity="0"/>
</radialGradient>
<radialGradient id="paint1_radial_677_362" cx="0" cy="0" r="1" gradientUnits="userSpaceOnUse" gradientTransform="translate(3.89884 21.5) rotate(180) scale(2.90022 1.5)">
<stop stop-color="#181818"/>
<stop offset="1" stop-color="#181818" stop-opacity="0"/>
</radialGradient>
<linearGradient id="paint2_linear_677_362" x1="12.6126" y1="23.0119" x2="12.6126" y2="19.9998" gradientUnits="userSpaceOnUse">
<stop stop-color="#181818" stop-opacity="0"/>
<stop offset="0.5" stop-color="#181818"/>
<stop offset="1" stop-color="#181818" stop-opacity="0"/>
</linearGradient>
<linearGradient id="paint3_linear_677_362" x1="11.7702" y1="2.78412" x2="11.7702" y2="21.37" gradientUnits="userSpaceOnUse">
<stop stop-color="#F9C440"/>
<stop offset="1" stop-color="#D48E15"/>
</linearGradient>
<linearGradient id="paint4_linear_677_362" x1="12.0012" y1="4.00001" x2="12.0012" y2="20" gradientUnits="userSpaceOnUse">
<stop stop-color="white" stop-opacity="0.235294"/>
<stop offset="1" stop-color="white" stop-opacity="0.392157"/>
</linearGradient>
<linearGradient id="paint5_linear_677_362" x1="5.95332" y1="5.00317" x2="9.22833" y2="9.65615" gradientUnits="userSpaceOnUse">
<stop offset="0.389307" stop-color="#FF698A"/>
<stop offset="1" stop-color="#79EBFF"/>
</linearGradient>
<linearGradient id="paint6_linear_677_362" x1="5.62906" y1="5.62827" x2="9.06656" y2="9.37827" gradientUnits="userSpaceOnUse">
<stop stop-color="white" stop-opacity="0.75"/>
<stop offset="1" stop-color="white" stop-opacity="0"/>
</linearGradient>
<linearGradient id="paint7_linear_677_362" x1="8.83614" y1="5.63949" x2="8.19977" y2="6.49787" gradientUnits="userSpaceOnUse">
<stop offset="0.479901" stop-color="#F9F5AB"/>
<stop offset="1" stop-color="white" stop-opacity="0.5"/>
</linearGradient>
<linearGradient id="paint8_linear_677_362" x1="5.65457" y1="5.59317" x2="9.45915" y2="9.06277" gradientUnits="userSpaceOnUse">
<stop stop-color="white"/>
<stop offset="0.5" stop-color="white" stop-opacity="0"/>
<stop offset="1" stop-color="#99E9FF"/>
</linearGradient>
<linearGradient id="paint9_linear_677_362" x1="9.44089" y1="8.18359" x2="9.00607" y2="8.15021" gradientUnits="userSpaceOnUse">
<stop stop-color="#D7F9FF"/>
<stop offset="1" stop-color="#D7F9FF" stop-opacity="0"/>
</linearGradient>
<linearGradient id="paint10_linear_677_362" x1="5.89626" y1="6.36866" x2="6.80114" y2="7.1328" gradientUnits="userSpaceOnUse">
<stop stop-color="white"/>
<stop offset="1" stop-color="white" stop-opacity="0"/>
</linearGradient>
</defs>
</svg>
