{
	"asset":{
		"generator":"Khronos glTF Blender I/O v4.2.70",
		"version":"2.0"
	},
	"extensionsUsed":[
		"KHR_materials_clearcoat",
		"KHR_materials_specular",
		"KHR_materials_anisotropy",
		"KHR_materials_ior"
	],
	"scene":0,
	"scenes":[
		{
			"name":"Scene",
			"nodes":[
				0,
				1
			]
		}
	],
	"nodes":[
		{
			"mesh":0,
			"name":"mantel_clock_01"
		},
		{
			"mesh":1,
			"name":"mantel_clock_01_glass",
			"translation":[
				0,
				0.09149909764528275,
				0.05647554621100426
			]
		}
	],
	"materials":[
		{
			"doubleSided":true,
			"extensions":{
				"KHR_materials_anisotropy":{
					"anisotropyStrength":1,
					"anisotropyTexture":{
						"index":0
					}
				}
			},
			"name":"mantel_clock_01",
			"normalTexture":{
				"index":1
			},
			"pbrMetallicRoughness":{
				"baseColorTexture":{
					"index":2
				},
				"metallicRoughnessTexture":{
					"index":3
				}
			}
		},
		{
			"alphaMode":"BLEND",
			"doubleSided":true,
			"extensions":{
				"KHR_materials_clearcoat":{
					"clearcoatFactor":0.25,
					"clearcoatRoughnessFactor":0.009999999776482582
				},
				"KHR_materials_specular":{
					"specularColorFactor":[
						2.0,
						2.0,
						2.0
					]
				},
				"KHR_materials_ior":{
					"ior":1.4500000476837158
				}
			},
			"name":"mantel_clock_01_glass",
			"normalTexture":{
				"index":4
			},
			"pbrMetallicRoughness":{
				"baseColorFactor":[
					1,
					1,
					1,
					0.30000001192092896
				],
				"baseColorTexture":{
					"index":5
				},
				"metallicFactor":0,
				"metallicRoughnessTexture":{
					"index":6
				}
			}
		}
	],
	"meshes":[
		{
			"name":"Plane.021",
			"primitives":[
				{
					"attributes":{
						"POSITION":0,
						"NORMAL":1,
						"TEXCOORD_0":2
					},
					"indices":3,
					"material":0
				}
			]
		},
		{
			"name":"Plane.001",
			"primitives":[
				{
					"attributes":{
						"POSITION":4,
						"NORMAL":5,
						"TEXCOORD_0":6
					},
					"indices":7,
					"material":1
				}
			]
		}
	],
	"textures":[
		{
			"sampler":0,
			"source":0
		},
		{
			"sampler":0,
			"source":1
		},
		{
			"sampler":0,
			"source":2
		},
		{
			"sampler":0,
			"source":3
		},
		{
			"sampler":0,
			"source":1
		},
		{
			"sampler":0,
			"source":2
		},
		{
			"sampler":0,
			"source":4
		}
	],
	"images":[
		{
			"mimeType":"image/png",
			"name":"Image",
			"uri":"textures/Image.png"
		},
		{
			"mimeType":"image/png",
			"name":"mantel_clock_01_nor_gl",
			"uri":"textures/mantel_clock_01_nor_gl.png"
		},
		{
			"mimeType":"image/jpeg",
			"name":"mantel_clock_01_diff",
			"uri":"textures/mantel_clock_01_diff.jpg"
		},
		{
			"mimeType":"image/png",
			"name":"mantel_clock_01_metal-mantel_clock_01_rough",
			"uri":"textures/mantel_clock_01_metal-mantel_clock_01_rough.png"
		},
		{
			"mimeType":"image/png",
			"name":"mantel_clock_01_rough",
			"uri":"textures/mantel_clock_01_rough.png"
		}
	],
	"accessors":[
		{
			"bufferView":0,
			"componentType":5126,
			"count":5297,
			"max":[
				0.1710682213306427,
				0.16050876677036285,
				0.06296312808990479
			],
			"min":[
				-0.1710682213306427,
				0.00047187702148221433,
				-0.06296312808990479
			],
			"type":"VEC3"
		},
		{
			"bufferView":1,
			"componentType":5126,
			"count":5297,
			"type":"VEC3"
		},
		{
			"bufferView":2,
			"componentType":5126,
			"count":5297,
			"type":"VEC2"
		},
		{
			"bufferView":3,
			"componentType":5123,
			"count":23346,
			"type":"SCALAR"
		},
		{
			"bufferView":4,
			"componentType":5126,
			"count":257,
			"max":[
				0.05397588014602661,
				0.05397584289312363,
				0.001674707978963852
			],
			"min":[
				-0.05397588014602661,
				-0.053975917398929596,
				-0.0025894194841384888
			],
			"type":"VEC3"
		},
		{
			"bufferView":5,
			"componentType":5126,
			"count":257,
			"type":"VEC3"
		},
		{
			"bufferView":6,
			"componentType":5126,
			"count":257,
			"type":"VEC2"
		},
		{
			"bufferView":7,
			"componentType":5123,
			"count":1440,
			"type":"SCALAR"
		}
	],
	"bufferViews":[
		{
			"buffer":0,
			"byteLength":63564,
			"byteOffset":0,
			"target":34962
		},
		{
			"buffer":0,
			"byteLength":63564,
			"byteOffset":63564,
			"target":34962
		},
		{
			"buffer":0,
			"byteLength":42376,
			"byteOffset":127128,
			"target":34962
		},
		{
			"buffer":0,
			"byteLength":46692,
			"byteOffset":169504,
			"target":34963
		},
		{
			"buffer":0,
			"byteLength":3084,
			"byteOffset":216196,
			"target":34962
		},
		{
			"buffer":0,
			"byteLength":3084,
			"byteOffset":219280,
			"target":34962
		},
		{
			"buffer":0,
			"byteLength":2056,
			"byteOffset":222364,
			"target":34962
		},
		{
			"buffer":0,
			"byteLength":2880,
			"byteOffset":224420,
			"target":34963
		}
	],
	"samplers":[
		{
			"magFilter":9729,
			"minFilter":9987
		}
	],
	"buffers":[
		{
			"byteLength":227300,
			"uri":"mantel_clock_01_1k.bin"
		}
	]
}
