# Blender 4.2.3 LTS
# www.blender.org
o Cube
v 0.000000 0.500000 0.818815
v -0.500000 0.500000 0.818815
v 0.500000 0.500000 3.000000
v 0.500000 -0.500000 3.000000
v 0.500000 0.500000 2.000000
v 0.500000 -0.500000 2.000000
v -0.500000 0.500000 2.000000
v 0.500000 15.500000 2.000000
v 0.500000 15.500000 3.000000
v -0.500000 15.500000 3.000000
v -0.000000 0.500000 2.000000
v -0.000000 15.500000 2.000000
v 0.000000 -0.500000 0.818815
v -0.500000 0.250000 -0.500000
v -0.500000 -0.500000 0.818815
v 0.000000 0.250000 -0.500000
v -0.500000 -0.250000 0.818815
v 0.000000 -0.250000 -0.500000
v 0.288263 -0.500000 2.000000
v 0.288263 0.500000 2.000000
v 0.000000 -0.250000 0.818815
v 0.000000 0.250000 0.818815
v 0.288263 0.500000 0.981535
v -0.500000 0.250000 0.818815
v 0.288263 -0.500000 0.981535
v 0.288263 -0.250000 0.818815
v 0.288263 0.250000 0.818815
v -0.500000 0.500000 1.000000
v -0.500000 15.500000 1.000000
v -0.020983 0.500000 1.000000
v -0.000000 0.500000 1.020983
v -0.000000 15.500000 1.020983
v -0.020983 15.500000 1.000000
v -0.500000 0.500000 -0.501185
vn -0.0000 1.0000 -0.0000
vn 1.0000 -0.0000 -0.0000
vn -0.0000 -0.0000 -1.0000
vn -0.0000 -1.0000 -0.0000
vn 0.7071 -0.0000 -0.7071
vn 0.4277 -0.4931 -0.7576
vn 0.4277 0.4931 -0.7576
vt 0.299181 0.267793
vt 0.300579 0.201126
vt 0.332514 0.201126
vt 0.345997 0.133311
vt 0.278182 0.067823
vt 0.344833 0.066660
vt 0.384777 0.383046
vt 0.406780 0.398667
vt 0.387466 0.403212
vt 0.133333 -0.000000
vt 0.066667 1.000000
vt 0.066667 0.000000
vt 0.354258 0.383487
vt 0.351026 0.402380
vt 0.166667 -0.000000
vt 0.133333 1.000000
vt 0.365847 0.217793
vt 0.399181 0.305714
vt 0.365847 0.305714
vt 0.344587 0.033331
vt 0.344587 0.052547
vt 0.332514 0.201126
vt 0.332514 0.217793
vt 0.332514 0.397785
vt 0.265847 0.367793
vt 0.282514 0.334460
vt 0.282514 0.367793
vt 0.336842 0.372788
vt 0.402692 0.305714
vt 0.231934 1.000000
vt 0.166667 1.000000
vt 0.344587 0.000000
vt 0.411249 0.031932
vt 0.409850 0.033331
vt 0.233913 1.000000
vt 0.231934 -0.000000
vt 0.233913 -0.000000
vt 0.265847 -0.000000
vt 0.399181 0.201126
vt 0.415847 0.289047
vt 0.399181 0.289126
vt 0.332514 0.334460
vt 0.265847 0.334460
vt 0.265847 0.267793
vt 0.299181 0.202525
vt 0.279345 0.134475
vt 0.402692 0.372787
vt 0.399181 0.217793
vt 0.276694 0.052547
vt 0.265847 0.033331
vt 0.265847 0.000000
vt 0.365847 0.201126
vt 0.277935 0.053710
vt 0.265847 0.334460
vt 0.336835 0.305714
vt 0.332514 0.305714
vt 0.411249 0.000000
vt 0.265847 1.000000
vt 0.415847 0.201126
s 0
f 12/1/1 33/2/1 29/3/1
f 3/4/2 6/5/2 5/6/2
f 26/7/3 13/8/3 21/9/3
f 5/10/2 9/11/2 3/12/2
f 27/13/3 21/9/3 22/14/3
f 11/15/3 8/16/3 5/10/3
f 22/17/2 18/18/2 16/19/2
f 11/20/1 5/6/1 20/21/1
f 2/22/3 22/17/3 24/23/3
f 6/5/3 20/21/3 5/6/3
f 1/24/3 27/13/3 22/14/3
f 17/25/3 13/26/3 15/27/3
f 23/28/2 19/29/2 26/7/2
f 16/19/1 24/23/1 22/17/1
f 11/15/2 32/30/2 12/31/2
f 7/32/4 30/33/4 31/34/4
f 33/35/5 31/36/5 30/37/5
f 28/38/3 33/35/3 30/37/3
f 2/39/2 14/40/2 34/41/2
f 29/3/1 10/42/1 9/43/1
f 9/43/1 8/44/1 12/1/1
f 12/1/1 32/45/1 33/2/1
f 29/3/4 9/43/4 12/1/4
f 3/4/2 4/46/2 6/5/2
f 26/7/6 25/47/6 13/8/6
f 5/10/2 8/16/2 9/11/2
f 27/13/3 26/7/3 21/9/3
f 11/15/3 12/31/3 8/16/3
f 22/17/2 21/48/2 18/18/2
f 23/49/1 1/50/1 2/51/1
f 2/51/1 7/32/1 11/20/1
f 23/49/1 2/51/1 11/20/1
f 20/21/1 23/49/1 11/20/1
f 2/22/3 1/52/3 22/17/3
f 6/5/3 19/53/3 20/21/3
f 1/24/7 23/28/7 27/13/7
f 17/25/3 21/54/3 13/26/3
f 26/7/2 27/13/2 23/28/2
f 23/28/2 20/55/2 19/29/2
f 19/29/2 25/47/2 26/7/2
f 16/19/1 14/56/1 24/23/1
f 11/15/2 31/36/2 32/30/2
f 31/34/4 11/20/4 7/32/4
f 7/32/4 28/57/4 30/33/4
f 33/35/5 32/30/5 31/36/5
f 28/38/3 29/58/3 33/35/3
f 2/39/2 24/59/2 14/40/2
