# Blender 4.2.3 LTS
# www.blender.org
o Cube.002
v 3.348505 -0.144349 -0.181277
v 3.348505 -0.494044 -0.181277
v 3.347522 -0.144349 0.168417
v 3.347522 -0.494044 0.168417
v 2.998811 -0.144349 -0.182260
v 2.997828 -0.144349 0.167434
v 2.997828 -0.494044 0.167434
v 0.952374 0.182436 -0.320180
v 0.952374 -0.500000 -0.320180
v 0.953329 0.182436 0.318320
v 0.953329 -0.500000 0.318320
v 0.317207 0.182436 -0.319220
v 0.318162 0.182436 0.319281
v 0.318162 -0.500000 0.319281
v 2.244544 -0.104865 -0.259145
v 2.244544 -0.499196 -0.259145
v 2.246400 -0.104865 0.244622
v 2.246400 -0.499196 0.244622
v 1.761381 -0.104865 -0.257210
v 1.761381 -0.499196 -0.257210
v 1.763237 -0.104865 0.246557
v 1.763237 -0.499196 0.246557
vn -0.0000 1.0000 -0.0000
vn -0.0028 -0.0000 1.0000
vn 1.0000 -0.0000 0.0028
vn 0.0015 -0.0000 1.0000
vn 1.0000 -0.0000 -0.0015
vn 0.0040 -0.0000 1.0000
vn 1.0000 -0.0000 -0.0037
vn -0.0040 -0.0000 -1.0000
vt 0.375000 0.750000
vt 0.125000 0.750000
vt 0.125000 0.500000
vt 0.375000 0.500000
vt 0.625000 0.500000
vt 0.375000 0.250000
vt 0.625000 0.250000
vt 0.625000 0.750000
vt 0.625000 1.000000
vt 0.375000 1.000000
s 0
f 1/1/1 5/2/1 6/3/1 3/4/1
f 4/5/2 3/4/2 6/6/2 7/7/2
f 2/8/3 1/1/3 3/4/3 4/5/3
f 8/1/1 12/2/1 13/3/1 10/4/1
f 11/5/4 10/4/4 13/6/4 14/7/4
f 9/8/5 8/1/5 10/4/5 11/5/5
f 15/1/1 19/2/1 21/3/1 17/4/1
f 18/5/6 17/4/6 21/6/6 22/7/6
f 16/8/7 15/1/7 17/4/7 18/5/7
f 20/9/8 19/10/8 15/1/8 16/8/8
