# Blender 4.2.3 LTS
# www.blender.org
o Cube
v -0.500000 0.000000 -0.500000
v 0.000000 0.000000 -0.500000
v -0.500000 0.250000 -0.500000
v 0.000000 0.250000 -0.500000
v -0.500000 -0.250000 -0.500000
v 0.000000 -0.250000 -0.500000
v 0.000000 -0.250000 0.498815
v 0.000000 0.250000 0.498815
v 0.000000 0.000000 0.498815
v -0.500000 0.250000 0.498815
v 0.000000 0.000000 0.373963
v 0.000000 0.000000 -0.375148
v 0.000000 0.125000 0.498815
v -0.500000 0.125000 -0.500000
v 0.000000 0.125000 -0.500000
v 0.136495 0.000000 0.363803
v 0.126335 0.000000 0.373963
v 0.136495 0.114840 -0.364988
v 0.126335 0.114840 -0.375148
v 0.126335 0.125000 -0.364988
v 0.126335 0.114840 0.373963
v 0.136495 0.114840 0.363803
v 0.126335 0.125000 0.363803
v 0.000000 0.114840 0.373963
v 0.000000 0.125000 0.363803
v 0.000000 0.125000 0.384124
v 0.126335 0.000000 -0.375148
v 0.136495 0.000000 -0.364988
v 0.000000 0.125000 -0.364988
v 0.000000 0.114840 -0.375148
v 0.000000 0.125000 -0.385309
vn -0.0000 -0.0000 -1.0000
vn 1.0000 -0.0000 -0.0000
vn -0.0000 1.0000 -0.0000
vn -0.0000 -0.0000 1.0000
vn -0.0000 -1.0000 -0.0000
vn 0.5773 0.5774 -0.5774
vn 0.5774 0.5773 0.5774
vn -0.0000 0.7071 0.7071
vn 0.7071 -0.0000 -0.7071
vn -0.0000 0.7071 -0.7071
vn 0.7071 0.7071 -0.0000
vn 0.7071 -0.0000 0.7071
vt 0.665992 0.003594
vt 0.665992 0.169193
vt 0.334793 0.169193
vt 0.334793 0.003594
vt 0.665992 0.251993
vt 0.665992 0.334793
vt 0.334793 0.334793
vt 0.334793 0.251993
vt 0.169193 0.913705
vt 0.169193 0.996406
vt 0.003594 0.996406
vt 0.003594 0.334793
vt 0.169193 0.334793
vt 0.169193 0.417494
vt 0.665992 0.996406
vt 0.334793 0.996406
vt 0.251993 0.334793
vt 0.251993 0.410764
vt 0.245263 0.417494
vt 0.899491 0.013181
vt 0.896799 0.628509
vt 0.816360 0.516284
vt 0.827030 0.152349
vt 0.880921 0.638803
vt 0.673179 0.665120
vt 0.744495 0.524365
vt 0.808586 0.522946
vt 0.673179 0.033275
vt 0.880246 0.003594
vt 0.818641 0.146421
vt 0.757401 0.141789
vt 0.245263 0.913705
vt 0.251993 0.920435
vt 0.251993 0.996406
vt 0.251993 0.424225
vt 0.251993 0.906974
vt 0.755552 0.151238
vt 0.741071 0.514648
vt 0.818149 0.155128
vt 0.807748 0.513877
s 0
f 5/1/1 1/2/1 2/3/1 6/4/1
f 14/5/1 3/6/1 4/7/1 15/8/1
f 11/9/2 9/10/2 7/11/2 6/12/2 2/13/2 12/14/2
f 10/15/3 8/16/3 4/7/3 3/6/3
f 2/13/2 15/17/2 31/18/2 30/19/2 12/14/2
f 29/20/3 25/21/3 23/22/3 20/23/3
f 24/24/4 11/25/4 17/26/4 21/27/4
f 12/28/1 30/29/1 19/30/1 27/31/1
f 11/9/2 24/32/2 26/33/2 13/34/2 9/10/2
f 29/35/2 31/18/2 15/17/2 4/7/2 8/16/2 13/34/2 26/33/2 25/36/2
f 1/2/1 14/5/1 15/8/1 2/3/1
f 11/25/5 12/28/5 27/31/5 28/37/5 16/38/5 17/26/5
f 18/39/6 19/30/6 20/23/6
f 21/27/7 22/40/7 23/22/7
f 24/32/2 25/36/2 26/33/2
f 29/35/2 30/19/2 31/18/2
f 24/24/8 21/27/8 23/22/8 25/21/8
f 18/39/9 28/37/9 27/31/9 19/30/9
f 29/20/10 20/23/10 19/30/10 30/29/10
f 20/23/11 23/22/11 22/40/11 18/39/11
f 21/27/12 17/26/12 16/38/12 22/40/12
f 18/39/2 22/40/2 16/38/2 28/37/2
