# Blender 4.2.3 LTS
# www.blender.org
o Cube
v -2.000000 0.500000 -40.500000
v -2.000000 30.500000 -40.500000
v -2.000000 0.500000 0.500000
v -2.000000 30.500000 0.500000
vn 1.0000 -0.0000 -0.0000
vt 0.375000 0.000000
vt 0.625000 0.000000
vt 0.625000 0.250000
vt 0.375000 0.250000
s 0
f 4/1/1 3/2/1 1/3/1 2/4/1
o Cube.001
v 0.500000 0.510000 0.500000
v -2.000000 0.510000 0.500000
v -2.000000 0.510000 0.000000
v 0.500000 0.510000 0.000000
v -2.000000 1.510000 -40.500000
v 0.500000 1.510000 -40.500000
v -2.000000 0.510000 0.000000
v -2.000000 0.760000 0.000000
v -2.000000 0.760000 -0.500000
v -2.000000 1.010000 -0.500000
v -2.000000 1.010000 -1.000000
v -2.000000 1.260000 -1.000000
v -2.000000 1.260000 -1.500000
v 0.500000 0.510000 0.000000
v 0.500000 1.260000 -1.500000
v 0.500000 1.260000 -1.000000
v 0.500000 1.010000 -1.000000
v 0.500000 1.010000 -0.500000
v 0.500000 0.760000 -0.500000
v 0.500000 0.760000 0.000000
v -2.000000 1.497330 -1.500000
v -2.000000 1.510000 -1.525339
v 0.500000 1.510000 -1.525339
v 0.500000 1.497330 -1.500000
v 0.500000 0.010000 0.500000
v -2.000000 0.010000 0.500000
vn -0.0000 1.0000 -0.0000
vn -0.0000 -0.0000 1.0000
vn -0.0000 0.8944 0.4472
vt 0.625000 0.500000
vt 0.750000 0.500000
vt 0.750000 0.750000
vt 0.625000 0.750000
vt 0.843750 0.500000
vt 0.843750 0.750000
vt 0.812500 0.750000
vt 0.812500 0.500000
vt 0.845334 0.500000
vt 0.845334 0.750000
vt 0.875000 0.750000
vt 0.875000 0.500000
s 0
f 5/5/2 8/6/2 7/7/2 6/8/2
f 7/7/2 8/6/2 18/6/2 11/7/2
f 28/9/3 25/10/3 17/10/3 19/9/3
f 19/9/2 17/10/2 16/11/2 20/12/2
f 20/12/3 16/11/3 15/7/3 21/6/3
f 21/6/2 15/7/2 14/7/2 22/6/2
f 22/6/3 14/7/3 13/7/3 23/6/3
f 23/6/2 13/7/2 12/7/2 24/6/2
f 24/6/3 12/7/3 11/7/3 18/6/3
f 25/10/4 28/9/4 27/13/4 26/14/4
f 9/15/2 26/14/2 27/13/2 10/16/2
f 5/5/3 6/8/3 30/8/3 29/5/3
