# Blender 4.2.3 LTS
# www.blender.org
o Cube
v 0.000000 2.919343 -0.559342
v 0.000000 0.900658 -0.559342
v 0.000000 2.919343 0.549342
v 0.000000 0.900658 0.549342
v -1.000000 3.060000 -0.700000
v -1.000000 0.760000 -0.700000
v -1.000000 3.060000 0.690000
v -1.000000 0.760000 0.690000
v 0.000000 3.060000 -0.700000
v 0.000000 0.760000 -0.700000
v 0.000000 3.060000 0.690000
v 0.000000 0.760000 0.690000
v -0.299438 2.919343 -0.559342
v -0.299438 0.900658 -0.559342
v -0.299438 2.919343 0.549342
v -0.299438 0.900658 0.549342
vn -0.0000 1.0000 -0.0000
vn -0.0000 -0.0000 1.0000
vn -0.0000 -1.0000 -0.0000
vn -0.0000 -0.0000 -1.0000
vn 1.0000 -0.0000 -0.0000
vt 0.496294 0.851225
vt 0.271841 0.851225
vt 0.271841 0.539235
vt 0.496294 0.539235
vt 0.334983 0.523907
vt 0.334983 0.007664
vt 0.559436 0.007664
vt 0.559436 0.523907
vt 0.736076 0.851225
vt 0.511623 0.851225
vt 0.511623 0.539235
vt 0.736076 0.539235
vt 0.897086 0.256512
vt 0.897086 0.007664
vt 0.964296 0.007664
vt 0.964296 0.256512
vt 0.574765 0.523907
vt 0.574765 0.007664
vt 0.799218 0.007664
vt 0.799218 0.523907
vt 0.039236 0.039235
vt 0.039236 0.492335
vt 0.007664 0.523907
vt 0.007664 0.007664
vt 0.288083 0.492335
vt 0.288083 0.039235
vt 0.319654 0.007664
vt 0.319654 0.523907
vt 0.007664 0.992336
vt 0.007664 0.539236
vt 0.256512 0.539236
vt 0.256512 0.992336
vt 0.814547 0.460764
vt 0.814547 0.007664
vt 0.881757 0.007664
vt 0.881757 0.460764
vt 0.964296 0.271841
vt 0.964296 0.520689
vt 0.897086 0.520689
vt 0.897086 0.271841
vt 0.881757 0.476093
vt 0.881757 0.929194
vt 0.814547 0.929194
vt 0.814547 0.476093
s 0
f 9/1/1 5/2/1 7/3/1 11/4/1
f 12/5/2 11/6/2 7/7/2 8/8/2
f 6/9/3 10/10/3 12/11/3 8/12/3
f 1/13/3 3/14/3 15/15/3 13/16/3
f 6/17/4 5/18/4 9/19/4 10/20/4
f 1/21/5 2/22/5 10/23/5 9/24/5
f 4/25/5 3/26/5 11/27/5 12/28/5
f 3/26/5 1/21/5 9/24/5 11/27/5
f 2/22/5 4/25/5 12/28/5 10/23/5
f 14/29/5 13/30/5 15/31/5 16/32/5
f 2/33/2 1/34/2 13/35/2 14/36/2
f 4/37/1 2/38/1 14/39/1 16/40/1
f 3/41/4 4/42/4 16/43/4 15/44/4
o Cube.001
v 0.500000 0.500000 -0.500000
v 0.500000 0.000000 -0.500000
v 0.500000 0.500000 0.500000
v 0.500000 0.000000 0.500000
v 0.000000 0.500000 0.500000
v 0.000000 0.500000 -0.500000
v -23.000000 1.500000 0.500000
v -23.000000 1.500000 -0.500000
v 0.000000 0.500000 0.500000
v -2.000000 1.500000 0.500000
v 0.000000 0.750000 0.500000
v -0.500000 0.750000 0.500000
v -0.500000 1.000000 0.500000
v -1.000000 1.000000 0.500000
v -1.000000 1.250000 0.500000
v -1.500000 1.250000 0.500000
v -2.000000 1.500000 -0.500000
v 0.000000 0.500000 -0.500000
v -1.500000 1.250000 -0.500000
v -1.000000 1.250000 -0.500000
v -1.000000 1.000000 -0.500000
v -0.500000 1.000000 -0.500000
v -0.500000 0.750000 -0.500000
v 0.000000 0.750000 -0.500000
v -1.500000 1.487330 0.500000
v -1.525339 1.500000 0.500000
v -1.525339 1.500000 -0.500000
v -1.500000 1.487330 -0.500000
vn 1.0000 -0.0000 -0.0000
vn -0.0000 1.0000 -0.0000
vn 0.4472 0.8944 -0.0000
vt 0.375000 0.500000
vt 0.625000 0.500000
vt 0.625000 0.750000
vt 0.375000 0.750000
vt 0.750000 0.500000
vt 0.750000 0.750000
vt 0.875000 0.500000
vt 0.875000 0.750000
vt 0.843750 0.500000
vt 0.843750 0.750000
vt 0.812500 0.750000
vt 0.812500 0.500000
vt 0.845334 0.500000
vt 0.845334 0.750000
s 0
f 18/45/6 17/46/6 19/47/6 20/48/6
f 17/46/7 22/49/7 21/50/7 19/47/7
f 21/50/7 22/49/7 34/49/7 25/50/7
f 33/51/7 24/51/7 23/52/7 26/52/7
f 44/53/6 41/54/6 32/54/6 35/53/6
f 35/53/7 32/54/7 31/55/7 36/56/7
f 36/56/6 31/55/6 30/50/6 37/49/6
f 37/49/7 30/50/7 29/50/7 38/49/7
f 38/49/6 29/50/6 28/50/6 39/49/6
f 39/49/7 28/50/7 27/50/7 40/49/7
f 40/49/6 27/50/6 25/50/6 34/49/6
f 41/54/8 44/53/8 43/57/8 42/58/8
f 33/51/7 26/52/7 42/58/7 43/57/7
