# Blender 4.2.3 LTS
# www.blender.org
o Wall
v 0.500000 0.500000 -0.500000
v 0.500000 -0.500000 -0.500000
v 0.500000 0.500000 0.500000
v 0.500000 -0.500000 0.500000
v -2.000000 -0.500000 -0.500000
v -2.000000 -0.500000 0.500000
v -1.000000 0.500000 0.500000
v -1.000000 0.500000 -0.500000
v -1.000000 15.500000 0.500000
v -2.000000 15.500000 0.500000
v -2.000000 15.500000 -0.500000
v -1.000000 15.500000 -0.500000
vn 1.0000 -0.0000 -0.0000
vn -0.0000 -0.0000 -1.0000
vn -0.0000 -0.0000 1.0000
vn -0.0000 1.0000 -0.0000
vt 0.216473 0.004373
vt 0.278422 0.004373
vt 0.278422 0.066327
vt 0.216473 0.066327
vt 0.075073 0.995627
vt 0.075073 0.004373
vt 0.099855 0.004373
vt 0.099855 0.933673
vt 0.137027 0.933673
vt 0.137027 0.995627
vt 0.041545 0.933673
vt 0.041545 0.004373
vt 0.066327 0.004373
vt 0.066327 0.995627
vt 0.004373 0.995627
vt 0.004373 0.933673
vt 0.216473 0.380214
vt 0.253645 0.380214
vt 0.253645 0.442167
vt 0.216473 0.442167
vt 0.216473 0.512867
vt 0.216473 0.450914
vt 0.241255 0.450914
vt 0.241255 0.512867
vt 0.207727 0.933609
vt 0.145773 0.933609
vt 0.145773 0.004373
vt 0.207727 0.004373
s 0
f 3/1/1 4/2/1 2/3/1 1/4/1
f 5/5/2 11/6/2 12/7/2 8/8/2 1/9/2 2/10/2
f 7/11/3 9/12/3 10/13/3 6/14/3 4/15/3 3/16/3
f 7/17/4 3/18/4 1/19/4 8/20/4
f 11/21/4 10/22/4 9/23/4 12/24/4
f 7/25/1 8/26/1 12/27/1 9/28/1
