# Blender 4.2.3 LTS
# www.blender.org
o Cube.002
v -0.236545 -0.144349 -4.953632
v -0.236545 -0.494044 -4.953632
v 0.098156 -0.144349 -5.054933
v 0.098156 -0.494044 -5.054933
v -0.135244 -0.144349 -4.618931
v 0.199457 -0.144349 -4.720231
v 0.199457 -0.494044 -4.720231
v -0.320180 0.182436 -0.952374
v -0.320180 -0.500000 -0.952374
v 0.318320 0.182436 -0.953329
v 0.318320 -0.500000 -0.953329
v -0.319220 0.182436 -0.317207
v 0.319281 0.182436 -0.318162
v 0.319281 -0.500000 -0.318162
v 0.051890 -0.201751 -3.085190
v 0.051890 -0.498249 -3.085190
v -0.558127 -0.201751 -3.164617
v 0.023523 -0.201751 -3.632799
v 0.023523 -0.498249 -3.632799
v -0.297151 -0.201751 -3.757613
v -0.297151 -0.498249 -3.757613
v -0.316543 -0.104865 -2.341378
v -0.316543 -0.499196 -2.341378
v 0.283457 -0.104865 -2.341769
v 0.283457 -0.499196 -2.341769
v -0.316153 -0.104865 -1.741378
v -0.316153 -0.499196 -1.741378
v 0.283847 -0.104865 -1.741769
v 0.283847 -0.499196 -1.741769
v 1.655408 -0.201751 -0.160540
v 1.655408 -0.498249 -0.160540
v 0.651598 -0.201751 -0.556030
v 1.646068 -0.201751 -1.463513
v 1.646068 -0.498249 -1.463513
v 0.843828 -0.201751 -1.463313
v 0.843828 -0.498249 -1.463313
v 0.783372 -0.104865 -3.006117
v 0.783372 -0.499196 -3.006117
v 1.249730 -0.104865 -2.929718
v 1.249730 -0.499196 -2.929718
v 0.707054 -0.104865 -2.539264
v 0.707054 -0.499196 -2.539264
v 1.173412 -0.104865 -2.462865
v 1.173412 -0.499196 -2.462865
v 1.656987 -0.144349 -2.063505
v 1.656987 -0.494044 -2.063505
v 1.991688 -0.144349 -2.164805
v 1.991688 -0.494044 -2.164805
v 1.758288 -0.144349 -1.728803
v 2.092989 -0.144349 -1.830104
v 2.092989 -0.494044 -1.830104
v 1.810616 -0.144349 -3.576675
v 1.810616 -0.494044 -3.576675
v 2.195194 -0.144349 -3.333282
v 2.195194 -0.494044 -3.333282
v 1.667810 -0.144349 -3.245516
v 2.052389 -0.144349 -3.002123
v 2.052389 -0.494044 -3.002123
v 2.409139 -0.104865 -1.168117
v 2.409139 -0.499196 -1.168117
v 2.919186 -0.104865 -0.852122
v 2.919186 -0.499196 -0.852122
v 2.093144 -0.104865 -0.658071
v 2.093144 -0.499196 -0.658071
v 2.603191 -0.104865 -0.342076
v 2.603191 -0.499196 -0.342076
vn -0.0000 1.0000 -0.0000
vn 0.9571 -0.0000 -0.2897
vn -0.2897 -0.0000 -0.9571
vn 1.0000 -0.0000 -0.0015
vn -0.0015 -0.0000 -1.0000
vn 0.3627 -0.0000 -0.9319
vn 0.9987 -0.0000 -0.0517
vn 1.0000 -0.0000 -0.0007
vn -0.0007 -0.0000 -1.0000
vn -1.0000 -0.0000 0.0007
vn -0.0002 -0.0000 -1.0000
vn 1.0000 -0.0000 -0.0072
vn 0.9869 -0.0000 0.1613
vn 0.1617 -0.0000 -0.9868
vn -0.9869 -0.0000 -0.1613
vn 0.9183 -0.0000 0.3960
vn 0.5348 -0.0000 -0.8450
vn 0.8501 -0.0000 0.5267
vn 0.5267 -0.0000 -0.8501
vn -0.8501 -0.0000 -0.5267
vt 0.375000 0.750000
vt 0.125000 0.750000
vt 0.125000 0.500000
vt 0.375000 0.500000
vt 0.625000 0.500000
vt 0.375000 0.250000
vt 0.625000 0.250000
vt 0.625000 0.750000
vt 0.375000 0.750000
vt 0.625000 0.750000
vt 0.625000 0.500000
vt 0.375000 1.000000
vt 0.625000 1.000000
vt 0.125000 0.500000
vt 0.125000 0.750000
vt 0.375000 0.250000
vt 0.625000 0.250000
vt 0.125000 0.500000
vt 0.375000 0.500000
vt 0.625000 0.750000
vt 0.625000 1.000000
vt 0.375000 1.000000
s 0
f 1/1/1 5/2/1 6/3/1 3/4/1
f 4/5/2 3/4/2 6/6/2 7/7/2
f 2/8/3 1/1/3 3/4/3 4/5/3
f 8/1/1 12/2/1 13/3/1 10/4/1
f 11/5/4 10/4/4 13/6/4 14/7/4
f 9/8/5 8/1/5 10/4/5 11/5/5
f 20/4/6 18/9/6 19/10/6 21/11/6
f 18/9/7 15/12/7 16/13/7 19/10/7
f 17/14/1 15/15/1 18/9/1 20/4/1
f 22/1/1 26/2/1 28/3/1 24/4/1
f 25/5/8 24/4/8 28/6/8 29/7/8
f 23/8/9 22/1/9 24/4/9 25/5/9
f 27/16/10 26/17/10 22/11/10 23/4/10
f 35/4/11 33/9/11 34/10/11 36/11/11
f 33/9/12 30/12/12 31/13/12 34/10/12
f 32/14/1 30/15/1 33/9/1 35/4/1
f 37/1/1 41/2/1 43/3/1 39/4/1
f 40/5/13 39/4/13 43/6/13 44/7/13
f 38/8/14 37/1/14 39/4/14 40/5/14
f 42/16/15 41/17/15 37/11/15 38/4/15
f 45/1/1 49/2/1 50/3/1 47/4/1
f 48/5/2 47/4/2 50/6/2 51/7/2
f 46/8/3 45/1/3 47/4/3 48/5/3
f 52/1/1 56/2/1 57/3/1 54/4/1
f 55/5/16 54/4/16 57/6/16 58/7/16
f 53/8/17 52/1/17 54/4/17 55/5/17
f 59/9/1 63/15/1 65/18/1 61/19/1
f 62/9/18 61/10/18 65/13/18 66/12/18
f 60/20/19 59/9/19 61/19/19 62/5/19
f 64/21/20 63/22/20 59/9/20 60/20/20
