<svg width="128" height="128" viewBox="0 0 128 128" fill="none" xmlns="http://www.w3.org/2000/svg">
<path opacity="0.2" d="M119 118C118.998 119.591 113.202 121.117 102.888 122.242C92.5733 123.367 78.5853 123.999 64 123.999C49.4147 123.999 35.4267 123.367 25.1124 122.242C14.7982 121.117 9.00249 119.591 9 118C8.99877 117.212 10.4205 116.432 13.1839 115.704C15.9474 114.975 19.9985 114.314 25.1058 113.757C30.2132 113.199 36.2767 112.757 42.9502 112.456C49.6238 112.154 56.7765 111.999 64 111.999C71.2235 111.999 78.3762 112.154 85.0498 112.456C91.7233 112.757 97.7868 113.199 102.894 113.757C108.002 114.314 112.053 114.975 114.816 115.704C117.58 116.432 119.001 117.212 119 118Z" fill="url(#paint0_radial_1149_10)"/>
<g opacity="0.4">
<path opacity="0.4" d="M118 116H103.789V121H118V116Z" fill="url(#paint1_radial_1149_10)"/>
<path opacity="0.4" d="M10 121H24.2106V116H10V121Z" fill="url(#paint2_radial_1149_10)"/>
<path opacity="0.4" d="M103.79 116H24.2106V121H103.79V116Z" fill="url(#paint3_linear_1149_10)"/>
</g>
<path d="M105.5 15.5H22.5C16.9772 15.5 12.5 19.9772 12.5 25.5V108.5C12.5 114.023 16.9772 118.5 22.5 118.5H105.5C111.023 118.5 115.5 114.023 115.5 108.5V25.5C115.5 19.9772 111.023 15.5 105.5 15.5Z" fill="url(#paint4_linear_1149_10)"/>
<path opacity="0.5" d="M105.5 16.5H22.5C17.5294 16.5 13.5 20.5294 13.5 25.5V108.5C13.5 113.471 17.5294 117.5 22.5 117.5H105.5C110.471 117.5 114.5 113.471 114.5 108.5V25.5C114.5 20.5294 110.471 16.5 105.5 16.5Z" stroke="url(#paint5_linear_1149_10)" stroke-linecap="round" stroke-linejoin="round"/>
<path opacity="0.7" d="M105.5 15.5H22.5C16.9772 15.5 12.5 19.9772 12.5 25.5V108.5C12.5 114.023 16.9772 118.5 22.5 118.5H105.5C111.023 118.5 115.5 114.023 115.5 108.5V25.5C115.5 19.9772 111.023 15.5 105.5 15.5Z" stroke="black" stroke-linecap="round" stroke-linejoin="round"/>
<circle cx="46.3257" cy="49.4942" r="29.0414" fill="url(#paint6_radial_1149_10)"/>
<circle cx="46.3257" cy="49.4942" r="29.5414" stroke="black" stroke-opacity="0.75"/>
<g filter="url(#filter0_d_1149_10)">
<circle cx="46.3257" cy="49.4942" r="24.8566" fill="url(#paint7_radial_1149_10)"/>
<circle cx="46.3257" cy="49.4942" r="24.3566" stroke="url(#paint8_linear_1149_10)" stroke-opacity="0.75"/>
</g>
<path fill-rule="evenodd" clip-rule="evenodd" d="M25.224 39.1692L25.4024 39.3476L26.127 38.6229L25.718 38.2139C25.8872 37.9043 26.0638 37.5978 26.2479 37.2944L29.7416 40.7881L30.4663 40.0635L26.8539 36.4511L26.6507 36.6543C27.2615 35.7172 27.9457 34.8139 28.7033 33.9524L29.7504 34.9995L30.4751 34.2749L29.397 33.1968C29.5149 33.0737 29.6345 32.9517 29.7556 32.8305C30.9435 31.6426 32.2262 30.6077 33.5793 29.7257L33.376 29.929L34.0984 30.6515L34.8231 29.9268L34.2193 29.323C34.5226 29.1389 34.8292 28.9623 35.1387 28.7931L35.5478 29.2021L36.2725 28.4775L36.094 28.299C37.1023 27.8066 38.1383 27.3903 39.1933 27.0502L41.3364 29.1934L42.0611 28.4687L40.3123 26.7199C41.5188 26.396 42.7457 26.1694 43.9807 26.0403L47.125 29.1846L47.8497 28.4599L45.3279 25.9381C45.8026 25.9158 46.2779 25.9076 46.7529 25.9138L47.1294 26.2903L47.485 25.9347C48.294 25.9703 49.1015 26.0475 49.9039 26.1661L52.9136 29.1758L53.6383 28.4511L51.6878 26.5006C52.3601 26.6538 53.0269 26.8368 53.6861 27.0496L54.3629 27.7265L54.6901 27.3993C55.0364 27.5287 55.3802 27.6667 55.7213 27.8131L52.1867 31.3476L52.9092 32.0701L56.5326 28.4467L56.0375 27.9516C57.2204 28.4804 58.3684 29.1119 59.4679 29.8463L57.9753 31.3389L58.6978 32.0613L60.3176 30.4416C60.5934 30.6441 60.8658 30.8535 61.1345 31.0696L60.8696 31.3345L64.482 34.9469L64.7473 34.6816C64.9635 34.9503 65.1729 35.2226 65.3755 35.4984L63.7552 37.1187L64.4777 37.8412L65.9709 36.3479C66.7065 37.4487 67.3391 38.5981 67.8685 39.7827L67.3698 39.2839L63.7464 42.9073L64.4689 43.6298L68.0049 40.0938C68.1513 40.4347 68.2893 40.7785 68.4189 41.1247L68.09 41.4536L68.7705 42.134C68.9834 42.7932 69.1664 43.46 69.3195 44.1324L67.3654 42.1782L66.6407 42.9029L69.654 45.9162C69.7724 46.7163 69.8494 47.5215 69.8851 48.3282L69.5262 48.6871L69.9063 49.0672C69.9125 49.5422 69.9044 50.0175 69.882 50.4922L67.3566 47.9668L66.6319 48.6915L69.7799 51.8394C69.6507 53.0744 69.4242 54.3014 69.1003 55.5079L67.3478 53.7554L66.6231 54.4801L68.7699 56.6269C68.4298 57.6819 68.0135 58.7178 67.5211 59.7261L67.339 59.5441L66.6144 60.2687L67.0271 60.6814C66.8579 60.991 66.6812 61.2975 66.4971 61.6008L65.8897 60.9934L65.165 61.7181L65.8875 62.4405L66.1081 62.22C65.2231 63.5807 64.1836 64.8706 62.9896 66.0646C62.8685 66.1857 62.7464 66.3052 62.6233 66.4231L61.5416 65.3414L60.817 66.0661L61.8677 67.1169C60.9999 67.88 60.0895 68.5688 59.145 69.183L59.3654 68.9626L55.753 65.3502L55.0284 66.0749L58.5257 69.5722C58.2224 69.7563 57.9158 69.9329 57.6063 70.1021L57.1936 69.6895L56.4689 70.4141L56.6509 70.5962C55.6622 71.0791 54.6469 71.4887 53.6131 71.8251L56.4711 68.967L55.7487 68.2445L52.1253 71.8679L52.4327 72.1753C52.0455 72.2792 51.6561 72.3731 51.2651 72.457L49.9557 71.1476L49.231 71.8723L50.0443 72.6856C49.6189 72.7537 49.192 72.8101 48.7642 72.8548L48.5063 72.5969L48.1959 72.9073C47.4625 72.9662 46.727 72.9908 45.9919 72.9813L44.167 71.1564L43.4424 71.8811L44.474 72.9127C43.928 72.8704 43.3833 72.8091 42.8409 72.7289L42.7177 72.6057L42.6271 72.6963C42.2189 72.6321 41.8121 72.5571 41.4071 72.4713L44.8939 68.9846L44.1714 68.2621L40.5481 71.8854L41.057 72.3944C40.3847 72.2412 39.7178 72.0582 39.0586 71.8453L38.3784 71.1652L38.0497 71.4939C37.7035 71.3643 37.3598 71.2263 37.0188 71.0798L39.1053 68.9933L38.3828 68.2709L36.0275 70.6262C35.0823 70.1666 34.1618 69.6399 33.2729 69.0459L33.3167 69.0021L32.5942 68.2796L32.4234 68.4504C32.1476 68.2478 31.8753 68.0385 31.6066 67.8223L31.8717 67.5572L31.1493 66.8347L30.8218 67.1622C30.5669 66.9381 30.3156 66.7076 30.0683 66.4706L33.3255 63.2135L32.603 62.491L29.3459 65.7481C29.109 65.5007 28.8786 65.2495 28.6546 64.9945L28.9818 64.6672L28.2593 63.9448L27.9946 64.2095C27.7785 63.9408 27.5692 63.6684 27.3666 63.3925L27.5369 63.2223L26.8144 62.4998L26.7714 62.5428C26.1775 61.6538 25.6509 60.7331 25.1916 59.7877L27.5456 57.4337L26.8232 56.7112L24.7381 58.7962C24.5917 58.4552 24.4538 58.1114 24.3243 57.7651L24.6513 57.4381L23.9748 56.7615C23.7619 56.1023 23.5789 55.4355 23.4258 54.7631L23.9311 55.2684L27.5544 51.6451L26.8319 50.9226L23.3475 54.407C23.2619 54.0019 23.187 53.595 23.1229 53.1867L23.2108 53.0988L23.0912 52.9793C23.011 52.4368 22.9497 51.8921 22.9075 51.3462L23.9355 52.3741L24.6601 51.6495L22.8389 49.8282C22.8293 49.0905 22.8541 48.3523 22.9134 47.6163L23.2196 47.3102L22.9653 47.0559C23.01 46.6281 23.0665 46.2013 23.1346 45.7759L23.9442 46.5855L24.6689 45.8608L23.3631 44.555C23.447 44.164 23.5409 43.7747 23.6449 43.3875L23.9486 43.6912L27.572 40.0678L26.8495 39.3454L23.9986 42.1963C24.3343 41.1662 24.7428 40.1545 25.224 39.1692ZM27.5786 35.7264L28.3032 35.0017L29.0257 35.7242L28.301 36.4489L27.5786 35.7264ZM31.1997 33.5502L30.4773 32.8277L31.2019 32.103L31.9244 32.8255L31.1997 33.5502ZM57.2551 29.1692L57.9775 29.8917L57.2529 30.6164L56.5304 29.8939L57.2551 29.1692ZM59.4203 32.7838L60.145 32.0591L60.8675 32.7816L60.1428 33.5063L59.4203 32.7838ZM63.0349 34.9491L63.7574 35.6715L63.0327 36.3962L62.3102 35.6737L63.0349 34.9491ZM65.2001 38.5636L65.9248 37.839L66.6473 38.5614L65.9226 39.2861L65.2001 38.5636ZM63.7135 64.6146L62.9888 65.3392L62.2663 64.6168L62.991 63.8921L63.7135 64.6146ZM60.0923 66.7908L60.8148 67.5133L60.0901 68.2379L59.3676 67.5155L60.0923 66.7908ZM25.3936 45.1362L24.6711 44.4137L25.3958 43.689L26.1182 44.4115L25.3936 45.1362ZM27.5698 41.515L28.2945 40.7903L29.0169 41.5128L28.2923 42.2375L27.5698 41.515ZM31.191 39.3388L30.4685 38.6163L31.1932 37.8916L31.9156 38.6141L31.191 39.3388ZM29.746 37.8938L29.0235 37.1714L32.6469 33.548L33.3694 34.2705L29.746 37.8938ZM33.3672 35.7176L34.0918 34.9929L34.8143 35.7154L34.0897 36.4401L33.3672 35.7176ZM36.2637 34.2661L35.539 34.9907L31.9266 31.3784L32.6513 30.6537L36.2637 34.2661ZM36.9883 33.5414L36.2659 32.8189L36.9905 32.0942L37.713 32.8167L36.9883 33.5414ZM35.5434 32.0964L34.8209 31.374L38.4443 27.7506L39.1668 28.4731L35.5434 32.0964ZM39.1646 29.9202L39.8892 29.1956L40.6117 29.918L39.887 30.6427L39.1646 29.9202ZM42.7857 27.744L42.0633 27.0215L42.7879 26.2969L43.5104 27.0193L42.7857 27.744ZM47.8519 27.0128L48.5765 26.2881L49.299 27.0106L48.5743 27.7352L47.8519 27.0128ZM51.4665 29.178L52.1889 29.9005L51.4643 30.6252L50.7418 29.9027L51.4665 29.178ZM53.6317 32.7926L54.3564 32.0679L55.0788 32.7904L54.3542 33.5151L53.6317 32.7926ZM55.081 31.3432L55.8057 30.6186L59.4181 34.231L58.6934 34.9556L55.081 31.3432ZM57.2463 34.9578L57.9688 35.6803L57.2441 36.405L56.5216 35.6825L57.2463 34.9578ZM58.689 37.8499L57.9666 37.1275L61.5899 33.5041L62.3124 34.2266L58.689 37.8499ZM59.4115 38.5724L60.1362 37.8477L60.8587 38.5702L60.134 39.2949L59.4115 38.5724ZM60.8609 37.1231L61.5855 36.3984L65.1979 40.0108L64.4733 40.7355L60.8609 37.1231ZM63.0261 40.7377L63.7486 41.4601L63.0239 42.1848L62.3014 41.4623L63.0261 40.7377ZM65.1914 44.3522L65.916 43.6276L66.6385 44.3501L65.9138 45.0747L65.1914 44.3522ZM68.8059 46.5175L69.5284 47.24L68.8037 47.9646L68.0813 47.2422L68.8059 46.5175ZM69.5196 53.0286L68.795 53.7532L68.0725 53.0308L68.7972 52.3061L69.5196 53.0286ZM65.8985 55.2048L66.6209 55.9273L65.8963 56.6519L65.1738 55.9295L65.8985 55.2048ZM67.3434 56.6497L68.0659 57.3722L64.4425 60.9956L63.7201 60.2731L67.3434 56.6497ZM63.7223 58.826L62.9976 59.5506L62.2751 58.8282L62.9998 58.1035L63.7223 58.826ZM60.8258 60.2775L61.5504 59.5528L65.1628 63.1652L64.4381 63.8899L60.8258 60.2775ZM60.1011 61.0022L60.8236 61.7247L60.0989 62.4493L59.3764 61.7268L60.1011 61.0022ZM61.546 62.4471L62.2685 63.1696L58.6452 66.793L57.9227 66.0705L61.546 62.4471ZM57.9249 64.6233L57.2002 65.348L56.4777 64.6255L57.2024 63.9009L57.9249 64.6233ZM54.3037 66.7996L55.0262 67.522L54.3015 68.2467L53.579 67.5242L54.3037 66.7996ZM52.1275 70.4207L51.4028 71.1454L50.6803 70.4229L51.405 69.6983L52.1275 70.4207ZM39.8256 71.163L39.1031 70.4405L39.8278 69.7158L40.5503 70.4383L39.8256 71.163ZM37.6604 67.5484L36.9357 68.273L36.2132 67.5506L36.9379 66.8259L37.6604 67.5484ZM36.211 68.9977L35.4863 69.7224L31.8739 66.11L32.5986 65.3853L36.211 68.9977ZM34.0458 65.3831L33.3233 64.6607L34.048 63.936L34.7704 64.6585L34.0458 65.3831ZM31.8805 61.7685L31.1558 62.4932L30.4334 61.7707L31.158 61.0461L31.8805 61.7685ZM30.4312 63.2179L29.7065 63.9426L26.0941 60.3302L26.8188 59.6055L30.4312 63.2179ZM28.2659 59.6033L27.5435 58.8808L28.2681 58.1562L28.9906 58.8786L28.2659 59.6033ZM26.1007 55.9887L25.376 56.7134L24.6535 55.9909L25.3782 55.2662L26.1007 55.9887ZM25.3848 50.9248L24.6623 50.2023L25.387 49.4776L26.1095 50.2001L25.3848 50.9248ZM23.9398 49.4798L23.2174 48.7573L26.8407 45.134L27.5632 45.8565L23.9398 49.4798ZM27.561 47.3036L28.2857 46.5789L29.0082 47.3014L28.2835 48.0261L27.561 47.3036ZM30.4575 45.8521L29.7328 46.5767L26.1204 42.9643L26.8451 42.2397L30.4575 45.8521ZM31.1822 45.1274L30.4597 44.4049L31.1844 43.6802L31.9069 44.4027L31.1822 45.1274ZM29.7372 43.6824L29.0147 42.96L32.6381 39.3366L33.3606 40.0591L29.7372 43.6824ZM33.3584 41.5062L34.0831 40.7815L34.8055 41.504L34.0809 42.2287L33.3584 41.5062ZM36.2549 40.0547L35.5302 40.7794L31.9178 37.167L32.6425 36.4423L36.2549 40.0547ZM36.9796 39.33L36.2571 38.6075L36.9818 37.8829L37.7042 38.6053L36.9796 39.33ZM35.5346 37.8851L34.8121 37.1626L38.4355 33.5392L39.158 34.2617L35.5346 37.8851ZM39.1558 35.7088L39.8805 34.9842L40.6029 35.7066L39.8783 36.4313L39.1558 35.7088ZM42.0523 34.2573L41.3276 34.982L37.7152 31.3696L38.4399 30.6449L42.0523 34.2573ZM42.777 33.5326L42.0545 32.8101L42.7792 32.0855L43.5016 32.8079L42.777 33.5326ZM41.332 32.0877L40.6095 31.3652L44.2329 27.7418L44.9554 28.4643L41.332 32.0877ZM44.9532 29.9115L45.6778 29.1868L46.4003 29.9093L45.6756 30.6339L44.9532 29.9115ZM46.3981 31.3564L50.0215 27.733L50.744 28.4555L47.1206 32.0789L46.3981 31.3564ZM47.8431 32.8014L48.5678 32.0767L49.2902 32.7992L48.5656 33.5238L47.8431 32.8014ZM49.2924 31.352L50.0171 30.6273L53.6295 34.2397L52.9048 34.9644L49.2924 31.352ZM51.4577 34.9666L52.1802 35.6891L51.4555 36.4138L50.733 35.6913L51.4577 34.9666ZM52.9004 37.8587L52.178 37.1362L55.8013 33.5129L56.5238 34.2354L52.9004 37.8587ZM53.6229 38.5812L54.3476 37.8565L55.0701 38.579L54.3454 39.3037L53.6229 38.5812ZM55.0723 37.1318L55.7969 36.4072L59.4093 40.0196L58.6847 40.7442L55.0723 37.1318ZM57.2375 40.7464L57.96 41.4689L57.2353 42.1936L56.5128 41.4711L57.2375 40.7464ZM58.6803 43.6385L57.9578 42.9161L61.5812 39.2927L62.3036 40.0152L58.6803 43.6385ZM59.4027 44.361L60.1274 43.6364L60.8499 44.3588L60.1252 45.0835L59.4027 44.361ZM60.8521 42.9117L61.5768 42.187L65.1892 45.7994L64.4645 46.5241L60.8521 42.9117ZM63.0173 46.5263L63.7398 47.2487L63.0151 47.9734L62.2927 47.2509L63.0173 46.5263ZM64.4601 49.4184L63.7376 48.6959L67.361 45.0725L68.0835 45.795L64.4601 49.4184ZM65.1826 50.1409L65.9072 49.4162L66.6297 50.1387L65.9051 50.8633L65.1826 50.1409ZM67.3522 50.8611L68.0747 51.5836L64.4513 55.207L63.7288 54.4845L67.3522 50.8611ZM63.731 53.0374L63.0064 53.762L62.2839 53.0395L63.0086 52.3149L63.731 53.0374ZM60.8345 54.4889L61.5592 53.7642L65.1716 57.3766L64.4469 58.1013L60.8345 54.4889ZM60.1099 55.2136L60.8323 55.936L60.1077 56.6607L59.3852 55.9382L60.1099 55.2136ZM61.5548 56.6585L62.2773 57.381L58.6539 61.0044L57.9315 60.2819L61.5548 56.6585ZM57.9336 58.8347L57.209 59.5594L56.4865 58.8369L57.2112 58.1123L57.9336 58.8347ZM55.0371 60.2863L55.7618 59.5616L59.3742 63.174L58.6495 63.8987L55.0371 60.2863ZM54.3125 61.011L55.035 61.7334L54.3103 62.4581L53.5878 61.7356L54.3125 61.011ZM55.7574 62.4559L56.4799 63.1784L52.8565 66.8018L52.1341 66.0793L55.7574 62.4559ZM52.1363 64.6321L51.4116 65.3568L50.6891 64.6343L51.4138 63.9096L52.1363 64.6321ZM49.2398 66.0837L49.9644 65.359L53.5768 68.9714L52.8522 69.6961L49.2398 66.0837ZM48.5151 66.8083L49.2376 67.5308L48.5129 68.2555L47.7904 67.533L48.5151 66.8083ZM49.96 68.2533L50.6825 68.9758L47.0592 72.5991L46.3367 71.8767L49.96 68.2533ZM46.3389 70.4295L45.6142 71.1542L44.8917 70.4317L45.6164 69.707L46.3389 70.4295ZM43.449 67.5396L42.7243 68.2643L42.0018 67.5418L42.7265 66.8171L43.449 67.5396ZM41.9996 68.9889L41.2749 69.7136L37.6625 66.1012L38.3872 65.3766L41.9996 68.9889ZM39.8344 65.3744L39.1119 64.6519L39.8366 63.9272L40.559 64.6497L39.8344 65.3744ZM38.3916 62.4822L39.1141 63.2047L35.4907 66.8281L34.7682 66.1056L38.3916 62.4822ZM37.6691 61.7598L36.9445 62.4844L36.222 61.762L36.9467 61.0373L37.6691 61.7598ZM36.2198 63.2091L35.4951 63.9338L31.8827 60.3214L32.6074 59.5967L36.2198 63.2091ZM34.0545 59.5945L33.3321 58.872L34.0567 58.1474L34.7792 58.8699L34.0545 59.5945ZM32.6118 56.7024L33.3343 57.4249L29.7109 61.0483L28.9884 60.3258L32.6118 56.7024ZM31.8893 55.9799L31.1646 56.7046L30.4421 55.9821L31.1668 55.2575L31.8893 55.9799ZM30.44 57.4293L29.7153 58.154L26.1029 54.5416L26.8276 53.8169L30.44 57.4293ZM28.2747 53.8147L27.5522 53.0922L28.2769 52.3675L28.9994 53.09L28.2747 53.8147ZM29.7241 52.3653L26.1117 48.753L26.8363 48.0283L30.4487 51.6407L29.7241 52.3653ZM31.1734 50.916L30.4509 50.1935L31.1756 49.4689L31.8981 50.1913L31.1734 50.916ZM29.7284 49.471L29.006 48.7486L32.6293 45.1252L33.3518 45.8477L29.7284 49.471ZM33.3496 47.2948L34.0743 46.5702L34.7968 47.2926L34.0721 48.0173L33.3496 47.2948ZM36.2461 45.8433L35.5214 46.568L31.9091 42.9556L32.6337 42.2309L36.2461 45.8433ZM36.9708 45.1186L36.2483 44.3961L36.973 43.6715L37.6955 44.3939L36.9708 45.1186ZM35.5258 43.6737L34.8034 42.9512L38.4267 39.3278L39.1492 40.0503L35.5258 43.6737ZM39.147 41.4974L39.8717 40.7728L40.5942 41.4953L39.8695 42.2199L39.147 41.4974ZM42.0435 40.0459L41.3188 40.7706L37.7064 37.1582L38.4311 36.4335L42.0435 40.0459ZM42.7682 39.3212L42.0457 38.5988L42.7704 37.8741L43.4929 38.5966L42.7682 39.3212ZM41.3232 37.8763L40.6007 37.1538L44.2241 33.5304L44.9466 34.2529L41.3232 37.8763ZM44.9444 35.7001L45.6691 34.9754L46.3915 35.6979L45.6669 36.4225L44.9444 35.7001ZM47.8409 34.2485L47.1162 34.9732L43.5038 31.3608L44.2285 30.6361L47.8409 34.2485ZM46.3893 37.145L50.0127 33.5216L50.7352 34.2441L47.1118 37.8675L46.3893 37.145ZM47.8343 38.59L48.559 37.8653L49.2815 38.5878L48.5568 39.3125L47.8343 38.59ZM49.2837 37.1406L50.0083 36.416L53.6207 40.0283L52.896 40.753L49.2837 37.1406ZM51.4489 40.7552L52.1714 41.4777L51.4467 42.2024L50.7242 41.4799L51.4489 40.7552ZM52.8917 43.6473L52.1692 42.9248L55.7925 39.3015L56.515 40.024L52.8917 43.6473ZM53.6141 44.3698L54.3388 43.6451L55.0613 44.3676L54.3366 45.0923L53.6141 44.3698ZM55.0635 42.9205L55.7882 42.1958L59.4005 45.8082L58.6759 46.5329L55.0635 42.9205ZM57.2287 46.535L57.9512 47.2575L57.2265 47.9822L56.504 47.2597L57.2287 46.535ZM58.6715 49.4272L57.949 48.7047L61.5724 45.0813L62.2949 45.8038L58.6715 49.4272ZM59.394 50.1496L60.1186 49.425L60.8411 50.1474L60.1164 50.8721L59.394 50.1496ZM60.8433 48.7003L61.568 47.9756L65.1804 51.588L64.4557 52.3127L60.8433 48.7003ZM61.5636 50.8699L62.2861 51.5924L58.6627 55.2158L57.9402 54.4933L61.5636 50.8699ZM57.9424 53.0461L57.2178 53.7708L56.4953 53.0483L57.2199 52.3237L57.9424 53.0461ZM55.0459 54.4977L55.7706 53.773L59.383 57.3854L58.6583 58.1101L55.0459 54.4977ZM54.3213 55.2223L55.0437 55.9448L54.3191 56.6695L53.5966 55.947L54.3213 55.2223ZM55.7662 56.6673L56.4887 57.3898L52.8653 61.0131L52.1428 60.2907L55.7662 56.6673ZM52.145 58.8435L51.4204 59.5682L50.6979 58.8457L51.4226 58.121L52.145 58.8435ZM49.2485 60.2951L49.9732 59.5704L53.5856 63.1828L52.8609 63.9075L49.2485 60.2951ZM48.5239 61.0197L49.2463 61.7422L48.5217 62.4669L47.7992 61.7444L48.5239 61.0197ZM49.9688 62.4647L50.6913 63.1872L47.0679 66.8105L46.3455 66.0881L49.9688 62.4647ZM46.3477 64.6409L45.623 65.3656L44.9005 64.6431L45.6252 63.9184L46.3477 64.6409ZM43.4512 66.0924L44.1758 65.3678L47.7882 68.9802L47.0635 69.7048L43.4512 66.0924ZM44.9027 63.1959L41.2793 66.8193L40.5568 66.0968L44.1802 62.4735L44.9027 63.1959ZM43.4577 61.751L42.7331 62.4757L42.0106 61.7532L42.7353 61.0285L43.4577 61.751ZM42.0084 63.2003L41.2837 63.925L37.6713 60.3126L38.396 59.5879L42.0084 63.2003ZM39.8431 59.5857L39.1207 58.8633L39.8453 58.1386L40.5678 58.8611L39.8431 59.5857ZM38.4004 56.6936L39.1229 57.4161L35.4995 61.0395L34.777 60.317L38.4004 56.6936ZM37.6779 55.9712L36.9532 56.6958L36.2308 55.9734L36.9554 55.2487L37.6779 55.9712ZM36.2286 57.4205L35.5039 58.1452L31.8915 54.5328L32.6162 53.8081L36.2286 57.4205ZM34.0633 53.8059L33.3408 53.0834L34.0655 52.3588L34.788 53.0812L34.0633 53.8059ZM32.6206 50.9138L33.343 51.6363L29.7197 55.2597L28.9972 54.5372L32.6206 50.9138ZM35.5127 52.3566L31.9003 48.7442L32.6249 48.0195L36.2373 51.6319L35.5127 52.3566ZM36.962 50.9072L36.2395 50.1847L36.9642 49.4601L37.6867 50.1826L36.962 50.9072ZM35.5171 49.4623L34.7946 48.7398L38.4179 45.1164L39.1404 45.8389L35.5171 49.4623ZM39.1382 47.2861L39.8629 46.5614L40.5854 47.2839L39.8607 48.0085L39.1382 47.2861ZM42.0347 45.8345L41.3101 46.5592L37.6977 42.9468L38.4223 42.2221L42.0347 45.8345ZM42.7594 45.1098L42.0369 44.3874L42.7616 43.6627L43.4841 44.3852L42.7594 45.1098ZM41.3144 43.6649L40.592 42.9424L44.2153 39.319L44.9378 40.0415L41.3144 43.6649ZM44.9356 41.4887L45.6603 40.764L46.3828 41.4865L45.6581 42.2111L44.9356 41.4887ZM47.8321 40.0371L47.1074 40.7618L43.495 37.1494L44.2197 36.4247L47.8321 40.0371ZM46.3806 42.9336L50.0039 39.3103L50.7264 40.0327L47.103 43.6561L46.3806 42.9336ZM47.8255 44.3786L48.5502 43.6539L49.2727 44.3764L48.548 45.1011L47.8255 44.3786ZM49.2749 42.9292L49.9995 42.2046L53.6119 45.817L52.8873 46.5416L49.2749 42.9292ZM51.4401 46.5438L52.1626 47.2663L51.4379 47.991L50.7154 47.2685L51.4401 46.5438ZM52.8829 49.4359L52.1604 48.7135L55.7838 45.0901L56.5062 45.8126L52.8829 49.4359ZM53.6054 50.1584L54.33 49.4337L55.0525 50.1562L54.3278 50.8809L53.6054 50.1584ZM55.0547 48.7091L55.7794 47.9844L59.3918 51.5968L58.6671 52.3215L55.0547 48.7091ZM55.775 50.8787L56.4975 51.6012L52.8741 55.2245L52.1516 54.5021L55.775 50.8787ZM52.1538 53.0549L51.4291 53.7796L50.7067 53.0571L51.4313 52.3324L52.1538 53.0549ZM49.2573 54.5065L49.982 53.7818L53.5944 57.3942L52.8697 58.1188L49.2573 54.5065ZM48.5326 55.2311L49.2551 55.9536L48.5304 56.6783L47.808 55.9558L48.5326 55.2311ZM49.9776 56.6761L50.7001 57.3986L47.0767 61.0219L46.3542 60.2994L49.9776 56.6761ZM46.3564 58.8523L45.6318 59.577L44.9093 58.8545L45.634 58.1298L46.3564 58.8523ZM43.4599 60.3038L44.1846 59.5792L47.797 63.1916L47.0723 63.9162L43.4599 60.3038ZM44.9115 57.4073L41.2881 61.0307L40.5656 60.3082L44.189 56.6849L44.9115 57.4073ZM43.4665 55.9624L42.7418 56.6871L42.0194 55.9646L42.744 55.2399L43.4665 55.9624ZM42.0172 57.4117L41.2925 58.1364L37.6801 54.524L38.4048 53.7993L42.0172 57.4117ZM39.8519 53.7971L39.1294 53.0747L39.8541 52.35L40.5766 53.0725L39.8519 53.7971ZM38.4092 50.905L39.1316 51.6275L35.5083 55.2509L34.7858 54.5284L38.4092 50.905ZM41.3013 52.3478L37.6889 48.7354L38.4136 48.0107L42.0259 51.6231L41.3013 52.3478ZM42.7506 50.8984L42.0281 50.176L42.7528 49.4513L43.4753 50.1738L42.7506 50.8984ZM41.3057 49.4535L40.5832 48.731L44.2066 45.1076L44.929 45.8301L41.3057 49.4535ZM44.9268 47.2773L45.6515 46.5526L46.374 47.2751L45.6493 47.9998L44.9268 47.2773ZM47.8233 45.8257L47.0987 46.5504L43.4863 42.938L44.2109 42.2133L47.8233 45.8257ZM46.3718 48.7222L49.9952 45.0989L50.7176 45.8213L47.0943 49.4447L46.3718 48.7222ZM47.8168 50.1672L48.5414 49.4425L49.2639 50.165L48.5392 50.8897L47.8168 50.1672ZM49.2661 48.7178L49.9908 47.9932L53.6032 51.6056L52.8785 52.3302L49.2661 48.7178ZM49.9864 50.8875L50.7089 51.61L47.0855 55.2333L46.363 54.5108L49.9864 50.8875ZM46.3652 53.0637L45.6405 53.7884L44.9181 53.0659L45.6427 52.3412L46.3652 53.0637ZM43.4687 54.5152L44.1934 53.7906L47.8058 57.4029L47.0811 58.1276L43.4687 54.5152ZM44.9203 51.6187L41.2969 55.2421L40.5744 54.5196L44.1978 50.8963L44.9203 51.6187ZM47.0899 52.339L43.4775 48.7266L44.2022 48.0019L47.8146 51.6143L47.0899 52.339Z" fill="url(#paint9_linear_1149_10)" fill-opacity="0.5"/>
<g filter="url(#filter1_di_1149_10)">
<circle cx="46.3258" cy="49.4942" r="6.94774" fill="url(#paint10_radial_1149_10)"/>
<circle cx="46.3258" cy="49.4942" r="6.44774" stroke="url(#paint11_linear_1149_10)" stroke-opacity="0.75"/>
</g>
<circle cx="93.268" cy="37.2021" r="18.249" fill="url(#paint12_radial_1149_10)"/>
<circle cx="93.268" cy="37.2021" r="18.749" stroke="black" stroke-opacity="0.75"/>
<g filter="url(#filter2_d_1149_10)">
<circle cx="93.2678" cy="37.2021" r="13" fill="url(#paint13_radial_1149_10)"/>
<circle cx="93.2678" cy="37.2021" r="12.5" stroke="url(#paint14_linear_1149_10)" stroke-opacity="0.75"/>
</g>
<path fill-rule="evenodd" clip-rule="evenodd" d="M81.3416 35.8659C81.293 36.3046 81.2681 36.7504 81.2681 37.2021C81.2681 37.2784 81.2688 37.3545 81.2702 37.4305L83.4135 39.5738L82.6889 40.2985L81.4039 39.0135C81.5025 39.6647 81.6534 40.2988 81.8523 40.9113L81.9642 41.0231L81.9082 41.0791C82.0287 41.4323 82.1652 41.778 82.3168 42.1155L85.5854 38.8469L86.3078 39.5694L82.8014 43.0758C83.3113 43.9825 83.9356 44.8162 84.6547 45.5574L85.5766 44.6355L86.2991 45.358L85.3969 46.2602C85.8402 46.6457 86.312 46.9992 86.8088 47.3171L86.2969 46.8052L87.0215 46.0805L87.744 46.803L87.0684 47.4786C87.3715 47.6619 87.6835 47.8321 88.0034 47.9886L91.3652 44.6268L92.0877 45.3492L89.0116 48.4253C89.791 48.7211 90.6093 48.938 91.4567 49.0663L90.6361 48.2457L91.3608 47.5211L93.0397 49.2C93.1156 49.2014 93.1918 49.2021 93.2681 49.2021C94.5146 49.2021 95.7167 49.012 96.8471 48.6593L96.4247 48.237L97.1494 47.5123L97.9089 48.2718C100.182 47.3176 102.1 45.6836 103.407 43.6242L102.222 42.4396L102.947 41.7149L103.935 42.7036C104.102 42.381 104.255 42.0498 104.392 41.711L103.671 40.9902L104.396 40.2655L104.769 40.6383C104.882 40.2576 104.978 39.869 105.053 39.4735L102.231 36.651L102.956 35.9263L105.227 38.198C105.254 37.8696 105.268 37.5375 105.268 37.2021C105.268 37.0616 105.266 36.9216 105.261 36.7822L105.125 36.6466L105.249 36.5226C105.225 36.0821 105.176 35.648 105.105 35.2214L104.403 35.9241L103.68 35.2016L104.405 34.4769L105.096 35.1685C104.982 34.4952 104.811 33.8411 104.588 33.2111L102.24 30.8624L102.964 30.1377L102.983 30.1559C102.776 29.8712 102.557 29.596 102.326 29.3309L100.068 31.5892L99.3454 30.8667L101.623 28.5888C101.214 28.1917 100.777 27.8235 100.314 27.4875L100.797 27.9702L100.072 28.6949L97.259 25.8817C96.4732 25.6047 95.6498 25.4071 94.7986 25.2988L94.288 25.8094L93.6879 25.2093C93.5486 25.2045 93.4086 25.2021 93.2681 25.2021C92.9327 25.2021 92.6005 25.2158 92.2721 25.2428L95.0083 27.979L94.2836 28.7037L90.9967 25.4168C89.8541 25.6356 88.7692 26.0166 87.7666 26.5347L89.2197 27.9878L88.495 28.7125L86.8459 27.0634C86.5524 27.2497 86.2675 27.4484 85.992 27.6588L86.3254 27.9922L82.702 31.6156L82.6648 31.5783C82.495 31.8976 82.3393 32.2256 82.1984 32.5613L83.4223 33.7852L82.6976 34.5099L81.8109 33.6231C81.6934 33.9995 81.594 34.3839 81.5136 34.7752L81.973 35.2345L81.3416 35.8659ZM83.4245 32.338L84.147 33.0605L84.8717 32.3358L84.1492 31.6134L83.4245 32.338ZM87.0479 28.7147L86.3232 29.4393L87.0457 30.1618L87.7703 29.4371L87.0479 28.7147ZM89.2219 26.5406L89.9444 27.2631L90.669 26.5385L89.9466 25.816L89.2219 26.5406ZM95.7352 25.8072L95.0105 26.5319L95.733 27.2543L96.4576 26.5297L95.7352 25.8072ZM99.3476 29.4196L98.6251 28.6971L97.9004 29.4218L98.6229 30.1443L99.3476 29.4196ZM101.515 31.587L100.79 32.3117L101.513 33.0342L102.237 32.3095L101.515 31.587ZM102.22 43.8867L101.497 43.1642L100.773 43.8889L101.495 44.6114L102.22 43.8867ZM98.5966 47.5101L99.3212 46.7854L98.5987 46.0629L97.8741 46.7876L98.5966 47.5101ZM84.1294 44.6377L84.8541 43.9131L84.1316 43.1906L83.4069 43.9152L84.1294 44.6377ZM83.4157 38.1266L84.1382 38.8491L84.8629 38.1244L84.1404 37.402L83.4157 38.1266ZM81.9708 36.6817L82.6932 37.4042L86.3166 33.7808L85.5941 33.0583L81.9708 36.6817ZM87.0391 34.5033L86.3144 35.2279L87.0369 35.9504L87.7616 35.2258L87.0391 34.5033ZM88.4862 34.5011L89.2109 33.7764L85.5985 30.164L84.8738 30.8887L88.4862 34.5011ZM89.2131 32.3293L89.9356 33.0517L90.6603 32.3271L89.9378 31.6046L89.2131 32.3293ZM87.7682 30.8843L88.4906 31.6068L92.114 27.9834L91.3915 27.2609L87.7682 30.8843ZM92.8365 28.7059L92.1118 29.4306L92.8343 30.153L93.559 29.4284L92.8365 28.7059ZM97.1801 27.2522L93.5568 30.8755L94.2792 31.598L97.9026 27.9746L97.1801 27.2522ZM95.7264 31.5958L95.0017 32.3205L95.7242 33.043L96.4489 32.3183L95.7264 31.5958ZM97.1757 30.1465L96.4511 30.8711L100.063 34.4835L100.788 33.7589L97.1757 30.1465ZM99.3388 35.2082L98.6163 34.4857L97.8916 35.2104L98.6141 35.9329L99.3388 35.2082ZM99.3366 36.6553L100.059 37.3778L103.682 33.7545L102.96 33.032L99.3366 36.6553ZM101.506 37.3756L100.782 38.1003L101.504 38.8228L102.229 38.0981L101.506 37.3756ZM103.674 39.5431L102.951 38.8206L99.3278 42.444L100.05 43.1664L103.674 39.5431ZM98.6053 41.7215L99.33 40.9968L98.6075 40.2743L97.8829 40.999L98.6053 41.7215ZM97.1582 41.7237L96.4335 42.4483L100.046 46.0607L100.771 45.3361L97.1582 41.7237ZM96.4313 43.8955L95.7088 43.173L94.9842 43.8977L95.7066 44.6202L96.4313 43.8955ZM97.8763 45.3405L97.1538 44.618L93.5304 48.2413L94.2529 48.9638L97.8763 45.3405ZM92.8079 47.5189L93.5326 46.7942L92.8101 46.0717L92.0855 46.7964L92.8079 47.5189ZM89.918 44.629L90.6427 43.9043L89.9202 43.1818L89.1956 43.9065L89.918 44.629ZM88.4687 46.0783L89.1934 45.3536L85.581 41.7412L84.8563 42.4659L88.4687 46.0783ZM86.3056 41.0166L87.0281 41.739L87.7528 41.0144L87.0303 40.2919L86.3056 41.0166ZM84.8651 36.6773L88.4775 40.2897L89.2021 39.565L85.5897 35.9526L84.8651 36.6773ZM89.2043 38.1179L89.9268 38.8403L90.6515 38.1157L89.929 37.3932L89.2043 38.1179ZM87.7594 36.6729L88.4819 37.3954L92.1052 33.772L91.3827 33.0495L87.7594 36.6729ZM92.8277 34.4945L92.103 35.2192L92.8255 35.9416L93.5502 35.217L92.8277 34.4945ZM94.2748 34.4923L94.9995 33.7676L91.3871 30.1552L90.6625 30.8799L94.2748 34.4923ZM97.1713 33.0408L93.548 36.6641L94.2705 37.3866L97.8938 33.7632L97.1713 33.0408ZM95.7176 37.3844L94.9929 38.1091L95.7154 38.8316L96.4401 38.1069L95.7176 37.3844ZM97.167 35.9351L96.4423 36.6597L100.055 40.2721L100.779 39.5475L97.167 35.9351ZM97.885 39.5518L97.1626 38.8294L93.5392 42.4527L94.2617 43.1752L97.885 39.5518ZM92.8167 41.7303L93.5414 41.0056L92.8189 40.2831L92.0942 41.0078L92.8167 41.7303ZM91.3696 41.7325L90.6449 42.4571L94.2573 46.0695L94.982 45.3448L91.3696 41.7325ZM88.4731 43.184L92.0964 39.5606L91.374 38.8381L87.7506 42.4615L88.4731 43.184ZM90.6537 36.6685L94.2661 40.2809L94.9907 39.5562L91.3783 35.9438L90.6537 36.6685Z" fill="url(#paint15_linear_1149_10)" fill-opacity="0.5"/>
<g filter="url(#filter3_di_1149_10)">
<circle cx="93.2678" cy="37.2021" r="6.94774" fill="url(#paint16_radial_1149_10)"/>
<circle cx="93.2678" cy="37.2021" r="6.44774" stroke="url(#paint17_linear_1149_10)" stroke-opacity="0.75"/>
</g>
<path d="M104.306 16.9752H22.7854C17.4267 16.9752 14.071 20.5452 14.071 25.9389V30.8848H114.009V26.7413C114.009 21.3476 111.264 16.9752 104.306 16.9752Z" fill="white" fill-opacity="0.15"/>
<path d="M113.509 61.5787V61.598V61.6292V61.6613V61.6943V61.7281V61.7628V61.7983V61.8347V61.872V61.91V61.949V61.9887V62.0293V62.0707V62.1129V62.156V62.1999V62.2445V62.29V62.3363V62.3834V62.4313V62.48V62.5295V62.5798V62.6308V62.6827V62.7353V62.7886V62.8428V62.8977V62.9534V63.0098V63.067V63.1249V63.1836V63.243V63.3032V63.3641V63.4257V63.4881V63.5512V63.615V63.6795V63.7447V63.8106V63.8773V63.9446V64.0127V64.0814V64.1508V64.2209V64.2917V64.3632V64.4354V64.5082V64.5817V64.6558V64.7307V64.8061V64.8823V64.959V65.0365V65.1145V65.1932V65.2726V65.3526V65.4332V65.5144V65.5962V65.6787V65.7617V65.8454V65.9297V66.0146V66.1001V66.1862V66.2728V66.3601V66.4479V66.5364V66.6254V66.7149V66.8051V66.8958V66.987V67.0788V67.1712V67.2641V67.3576V67.4516V67.5461V67.6412V67.7368V67.833V67.9297V68.0268V68.1245V68.2228V68.3215V68.4207V68.5204V68.6207V68.7214V68.8226V68.9243V69.0265V69.1291V69.2323V69.3359V69.44V69.5445V69.6495V69.755V69.8609V69.9672V70.074V70.1813V70.289V70.3971V70.5057V70.6146V70.724V70.8339V70.9441V71.0548V71.1658V71.2773V71.3892V71.5014V71.6141V71.7271V71.8406V71.9544V72.0686V72.1832V72.2981V72.4134V72.5291V72.6452V72.7616V72.8783V72.9954V73.1129V73.2307V73.3488V73.4672V73.586V73.7052V73.8246V73.9444V74.0645V74.1848V74.3055V74.4266V74.5479V74.6695V74.7914V74.9136V75.036V75.1588V75.2818V75.4051V75.5287V75.6526V75.7767V75.9011V76.0257V76.1506V76.2757V76.4011V76.5268V76.6526V76.7787V76.9051V77.0316V77.1584V77.2854V77.4126V77.54V77.6677V77.7955V77.9236V78.0518V78.1802V78.3089V78.4377V78.5667V78.6959V78.8252V78.9547V79.0844V79.2143V79.3443V79.4745V79.6048V79.7353V79.8659V79.9966V80.1275V80.2586V80.3897V80.521V80.6525V80.784V80.9156V81.0474V81.1793V81.3113V81.4433V81.5755V81.7078V81.8402V81.9726V82.1051V82.2377V82.3704V82.5032V82.636V82.7689V82.9018V83.0348V83.1679V83.301V83.4342V83.5674V83.7006V83.8339V83.9672V84.1005V84.2338V84.3672V84.5006V84.634V84.7674V84.9008V85.0342V85.1676V85.3011V85.4344V85.5678V85.7012V85.8345V85.9679V86.1011V86.2344V86.3676V86.5008V86.6339V86.767V86.9001V87.0331V87.166V87.2989V87.4317V87.5644V87.697V87.8296V87.9621V88.0946V88.2269V88.3591V88.4913V88.6233V88.7553V88.8871V89.0188V89.1504V89.2819V89.4133V89.5445V89.6757V89.8067V89.9375V90.0682V90.1988V90.3292V90.4595V90.5896V90.7196V90.8494V90.979V91.1085V91.2377V91.3669V91.4958V91.6245V91.7531V91.8815V92.0096V92.1376V92.2654V92.393V92.5203V92.6474V92.7744V92.9011V93.0276V93.1538V93.2798V93.4056V93.5311V93.6564V93.7815V93.9063V94.0308V94.1551V94.2792V94.4029V94.5264V94.6496V94.7726V94.8952V95.0176V95.1397V95.2615V95.383V95.5042V95.6251V95.7457V95.866V95.986V96.1056V96.2249V96.3439V96.4626V96.581V96.699V96.8166V96.934V97.051V97.1676V97.2839V97.3998V97.5153V97.6305V97.7453V97.8598V97.9738V98.0875V98.2008V98.3138V98.4263V98.5384V98.6501V98.7615V98.8724V98.9829V99.093V99.2027V99.3119V99.4208V99.5292V99.6371V99.7447V99.8518V99.9584V100.065V100.17V100.276V100.381V100.485V100.589V100.692V100.795V100.898V101V101.101V101.202V101.303V101.403V101.502V101.602V101.7V101.798V101.896V101.993V102.089V102.185V102.28V102.375V102.47V102.564V102.657V102.75V102.842V102.933V103.024V103.115V103.205V103.294V103.383V103.471V103.559V103.646V103.732V103.818V103.904V103.988V104.072V104.156V104.239V104.321V104.403V104.484V104.564V104.644V104.723V104.801V104.879V104.956V105.033V105.109V105.184V105.259V105.332V105.406V105.478V105.55V105.621V105.692V105.762V105.831V105.9V105.967V106.035V106.101V106.167V106.232V106.296V106.359V106.422V106.484V106.546V106.606V106.666V106.725V106.784V106.841V106.898V106.955V107.01V107.065V107.119V107.172V107.224V107.276V107.326V107.376V107.425V107.474V107.522V107.568V107.614V107.66V107.704V107.748V107.79V107.832V107.873V107.914V107.953V107.992V108.03V108.066V108.103V108.138V108.172V108.206V108.238V108.27V108.301V108.331V108.36V108.389V108.416V108.443V108.468V108.493V108.517C113.509 110.369 112.662 112.374 111.254 113.919C109.85 115.461 107.929 116.502 105.817 116.502H105.79H105.76H105.73H105.697H105.663H105.628H105.59H105.552H105.511H105.469H105.426H105.381H105.334H105.286H105.236H105.185H105.132H105.077H105.022H104.964H104.905H104.845H104.783H104.72H104.655H104.588H104.521H104.451H104.381H104.308H104.235H104.16H104.083H104.005H103.926H103.845H103.763H103.68H103.595H103.509H103.421H103.332H103.241H103.15H103.057H102.962H102.866H102.769H102.671H102.571H102.47H102.367H102.264H102.159H102.053H101.945H101.836H101.726H101.615H101.502H101.388H101.273H101.157H101.039H100.92H100.8H100.679H100.557H100.433H100.308H100.182H100.055H99.9268H99.7973H99.6666H99.5348H99.4018H99.2677H99.1325H98.9961H98.8586H98.72H98.5803H98.4395H98.2976H98.1546H98.0106H97.8654H97.7192H97.5719H97.4236H97.2742H97.1238H96.9724H96.8199H96.6664H96.5118H96.3563H96.1998H96.0422H95.8837H95.7242H95.5637H95.4023H95.2398H95.0764H94.9121H94.7468H94.5806H94.4135H94.2454H94.0764H93.9064H93.7356H93.5639H93.3913H93.2178H93.0434H92.8681H92.692H92.515H92.3372H92.1585H91.9789H91.7985H91.6173H91.4353H91.2525H91.0688H90.8843H90.6991H90.513H90.3262H90.1386H89.9502H89.761H89.5711H89.3805H89.1891H88.9969H88.804H88.6104H88.4161H88.221H88.0253H87.8288H87.6317H87.4339H87.2353H87.0362H86.8363H86.6358H86.4346H86.2328H86.0303H85.8272H85.6234H85.4191H85.2141H85.0085H84.8023H84.5955H84.3881H84.1802H83.9716H83.7625H83.5528H83.3426H83.1318H82.9204H82.7085H82.4961H82.2832H82.0697H81.8557H81.6412H81.4262H81.2107H80.9948H80.7783H80.5614H80.344H80.1261H79.9078H79.689H79.4698H79.2502H79.0301H78.8096H78.5886H78.3673H78.1456H77.9234H77.7009H77.478H77.2547H77.031H76.807H76.5826H76.3579H76.1328H75.9073H75.6816H75.4555H75.229H75.0023H74.7753H74.5479H74.3203H74.0924H73.8642H73.6357H73.4069H73.1779H72.9487H72.7191H72.4894H72.2594H72.0291H71.7987H71.568H71.3371H71.106H70.8747H70.6432H70.4116H70.1797H69.9477H69.7155H69.4832H69.2507H69.018H68.7852H68.5523H68.3192H68.0861H67.8528H67.6194H67.3859H67.1523H66.9186H66.6848H66.451H66.2171H65.9831H65.7491H65.515H65.2808H65.0467H64.8125H64.5783H64.344H64.1098H63.8755H63.6413H63.407H63.1728H62.9386H62.7044H62.4702H62.2361H62.002H61.768H61.5341H61.3002H61.0663H60.8326H60.5989H60.3654H60.1319H59.8986H59.6653H59.4322H59.1991H58.9663H58.7335H58.5009H58.2685H58.0362H57.804H57.572H57.3403H57.1086H56.8772H56.646H56.415H56.1841H55.9535H55.7231H55.493H55.263H55.0333H54.8039H54.5747H54.3458H54.1171H53.8887H53.6606H53.4327H53.2052H52.978H52.751H52.5244H52.2981H52.0721H51.8464H51.6211H51.3961H51.1714H50.9472H50.7232H50.4997H50.2765H50.0537H49.8313H49.6093H49.3877H49.1665H48.9457H48.7253H48.5054H48.2858H48.0668H47.8481H47.6299H47.4122H47.195H46.9782H46.7619H46.5461H46.3307H46.1159H45.9015H45.6877H45.4744H45.2616H45.0494H44.8377H44.6265H44.4158H44.2058H43.9963H43.7873H43.5789H43.3712H43.164H42.9573H42.7513H42.5459H42.3411H42.137H41.9334H41.7305H41.5282H41.3266H41.1256H40.9253H40.7257H40.5267H40.3284H40.1307H39.9338H39.7376H39.542H39.3472H39.1531H38.9597H38.7671H38.5752H38.384H38.1935H38.0039H37.8149H37.6268H37.4394H37.2528H37.067H36.882H36.6978H36.5144H36.3318H36.15H35.9691H35.789H35.6097H35.4312H35.2537H35.0769H34.9011H34.7261H34.552H34.3787H34.2064H34.0349H33.8644H33.6948H33.526H33.3582H33.1914H33.0254H32.8605H32.6964H32.5333H32.3712H32.21H32.0499H31.8906H31.7324H31.5752H31.419H31.2637H31.1095H30.9563H30.8042H30.653H30.5029H30.3539H30.2059H30.059H29.9131H29.7683H29.6245H29.4819H29.3403H29.1999H29.0605H28.9222H28.7851H28.6491H28.5142H28.3804H28.2478H28.1164H27.9861H27.8569H27.7289H27.6021H27.4765H27.352H27.2288H27.1067H26.9859H26.8662H26.7478H26.6306H26.5147H26.4H26.2865H26.1742H26.0633H25.9536H25.8451H25.738H25.6321H25.5275H25.4242H25.3222H25.2215H25.1222H25.0241H24.9274H24.832H24.738H24.6453H24.5539H24.4639H24.3753H24.2881H24.2022H24.1177H24.0347H23.953H23.8727H23.7938H23.7164H23.6403H23.5657H23.4926H23.4209H23.3506H23.2818H23.2144H23.1486H23.0842H23.0213H22.9598H22.8999H22.8415H22.7845H22.7291H22.6752H22.6229H22.5721H22.5228H22.475H22.4288H22.3842H22.3412H22.2997H22.2598H22.2214H22.1847H22.1496H22.1161H22.0841H22.0538H22.0252H21.9981H21.9727H21.949H21.9268H21.9064C20.397 116.502 18.5547 115.645 17.0743 114.273C15.5967 112.903 14.5745 111.107 14.5745 109.327V109.303V109.28V109.255V109.23V109.205V109.179V109.153V109.126V109.098V109.071V109.042V109.013V108.984V108.954V108.924V108.893V108.862V108.83V108.798V108.765V108.732V108.698V108.664V108.629V108.594V108.559V108.523V108.486V108.449V108.412V108.374V108.336V108.297V108.258V108.218V108.178V108.138V108.097V108.056V108.014V107.972V107.929V107.886V107.842V107.799V107.754V107.709V107.664V107.619V107.573V107.526V107.48V107.432V107.385V107.337V107.288V107.24V107.19V107.141V107.091V107.04V106.99V106.939V106.887V106.835V106.783V106.73V106.677V106.624V106.57V106.516V106.462V106.407V106.352V106.296V106.24V106.184V106.128V106.071V106.013V105.956V105.898V105.839V105.781V105.722V105.663V105.603V105.543V105.483V105.422V105.361V105.3V105.239V105.177V105.115V105.052V104.989V104.926V104.863V104.799V104.735V104.671V104.606V104.541V104.476V104.411V104.345V104.279V104.213V104.146V104.079V104.012V103.945V103.877V103.809V103.741V103.673V103.604V103.535V103.466V103.396V103.326V103.256V103.186V103.116V103.045V102.974V102.903V102.831V102.76V102.688V102.616V102.543V102.471V102.398V102.325V102.252V102.178V102.104V102.031V101.956V101.882V101.808V101.733V101.658V101.583V101.508V101.432V101.356V101.28V101.204V101.128V101.052V100.975V100.898V100.821V100.744V100.667V100.589V100.512V100.434V100.356V100.278V100.199V100.121V100.042V99.9633V99.8843V99.8052V99.726V99.6466V99.5671V99.4874V99.4076V99.3277V99.2476V99.1674V99.0871V99.0066V98.9261V98.8454V98.7645V98.6836V98.6026V98.5214V98.4401V98.3587V98.2772V98.1956V98.1139V98.0321V97.9502V97.8682V97.7861V97.704V97.6217V97.5393V97.4569V97.3744V97.2918V97.2091V97.1263V97.0435V96.9606V96.8776V96.7946V96.7115V96.6283V96.5451V96.4618V96.3784V96.2951V96.2116V96.1281V96.0446V95.961V95.8773V95.7937V95.71V95.6262V95.5424V95.4586V95.3748V95.2909V95.207V95.1231V95.0391V94.9552V94.8712V94.7872V94.7032V94.6192V94.5352V94.4511V94.3671V94.2831V94.1991V94.115V94.031V93.947V93.863V93.779V93.695V93.6111V93.5271V93.4432V93.3593V93.2754V93.1916V93.1078V93.024V92.9402V92.8565V92.7728V92.6892V92.6056V92.5221V92.4386V92.3551V92.2717V92.1884V92.1051V92.0219V91.9387V91.8556V91.7725V91.6896V91.6067V91.5238V91.4411V91.3584V91.2758V91.1932V91.1108V91.0284V90.9462V90.864V90.7819V90.6999V90.618V90.5362V90.4545V90.3729V90.2913V90.21V90.1287V90.0475V89.9664V89.8855V89.8047V89.724V89.6434V89.5629V89.4826V89.4024V89.3223V89.2423V89.1625V89.0829V89.0033V88.9239V88.8447V88.7656V88.6866V88.6078V88.5292V88.4507V88.3724V88.2942V88.2162V88.1383V88.0606V87.9831V87.9058V87.8286V87.7516V87.6748V87.5981V87.5217V87.4454V87.3693V87.2934V87.2177V87.1422V87.0668V86.9917V86.9168V86.842V86.7675V86.6932V86.6191V86.5452V86.4715V86.398V86.3247V86.2517V86.1789V86.1063V86.0339V85.9618V85.8898V85.8182V85.7467V85.6755V85.6045V85.5338V85.4633V85.393V85.323V85.2533V85.1838V85.1145V85.0456V84.9768V84.9084V84.8401V84.7722V84.7045V84.6371V84.57V84.5031V84.4365V84.3702V84.3042V84.2385V84.173V84.1078V84.043V83.9784V83.9141V83.8501V83.7864V83.7229V83.6598V83.597V83.5346V83.4724V83.4105V83.3489V83.2877V83.2268V83.1662V83.1059V83.0459V82.9863V82.927V82.868V82.8094V82.7511V82.6931V82.6355V82.5782V82.5212V82.4646V82.4084V82.3525V82.297V82.2418V82.1869V82.1325V82.0784V82.0246V81.9712V81.9182V81.8656V81.8133V81.7614V81.7099V81.6588V81.608V81.5576V81.5076V81.458V81.4088V81.36V81.3116V81.2636V81.2159V81.1687V81.1219V81.0755V81.0295V80.9839V80.9387V80.8939V80.8495V80.8056V80.7621V80.719V80.6763V80.6341V80.5923V80.5509V80.51V80.4695V80.4294V80.3898V80.3506V80.3118V80.2735V80.2357V80.1983V80.1614V80.1249V80.0889V80.0533V80.0182V79.9836V79.9494V79.9157V79.8825V79.8497V79.8175V79.7857V79.7543V79.7235V79.6931V79.6633V79.6339V79.605V79.5766V79.5487V79.5213V79.4945V79.4681V79.4422V79.4168V79.3919V79.3676V79.3437V79.3347H49.6584C49.7901 79.3347 49.9164 79.2828 50.01 79.1903L67.8222 61.5787H113.509Z" fill="url(#paint18_linear_1149_10)" stroke="#5B5B5B" stroke-linecap="round" stroke-linejoin="round"/>
<path d="M16.8674 83.6163H16.3674V84.1163V108.088C16.3674 111.678 19.2776 114.588 22.8674 114.588H104.895C108.485 114.588 111.395 111.678 111.395 108.088V84.1163V83.6163H110.895H16.8674Z" fill="#EEEEEE" stroke="black"/>
<g filter="url(#filter4_dd_1149_10)">
<line x1="22.7358" y1="114.088" x2="22.7358" y2="90.6382" stroke="black" stroke-opacity="0.75" shape-rendering="crispEdges"/>
</g>
<g filter="url(#filter5_dd_1149_10)">
<line x1="29.8625" y1="114.088" x2="29.8626" y2="87.1518" stroke="black" stroke-opacity="0.75" shape-rendering="crispEdges"/>
</g>
<g filter="url(#filter6_dd_1149_10)">
<line x1="36.6577" y1="114.088" x2="36.6577" y2="84.1163" stroke="black" stroke-opacity="0.75" shape-rendering="crispEdges"/>
</g>
<g filter="url(#filter7_dd_1149_10)">
<line x1="63.5" y1="114.088" x2="63.5" y2="84.1163" stroke="black" stroke-opacity="0.75" shape-rendering="crispEdges"/>
</g>
<g filter="url(#filter8_dd_1149_10)">
<line x1="43.1216" y1="114.088" x2="43.1216" y2="103.833" stroke="black" stroke-opacity="0.75" shape-rendering="crispEdges"/>
</g>
<g filter="url(#filter9_dd_1149_10)">
<line x1="50.0825" y1="114.088" x2="50.0825" y2="100.358" stroke="black" stroke-opacity="0.75" shape-rendering="crispEdges"/>
</g>
<g filter="url(#filter10_dd_1149_10)">
<line x1="56.8777" y1="114.088" x2="56.8777" y2="87.9846" stroke="black" stroke-opacity="0.75" shape-rendering="crispEdges"/>
</g>
<g filter="url(#filter11_ii_1149_10)">
<path d="M19.9519 83.6181H24.2104V103.657C24.2104 104.209 23.7627 104.657 23.2104 104.657H20.9519C20.3996 104.657 19.9519 104.209 19.9519 103.657V83.6181Z" fill="#222222"/>
</g>
<path d="M19.9519 83.6181H24.2104V103.657C24.2104 104.209 23.7627 104.657 23.2104 104.657H20.9519C20.3996 104.657 19.9519 104.209 19.9519 103.657V83.6181Z" stroke="black" stroke-opacity="0.75"/>
<g filter="url(#filter12_ii_1149_10)">
<path d="M28.0674 83.6567H32.3259V103.695C32.3259 104.248 31.8782 104.695 31.3259 104.695H29.0674C28.5151 104.695 28.0674 104.248 28.0674 103.695V83.6567Z" fill="#222222"/>
</g>
<path d="M28.0674 83.6567H32.3259V103.695C32.3259 104.248 31.8782 104.695 31.3259 104.695H29.0674C28.5151 104.695 28.0674 104.248 28.0674 103.695V83.6567Z" stroke="black" stroke-opacity="0.75"/>
<g filter="url(#filter13_ii_1149_10)">
<path d="M40.4961 83.6567H44.7546V103.695C44.7546 104.248 44.3069 104.695 43.7546 104.695H41.4961C40.9438 104.695 40.4961 104.248 40.4961 103.695V83.6567Z" fill="#222222"/>
</g>
<path d="M40.4961 83.6567H44.7546V103.695C44.7546 104.248 44.3069 104.695 43.7546 104.695H41.4961C40.9438 104.695 40.4961 104.248 40.4961 103.695V83.6567Z" stroke="black" stroke-opacity="0.75"/>
<g filter="url(#filter14_ii_1149_10)">
<path d="M47.6116 83.6567H51.8701V103.695C51.8701 104.248 51.4224 104.695 50.8701 104.695H48.6116C48.0593 104.695 47.6116 104.248 47.6116 103.695V83.6567Z" fill="#222222"/>
</g>
<path d="M47.6116 83.6567H51.8701V103.695C51.8701 104.248 51.4224 104.695 50.8701 104.695H48.6116C48.0593 104.695 47.6116 104.248 47.6116 103.695V83.6567Z" stroke="black" stroke-opacity="0.75"/>
<g filter="url(#filter15_ii_1149_10)">
<path d="M55.2485 83.6567H59.5071V103.559C59.5071 104.111 59.0594 104.559 58.5071 104.559H56.2485C55.6963 104.559 55.2485 104.111 55.2485 103.559V83.6567Z" fill="#222222"/>
</g>
<path d="M55.2485 83.6567H59.5071V103.559C59.5071 104.111 59.0594 104.559 58.5071 104.559H56.2485C55.6963 104.559 55.2485 104.111 55.2485 103.559V83.6567Z" stroke="black" stroke-opacity="0.75"/>
<g filter="url(#filter16_dd_1149_10)">
<line x1="70.4683" y1="114.088" x2="70.4683" y2="90.6382" stroke="black" stroke-opacity="0.75" shape-rendering="crispEdges"/>
</g>
<g filter="url(#filter17_dd_1149_10)">
<line x1="77.595" y1="114.088" x2="77.595" y2="87.1518" stroke="black" stroke-opacity="0.75" shape-rendering="crispEdges"/>
</g>
<g filter="url(#filter18_dd_1149_10)">
<line x1="84.3901" y1="114.088" x2="84.3901" y2="84.1163" stroke="black" stroke-opacity="0.75" shape-rendering="crispEdges"/>
</g>
<g filter="url(#filter19_dd_1149_10)">
<line x1="90.854" y1="114.088" x2="90.854" y2="103.833" stroke="black" stroke-opacity="0.75" shape-rendering="crispEdges"/>
</g>
<g filter="url(#filter20_dd_1149_10)">
<line x1="97.8149" y1="114.088" x2="97.8149" y2="100.358" stroke="black" stroke-opacity="0.75" shape-rendering="crispEdges"/>
</g>
<g filter="url(#filter21_dd_1149_10)">
<line x1="104.61" y1="114.088" x2="104.61" y2="87.9846" stroke="black" stroke-opacity="0.75" shape-rendering="crispEdges"/>
</g>
<g filter="url(#filter22_ii_1149_10)">
<path d="M67.6843 83.6181H71.9429V103.657C71.9429 104.209 71.4952 104.657 70.9429 104.657H68.6843C68.132 104.657 67.6843 104.209 67.6843 103.657V83.6181Z" fill="#222222"/>
</g>
<path d="M67.6843 83.6181H71.9429V103.657C71.9429 104.209 71.4952 104.657 70.9429 104.657H68.6843C68.132 104.657 67.6843 104.209 67.6843 103.657V83.6181Z" stroke="black" stroke-opacity="0.75"/>
<g filter="url(#filter23_ii_1149_10)">
<path d="M75.7998 83.6567H80.0583V103.695C80.0583 104.248 79.6106 104.695 79.0583 104.695H76.7998C76.2475 104.695 75.7998 104.248 75.7998 103.695V83.6567Z" fill="#222222"/>
</g>
<path d="M75.7998 83.6567H80.0583V103.695C80.0583 104.248 79.6106 104.695 79.0583 104.695H76.7998C76.2475 104.695 75.7998 104.248 75.7998 103.695V83.6567Z" stroke="black" stroke-opacity="0.75"/>
<g filter="url(#filter24_ii_1149_10)">
<path d="M88.2285 83.6567H92.4871V103.695C92.4871 104.248 92.0393 104.695 91.4871 104.695H89.2285C88.6762 104.695 88.2285 104.248 88.2285 103.695V83.6567Z" fill="#222222"/>
</g>
<path d="M88.2285 83.6567H92.4871V103.695C92.4871 104.248 92.0393 104.695 91.4871 104.695H89.2285C88.6762 104.695 88.2285 104.248 88.2285 103.695V83.6567Z" stroke="black" stroke-opacity="0.75"/>
<g filter="url(#filter25_ii_1149_10)">
<path d="M95.344 83.6567H99.6025V103.695C99.6025 104.248 99.1548 104.695 98.6025 104.695H96.344C95.7917 104.695 95.344 104.248 95.344 103.695V83.6567Z" fill="#222222"/>
</g>
<path d="M95.344 83.6567H99.6025V103.695C99.6025 104.248 99.1548 104.695 98.6025 104.695H96.344C95.7917 104.695 95.344 104.248 95.344 103.695V83.6567Z" stroke="black" stroke-opacity="0.75"/>
<g filter="url(#filter26_ii_1149_10)">
<path d="M102.981 83.5201H107.24V103.559C107.24 104.111 106.792 104.559 106.24 104.559H103.981C103.429 104.559 102.981 104.111 102.981 103.559V83.5201Z" fill="#222222"/>
</g>
<path d="M102.981 83.5201H107.24V103.559C107.24 104.111 106.792 104.559 106.24 104.559H103.981C103.429 104.559 102.981 104.111 102.981 103.559V83.5201Z" stroke="black" stroke-opacity="0.75"/>
<path d="M15.8702 83.5411L111.881 83.541" stroke="black"/>
<g filter="url(#filter27_d_1149_10)">
<path d="M14.5149 78.6469H49.5824L67.6478 61.0787H113.557" stroke="black" stroke-opacity="0.5" stroke-linecap="square" stroke-linejoin="round"/>
</g>
<g filter="url(#filter28_dd_1149_10)">
<circle cx="79.1248" cy="72.7654" r="5.7654" fill="url(#paint19_radial_1149_10)"/>
<circle cx="79.1248" cy="72.7654" r="5.2654" stroke="black" stroke-opacity="0.15"/>
</g>
<line x1="83.0434" y1="70.0875" x2="80.9553" y2="71.4543" stroke="white" stroke-opacity="0.15"/>
<g filter="url(#filter29_dd_1149_10)">
<circle cx="99.0332" cy="72.7654" r="5.7654" fill="url(#paint20_radial_1149_10)"/>
<circle cx="99.0332" cy="72.7654" r="5.2654" stroke="black" stroke-opacity="0.15"/>
</g>
<line x1="102.952" y1="70.0875" x2="100.864" y2="71.4543" stroke="white" stroke-opacity="0.15"/>
<path d="M68 62H113.5" stroke="url(#paint21_linear_1149_10)"/>
<path d="M68 62L50.5 79" stroke="url(#paint22_linear_1149_10)"/>
<g filter="url(#filter30_ii_1149_10)">
<rect x="70" y="97" width="38.5496" height="15" rx="4" fill="#0062BC"/>
</g>
<rect x="70.5" y="97.5" width="37.5496" height="14" rx="3.5" stroke="black" stroke-opacity="0.75"/>
<g filter="url(#filter31_d_1149_10)">
<path d="M81.6212 104.87H79.9996L79.9908 104.189H81.463C81.7062 104.189 81.9186 104.148 82.1002 104.066C82.2818 103.984 82.4225 103.867 82.5221 103.714C82.6246 103.559 82.6759 103.375 82.6759 103.161C82.6759 102.926 82.6305 102.736 82.5396 102.589C82.4518 102.44 82.3155 102.332 82.131 102.264C81.9493 102.194 81.7179 102.159 81.4366 102.159H80.1886V107.863H79.3404V101.464H81.4366C81.7647 101.464 82.0577 101.498 82.3155 101.566C82.5733 101.63 82.7916 101.733 82.9703 101.873C83.152 102.011 83.2896 102.187 83.3834 102.401C83.4771 102.614 83.524 102.871 83.524 103.17C83.524 103.433 83.4566 103.672 83.3219 103.886C83.1871 104.097 82.9996 104.27 82.7594 104.404C82.5221 104.539 82.2438 104.626 81.9244 104.664L81.6212 104.87ZM81.5816 107.863H79.6656L80.1446 107.173H81.5816C81.8512 107.173 82.0797 107.126 82.2672 107.032C82.4576 106.939 82.6026 106.807 82.7022 106.637C82.8019 106.464 82.8517 106.26 82.8517 106.026C82.8517 105.789 82.8092 105.584 82.7242 105.411C82.6393 105.238 82.506 105.105 82.3243 105.011C82.1427 104.917 81.9083 104.87 81.6212 104.87H80.4127L80.4215 104.189H82.0738L82.254 104.435C82.5616 104.462 82.8224 104.549 83.0362 104.699C83.2501 104.845 83.4127 105.033 83.524 105.261C83.6383 105.49 83.6954 105.742 83.6954 106.017C83.6954 106.416 83.6075 106.753 83.4317 107.028C83.2589 107.3 83.0143 107.508 82.6979 107.652C82.3814 107.793 82.0094 107.863 81.5816 107.863ZM89.0128 107.173V107.863H85.6246V107.173H89.0128ZM85.796 101.464V107.863H84.9479V101.464H85.796ZM88.5646 104.215V104.905H85.6246V104.215H88.5646ZM88.9688 101.464V102.159H85.6246V101.464H88.9688ZM92.5152 101.464V107.863H91.6803V101.464H92.5152ZM94.5719 101.464V102.159H89.628V101.464H94.5719ZM97.5382 102.031L95.42 107.863H94.5543L96.9933 101.464H97.5514L97.5382 102.031ZM99.3136 107.863L97.191 102.031L97.1778 101.464H97.7359L100.184 107.863H99.3136ZM99.2037 105.494V106.189H95.609V105.494H99.2037Z" fill="white"/>
</g>
<defs>
<filter id="filter0_d_1149_10" x="20.4691" y="23.6376" width="51.7131" height="51.7132" filterUnits="userSpaceOnUse" color-interpolation-filters="sRGB">
<feFlood flood-opacity="0" result="BackgroundImageFix"/>
<feColorMatrix in="SourceAlpha" type="matrix" values="0 0 0 0 0 0 0 0 0 0 0 0 0 0 0 0 0 0 127 0" result="hardAlpha"/>
<feMorphology radius="1" operator="dilate" in="SourceAlpha" result="effect1_dropShadow_1149_10"/>
<feOffset/>
<feColorMatrix type="matrix" values="0 0 0 0 0 0 0 0 0 0 0 0 0 0 0 0 0 0 0.15 0"/>
<feBlend mode="normal" in2="BackgroundImageFix" result="effect1_dropShadow_1149_10"/>
<feBlend mode="normal" in="SourceGraphic" in2="effect1_dropShadow_1149_10" result="shape"/>
</filter>
<filter id="filter1_di_1149_10" x="38.3781" y="40.5464" width="15.8955" height="16.8955" filterUnits="userSpaceOnUse" color-interpolation-filters="sRGB">
<feFlood flood-opacity="0" result="BackgroundImageFix"/>
<feColorMatrix in="SourceAlpha" type="matrix" values="0 0 0 0 0 0 0 0 0 0 0 0 0 0 0 0 0 0 127 0" result="hardAlpha"/>
<feMorphology radius="1" operator="dilate" in="SourceAlpha" result="effect1_dropShadow_1149_10"/>
<feOffset/>
<feColorMatrix type="matrix" values="0 0 0 0 0 0 0 0 0 0 0 0 0 0 0 0 0 0 0.25 0"/>
<feBlend mode="normal" in2="BackgroundImageFix" result="effect1_dropShadow_1149_10"/>
<feBlend mode="normal" in="SourceGraphic" in2="effect1_dropShadow_1149_10" result="shape"/>
<feColorMatrix in="SourceAlpha" type="matrix" values="0 0 0 0 0 0 0 0 0 0 0 0 0 0 0 0 0 0 127 0" result="hardAlpha"/>
<feMorphology radius="1" operator="erode" in="SourceAlpha" result="effect2_innerShadow_1149_10"/>
<feOffset dy="-2"/>
<feGaussianBlur stdDeviation="2"/>
<feComposite in2="hardAlpha" operator="arithmetic" k2="-1" k3="1"/>
<feColorMatrix type="matrix" values="0 0 0 0 0.882353 0 0 0 0 0.380392 0 0 0 0 0.121569 0 0 0 0.75 0"/>
<feBlend mode="lighten" in2="shape" result="effect2_innerShadow_1149_10"/>
</filter>
<filter id="filter2_d_1149_10" x="79.2678" y="23.2021" width="28" height="28" filterUnits="userSpaceOnUse" color-interpolation-filters="sRGB">
<feFlood flood-opacity="0" result="BackgroundImageFix"/>
<feColorMatrix in="SourceAlpha" type="matrix" values="0 0 0 0 0 0 0 0 0 0 0 0 0 0 0 0 0 0 127 0" result="hardAlpha"/>
<feMorphology radius="1" operator="dilate" in="SourceAlpha" result="effect1_dropShadow_1149_10"/>
<feOffset/>
<feColorMatrix type="matrix" values="0 0 0 0 0 0 0 0 0 0 0 0 0 0 0 0 0 0 0.15 0"/>
<feBlend mode="normal" in2="BackgroundImageFix" result="effect1_dropShadow_1149_10"/>
<feBlend mode="normal" in="SourceGraphic" in2="effect1_dropShadow_1149_10" result="shape"/>
</filter>
<filter id="filter3_di_1149_10" x="85.3201" y="29.2543" width="15.8955" height="15.8955" filterUnits="userSpaceOnUse" color-interpolation-filters="sRGB">
<feFlood flood-opacity="0" result="BackgroundImageFix"/>
<feColorMatrix in="SourceAlpha" type="matrix" values="0 0 0 0 0 0 0 0 0 0 0 0 0 0 0 0 0 0 127 0" result="hardAlpha"/>
<feMorphology radius="1" operator="dilate" in="SourceAlpha" result="effect1_dropShadow_1149_10"/>
<feOffset/>
<feColorMatrix type="matrix" values="0 0 0 0 0 0 0 0 0 0 0 0 0 0 0 0 0 0 0.25 0"/>
<feBlend mode="normal" in2="BackgroundImageFix" result="effect1_dropShadow_1149_10"/>
<feBlend mode="normal" in="SourceGraphic" in2="effect1_dropShadow_1149_10" result="shape"/>
<feColorMatrix in="SourceAlpha" type="matrix" values="0 0 0 0 0 0 0 0 0 0 0 0 0 0 0 0 0 0 127 0" result="hardAlpha"/>
<feMorphology radius="1" operator="erode" in="SourceAlpha" result="effect2_innerShadow_1149_10"/>
<feOffset dy="-1"/>
<feGaussianBlur stdDeviation="2"/>
<feComposite in2="hardAlpha" operator="arithmetic" k2="-1" k3="1"/>
<feColorMatrix type="matrix" values="0 0 0 0 0.882353 0 0 0 0 0.380392 0 0 0 0 0.121569 0 0 0 0.75 0"/>
<feBlend mode="lighten" in2="shape" result="effect2_innerShadow_1149_10"/>
</filter>
<filter id="filter4_dd_1149_10" x="19.2358" y="88.6382" width="5" height="27.4498" filterUnits="userSpaceOnUse" color-interpolation-filters="sRGB">
<feFlood flood-opacity="0" result="BackgroundImageFix"/>
<feColorMatrix in="SourceAlpha" type="matrix" values="0 0 0 0 0 0 0 0 0 0 0 0 0 0 0 0 0 0 127 0" result="hardAlpha"/>
<feOffset dx="1" dy="-1"/>
<feColorMatrix type="matrix" values="0 0 0 0 1 0 0 0 0 1 0 0 0 0 1 0 0 0 1 0"/>
<feBlend mode="normal" in2="BackgroundImageFix" result="effect1_dropShadow_1149_10"/>
<feColorMatrix in="SourceAlpha" type="matrix" values="0 0 0 0 0 0 0 0 0 0 0 0 0 0 0 0 0 0 127 0" result="hardAlpha"/>
<feOffset dx="-1"/>
<feGaussianBlur stdDeviation="1"/>
<feComposite in2="hardAlpha" operator="out"/>
<feColorMatrix type="matrix" values="0 0 0 0 0 0 0 0 0 0 0 0 0 0 0 0 0 0 0.25 0"/>
<feBlend mode="normal" in2="effect1_dropShadow_1149_10" result="effect2_dropShadow_1149_10"/>
<feBlend mode="normal" in="SourceGraphic" in2="effect2_dropShadow_1149_10" result="shape"/>
</filter>
<filter id="filter5_dd_1149_10" x="26.3625" y="85.1519" width="5" height="30.9362" filterUnits="userSpaceOnUse" color-interpolation-filters="sRGB">
<feFlood flood-opacity="0" result="BackgroundImageFix"/>
<feColorMatrix in="SourceAlpha" type="matrix" values="0 0 0 0 0 0 0 0 0 0 0 0 0 0 0 0 0 0 127 0" result="hardAlpha"/>
<feOffset dx="1" dy="-1"/>
<feColorMatrix type="matrix" values="0 0 0 0 1 0 0 0 0 1 0 0 0 0 1 0 0 0 1 0"/>
<feBlend mode="normal" in2="BackgroundImageFix" result="effect1_dropShadow_1149_10"/>
<feColorMatrix in="SourceAlpha" type="matrix" values="0 0 0 0 0 0 0 0 0 0 0 0 0 0 0 0 0 0 127 0" result="hardAlpha"/>
<feOffset dx="-1"/>
<feGaussianBlur stdDeviation="1"/>
<feComposite in2="hardAlpha" operator="out"/>
<feColorMatrix type="matrix" values="0 0 0 0 0 0 0 0 0 0 0 0 0 0 0 0 0 0 0.25 0"/>
<feBlend mode="normal" in2="effect1_dropShadow_1149_10" result="effect2_dropShadow_1149_10"/>
<feBlend mode="normal" in="SourceGraphic" in2="effect2_dropShadow_1149_10" result="shape"/>
</filter>
<filter id="filter6_dd_1149_10" x="33.1577" y="82.1163" width="5" height="33.9717" filterUnits="userSpaceOnUse" color-interpolation-filters="sRGB">
<feFlood flood-opacity="0" result="BackgroundImageFix"/>
<feColorMatrix in="SourceAlpha" type="matrix" values="0 0 0 0 0 0 0 0 0 0 0 0 0 0 0 0 0 0 127 0" result="hardAlpha"/>
<feOffset dx="1"/>
<feColorMatrix type="matrix" values="0 0 0 0 1 0 0 0 0 1 0 0 0 0 1 0 0 0 1 0"/>
<feBlend mode="normal" in2="BackgroundImageFix" result="effect1_dropShadow_1149_10"/>
<feColorMatrix in="SourceAlpha" type="matrix" values="0 0 0 0 0 0 0 0 0 0 0 0 0 0 0 0 0 0 127 0" result="hardAlpha"/>
<feOffset dx="-1"/>
<feGaussianBlur stdDeviation="1"/>
<feComposite in2="hardAlpha" operator="out"/>
<feColorMatrix type="matrix" values="0 0 0 0 0 0 0 0 0 0 0 0 0 0 0 0 0 0 0.25 0"/>
<feBlend mode="normal" in2="effect1_dropShadow_1149_10" result="effect2_dropShadow_1149_10"/>
<feBlend mode="normal" in="SourceGraphic" in2="effect2_dropShadow_1149_10" result="shape"/>
</filter>
<filter id="filter7_dd_1149_10" x="60" y="82.1163" width="5" height="33.9717" filterUnits="userSpaceOnUse" color-interpolation-filters="sRGB">
<feFlood flood-opacity="0" result="BackgroundImageFix"/>
<feColorMatrix in="SourceAlpha" type="matrix" values="0 0 0 0 0 0 0 0 0 0 0 0 0 0 0 0 0 0 127 0" result="hardAlpha"/>
<feOffset dx="1"/>
<feColorMatrix type="matrix" values="0 0 0 0 1 0 0 0 0 1 0 0 0 0 1 0 0 0 1 0"/>
<feBlend mode="normal" in2="BackgroundImageFix" result="effect1_dropShadow_1149_10"/>
<feColorMatrix in="SourceAlpha" type="matrix" values="0 0 0 0 0 0 0 0 0 0 0 0 0 0 0 0 0 0 127 0" result="hardAlpha"/>
<feOffset dx="-1"/>
<feGaussianBlur stdDeviation="1"/>
<feComposite in2="hardAlpha" operator="out"/>
<feColorMatrix type="matrix" values="0 0 0 0 0 0 0 0 0 0 0 0 0 0 0 0 0 0 0.25 0"/>
<feBlend mode="normal" in2="effect1_dropShadow_1149_10" result="effect2_dropShadow_1149_10"/>
<feBlend mode="normal" in="SourceGraphic" in2="effect2_dropShadow_1149_10" result="shape"/>
</filter>
<filter id="filter8_dd_1149_10" x="39.6216" y="101.833" width="5" height="14.2549" filterUnits="userSpaceOnUse" color-interpolation-filters="sRGB">
<feFlood flood-opacity="0" result="BackgroundImageFix"/>
<feColorMatrix in="SourceAlpha" type="matrix" values="0 0 0 0 0 0 0 0 0 0 0 0 0 0 0 0 0 0 127 0" result="hardAlpha"/>
<feOffset dx="1" dy="-1"/>
<feColorMatrix type="matrix" values="0 0 0 0 1 0 0 0 0 1 0 0 0 0 1 0 0 0 1 0"/>
<feBlend mode="normal" in2="BackgroundImageFix" result="effect1_dropShadow_1149_10"/>
<feColorMatrix in="SourceAlpha" type="matrix" values="0 0 0 0 0 0 0 0 0 0 0 0 0 0 0 0 0 0 127 0" result="hardAlpha"/>
<feOffset dx="-1"/>
<feGaussianBlur stdDeviation="1"/>
<feComposite in2="hardAlpha" operator="out"/>
<feColorMatrix type="matrix" values="0 0 0 0 0 0 0 0 0 0 0 0 0 0 0 0 0 0 0.25 0"/>
<feBlend mode="normal" in2="effect1_dropShadow_1149_10" result="effect2_dropShadow_1149_10"/>
<feBlend mode="normal" in="SourceGraphic" in2="effect2_dropShadow_1149_10" result="shape"/>
</filter>
<filter id="filter9_dd_1149_10" x="46.5825" y="98.3583" width="5" height="17.7297" filterUnits="userSpaceOnUse" color-interpolation-filters="sRGB">
<feFlood flood-opacity="0" result="BackgroundImageFix"/>
<feColorMatrix in="SourceAlpha" type="matrix" values="0 0 0 0 0 0 0 0 0 0 0 0 0 0 0 0 0 0 127 0" result="hardAlpha"/>
<feOffset dx="1" dy="-1"/>
<feColorMatrix type="matrix" values="0 0 0 0 1 0 0 0 0 1 0 0 0 0 1 0 0 0 1 0"/>
<feBlend mode="normal" in2="BackgroundImageFix" result="effect1_dropShadow_1149_10"/>
<feColorMatrix in="SourceAlpha" type="matrix" values="0 0 0 0 0 0 0 0 0 0 0 0 0 0 0 0 0 0 127 0" result="hardAlpha"/>
<feOffset dx="-1"/>
<feGaussianBlur stdDeviation="1"/>
<feComposite in2="hardAlpha" operator="out"/>
<feColorMatrix type="matrix" values="0 0 0 0 0 0 0 0 0 0 0 0 0 0 0 0 0 0 0.25 0"/>
<feBlend mode="normal" in2="effect1_dropShadow_1149_10" result="effect2_dropShadow_1149_10"/>
<feBlend mode="normal" in="SourceGraphic" in2="effect2_dropShadow_1149_10" result="shape"/>
</filter>
<filter id="filter10_dd_1149_10" x="53.3777" y="85.9846" width="5" height="30.1034" filterUnits="userSpaceOnUse" color-interpolation-filters="sRGB">
<feFlood flood-opacity="0" result="BackgroundImageFix"/>
<feColorMatrix in="SourceAlpha" type="matrix" values="0 0 0 0 0 0 0 0 0 0 0 0 0 0 0 0 0 0 127 0" result="hardAlpha"/>
<feOffset dx="1" dy="-1"/>
<feColorMatrix type="matrix" values="0 0 0 0 1 0 0 0 0 1 0 0 0 0 1 0 0 0 1 0"/>
<feBlend mode="normal" in2="BackgroundImageFix" result="effect1_dropShadow_1149_10"/>
<feColorMatrix in="SourceAlpha" type="matrix" values="0 0 0 0 0 0 0 0 0 0 0 0 0 0 0 0 0 0 127 0" result="hardAlpha"/>
<feOffset dx="-1"/>
<feGaussianBlur stdDeviation="1"/>
<feComposite in2="hardAlpha" operator="out"/>
<feColorMatrix type="matrix" values="0 0 0 0 0 0 0 0 0 0 0 0 0 0 0 0 0 0 0.25 0"/>
<feBlend mode="normal" in2="effect1_dropShadow_1149_10" result="effect2_dropShadow_1149_10"/>
<feBlend mode="normal" in="SourceGraphic" in2="effect2_dropShadow_1149_10" result="shape"/>
</filter>
<filter id="filter11_ii_1149_10" x="19.4519" y="81.1181" width="5.25854" height="24.0388" filterUnits="userSpaceOnUse" color-interpolation-filters="sRGB">
<feFlood flood-opacity="0" result="BackgroundImageFix"/>
<feBlend mode="normal" in="SourceGraphic" in2="BackgroundImageFix" result="shape"/>
<feColorMatrix in="SourceAlpha" type="matrix" values="0 0 0 0 0 0 0 0 0 0 0 0 0 0 0 0 0 0 127 0" result="hardAlpha"/>
<feOffset dy="-4"/>
<feGaussianBlur stdDeviation="0.5"/>
<feComposite in2="hardAlpha" operator="arithmetic" k2="-1" k3="1"/>
<feColorMatrix type="matrix" values="0 0 0 0 1 0 0 0 0 1 0 0 0 0 1 0 0 0 0.25 0"/>
<feBlend mode="normal" in2="shape" result="effect1_innerShadow_1149_10"/>
<feColorMatrix in="SourceAlpha" type="matrix" values="0 0 0 0 0 0 0 0 0 0 0 0 0 0 0 0 0 0 127 0" result="hardAlpha"/>
<feMorphology radius="1" operator="erode" in="SourceAlpha" result="effect2_innerShadow_1149_10"/>
<feOffset dy="-2"/>
<feGaussianBlur stdDeviation="0.5"/>
<feComposite in2="hardAlpha" operator="arithmetic" k2="-1" k3="1"/>
<feColorMatrix type="matrix" values="0 0 0 0 1 0 0 0 0 1 0 0 0 0 1 0 0 0 0.5 0"/>
<feBlend mode="normal" in2="effect1_innerShadow_1149_10" result="effect2_innerShadow_1149_10"/>
</filter>
<filter id="filter12_ii_1149_10" x="27.5674" y="81.1567" width="5.25854" height="24.0388" filterUnits="userSpaceOnUse" color-interpolation-filters="sRGB">
<feFlood flood-opacity="0" result="BackgroundImageFix"/>
<feBlend mode="normal" in="SourceGraphic" in2="BackgroundImageFix" result="shape"/>
<feColorMatrix in="SourceAlpha" type="matrix" values="0 0 0 0 0 0 0 0 0 0 0 0 0 0 0 0 0 0 127 0" result="hardAlpha"/>
<feOffset dy="-4"/>
<feGaussianBlur stdDeviation="0.5"/>
<feComposite in2="hardAlpha" operator="arithmetic" k2="-1" k3="1"/>
<feColorMatrix type="matrix" values="0 0 0 0 1 0 0 0 0 1 0 0 0 0 1 0 0 0 0.25 0"/>
<feBlend mode="normal" in2="shape" result="effect1_innerShadow_1149_10"/>
<feColorMatrix in="SourceAlpha" type="matrix" values="0 0 0 0 0 0 0 0 0 0 0 0 0 0 0 0 0 0 127 0" result="hardAlpha"/>
<feMorphology radius="1" operator="erode" in="SourceAlpha" result="effect2_innerShadow_1149_10"/>
<feOffset dy="-2"/>
<feGaussianBlur stdDeviation="0.5"/>
<feComposite in2="hardAlpha" operator="arithmetic" k2="-1" k3="1"/>
<feColorMatrix type="matrix" values="0 0 0 0 1 0 0 0 0 1 0 0 0 0 1 0 0 0 0.5 0"/>
<feBlend mode="normal" in2="effect1_innerShadow_1149_10" result="effect2_innerShadow_1149_10"/>
</filter>
<filter id="filter13_ii_1149_10" x="39.9961" y="81.1567" width="5.25854" height="24.0388" filterUnits="userSpaceOnUse" color-interpolation-filters="sRGB">
<feFlood flood-opacity="0" result="BackgroundImageFix"/>
<feBlend mode="normal" in="SourceGraphic" in2="BackgroundImageFix" result="shape"/>
<feColorMatrix in="SourceAlpha" type="matrix" values="0 0 0 0 0 0 0 0 0 0 0 0 0 0 0 0 0 0 127 0" result="hardAlpha"/>
<feOffset dy="-4"/>
<feGaussianBlur stdDeviation="0.5"/>
<feComposite in2="hardAlpha" operator="arithmetic" k2="-1" k3="1"/>
<feColorMatrix type="matrix" values="0 0 0 0 1 0 0 0 0 1 0 0 0 0 1 0 0 0 0.25 0"/>
<feBlend mode="normal" in2="shape" result="effect1_innerShadow_1149_10"/>
<feColorMatrix in="SourceAlpha" type="matrix" values="0 0 0 0 0 0 0 0 0 0 0 0 0 0 0 0 0 0 127 0" result="hardAlpha"/>
<feMorphology radius="1" operator="erode" in="SourceAlpha" result="effect2_innerShadow_1149_10"/>
<feOffset dy="-2"/>
<feGaussianBlur stdDeviation="0.5"/>
<feComposite in2="hardAlpha" operator="arithmetic" k2="-1" k3="1"/>
<feColorMatrix type="matrix" values="0 0 0 0 1 0 0 0 0 1 0 0 0 0 1 0 0 0 0.5 0"/>
<feBlend mode="normal" in2="effect1_innerShadow_1149_10" result="effect2_innerShadow_1149_10"/>
</filter>
<filter id="filter14_ii_1149_10" x="47.1116" y="81.1567" width="5.25854" height="24.0388" filterUnits="userSpaceOnUse" color-interpolation-filters="sRGB">
<feFlood flood-opacity="0" result="BackgroundImageFix"/>
<feBlend mode="normal" in="SourceGraphic" in2="BackgroundImageFix" result="shape"/>
<feColorMatrix in="SourceAlpha" type="matrix" values="0 0 0 0 0 0 0 0 0 0 0 0 0 0 0 0 0 0 127 0" result="hardAlpha"/>
<feOffset dy="-4"/>
<feGaussianBlur stdDeviation="0.5"/>
<feComposite in2="hardAlpha" operator="arithmetic" k2="-1" k3="1"/>
<feColorMatrix type="matrix" values="0 0 0 0 1 0 0 0 0 1 0 0 0 0 1 0 0 0 0.25 0"/>
<feBlend mode="normal" in2="shape" result="effect1_innerShadow_1149_10"/>
<feColorMatrix in="SourceAlpha" type="matrix" values="0 0 0 0 0 0 0 0 0 0 0 0 0 0 0 0 0 0 127 0" result="hardAlpha"/>
<feMorphology radius="1" operator="erode" in="SourceAlpha" result="effect2_innerShadow_1149_10"/>
<feOffset dy="-2"/>
<feGaussianBlur stdDeviation="0.5"/>
<feComposite in2="hardAlpha" operator="arithmetic" k2="-1" k3="1"/>
<feColorMatrix type="matrix" values="0 0 0 0 1 0 0 0 0 1 0 0 0 0 1 0 0 0 0.5 0"/>
<feBlend mode="normal" in2="effect1_innerShadow_1149_10" result="effect2_innerShadow_1149_10"/>
</filter>
<filter id="filter15_ii_1149_10" x="54.7485" y="81.1567" width="5.25854" height="23.9022" filterUnits="userSpaceOnUse" color-interpolation-filters="sRGB">
<feFlood flood-opacity="0" result="BackgroundImageFix"/>
<feBlend mode="normal" in="SourceGraphic" in2="BackgroundImageFix" result="shape"/>
<feColorMatrix in="SourceAlpha" type="matrix" values="0 0 0 0 0 0 0 0 0 0 0 0 0 0 0 0 0 0 127 0" result="hardAlpha"/>
<feOffset dy="-4"/>
<feGaussianBlur stdDeviation="0.5"/>
<feComposite in2="hardAlpha" operator="arithmetic" k2="-1" k3="1"/>
<feColorMatrix type="matrix" values="0 0 0 0 1 0 0 0 0 1 0 0 0 0 1 0 0 0 0.25 0"/>
<feBlend mode="normal" in2="shape" result="effect1_innerShadow_1149_10"/>
<feColorMatrix in="SourceAlpha" type="matrix" values="0 0 0 0 0 0 0 0 0 0 0 0 0 0 0 0 0 0 127 0" result="hardAlpha"/>
<feMorphology radius="1" operator="erode" in="SourceAlpha" result="effect2_innerShadow_1149_10"/>
<feOffset dy="-2"/>
<feGaussianBlur stdDeviation="0.5"/>
<feComposite in2="hardAlpha" operator="arithmetic" k2="-1" k3="1"/>
<feColorMatrix type="matrix" values="0 0 0 0 1 0 0 0 0 1 0 0 0 0 1 0 0 0 0.5 0"/>
<feBlend mode="normal" in2="effect1_innerShadow_1149_10" result="effect2_innerShadow_1149_10"/>
</filter>
<filter id="filter16_dd_1149_10" x="66.9683" y="88.6382" width="5" height="27.4498" filterUnits="userSpaceOnUse" color-interpolation-filters="sRGB">
<feFlood flood-opacity="0" result="BackgroundImageFix"/>
<feColorMatrix in="SourceAlpha" type="matrix" values="0 0 0 0 0 0 0 0 0 0 0 0 0 0 0 0 0 0 127 0" result="hardAlpha"/>
<feOffset dx="1" dy="-1"/>
<feColorMatrix type="matrix" values="0 0 0 0 1 0 0 0 0 1 0 0 0 0 1 0 0 0 1 0"/>
<feBlend mode="normal" in2="BackgroundImageFix" result="effect1_dropShadow_1149_10"/>
<feColorMatrix in="SourceAlpha" type="matrix" values="0 0 0 0 0 0 0 0 0 0 0 0 0 0 0 0 0 0 127 0" result="hardAlpha"/>
<feOffset dx="-1"/>
<feGaussianBlur stdDeviation="1"/>
<feComposite in2="hardAlpha" operator="out"/>
<feColorMatrix type="matrix" values="0 0 0 0 0 0 0 0 0 0 0 0 0 0 0 0 0 0 0.25 0"/>
<feBlend mode="normal" in2="effect1_dropShadow_1149_10" result="effect2_dropShadow_1149_10"/>
<feBlend mode="normal" in="SourceGraphic" in2="effect2_dropShadow_1149_10" result="shape"/>
</filter>
<filter id="filter17_dd_1149_10" x="74.095" y="85.1519" width="5" height="30.9362" filterUnits="userSpaceOnUse" color-interpolation-filters="sRGB">
<feFlood flood-opacity="0" result="BackgroundImageFix"/>
<feColorMatrix in="SourceAlpha" type="matrix" values="0 0 0 0 0 0 0 0 0 0 0 0 0 0 0 0 0 0 127 0" result="hardAlpha"/>
<feOffset dx="1" dy="-1"/>
<feColorMatrix type="matrix" values="0 0 0 0 1 0 0 0 0 1 0 0 0 0 1 0 0 0 1 0"/>
<feBlend mode="normal" in2="BackgroundImageFix" result="effect1_dropShadow_1149_10"/>
<feColorMatrix in="SourceAlpha" type="matrix" values="0 0 0 0 0 0 0 0 0 0 0 0 0 0 0 0 0 0 127 0" result="hardAlpha"/>
<feOffset dx="-1"/>
<feGaussianBlur stdDeviation="1"/>
<feComposite in2="hardAlpha" operator="out"/>
<feColorMatrix type="matrix" values="0 0 0 0 0 0 0 0 0 0 0 0 0 0 0 0 0 0 0.25 0"/>
<feBlend mode="normal" in2="effect1_dropShadow_1149_10" result="effect2_dropShadow_1149_10"/>
<feBlend mode="normal" in="SourceGraphic" in2="effect2_dropShadow_1149_10" result="shape"/>
</filter>
<filter id="filter18_dd_1149_10" x="80.8901" y="82.1163" width="5" height="33.9717" filterUnits="userSpaceOnUse" color-interpolation-filters="sRGB">
<feFlood flood-opacity="0" result="BackgroundImageFix"/>
<feColorMatrix in="SourceAlpha" type="matrix" values="0 0 0 0 0 0 0 0 0 0 0 0 0 0 0 0 0 0 127 0" result="hardAlpha"/>
<feOffset dx="1"/>
<feColorMatrix type="matrix" values="0 0 0 0 1 0 0 0 0 1 0 0 0 0 1 0 0 0 1 0"/>
<feBlend mode="normal" in2="BackgroundImageFix" result="effect1_dropShadow_1149_10"/>
<feColorMatrix in="SourceAlpha" type="matrix" values="0 0 0 0 0 0 0 0 0 0 0 0 0 0 0 0 0 0 127 0" result="hardAlpha"/>
<feOffset dx="-1"/>
<feGaussianBlur stdDeviation="1"/>
<feComposite in2="hardAlpha" operator="out"/>
<feColorMatrix type="matrix" values="0 0 0 0 0 0 0 0 0 0 0 0 0 0 0 0 0 0 0.25 0"/>
<feBlend mode="normal" in2="effect1_dropShadow_1149_10" result="effect2_dropShadow_1149_10"/>
<feBlend mode="normal" in="SourceGraphic" in2="effect2_dropShadow_1149_10" result="shape"/>
</filter>
<filter id="filter19_dd_1149_10" x="87.354" y="101.833" width="5" height="14.2549" filterUnits="userSpaceOnUse" color-interpolation-filters="sRGB">
<feFlood flood-opacity="0" result="BackgroundImageFix"/>
<feColorMatrix in="SourceAlpha" type="matrix" values="0 0 0 0 0 0 0 0 0 0 0 0 0 0 0 0 0 0 127 0" result="hardAlpha"/>
<feOffset dx="1" dy="-1"/>
<feColorMatrix type="matrix" values="0 0 0 0 1 0 0 0 0 1 0 0 0 0 1 0 0 0 1 0"/>
<feBlend mode="normal" in2="BackgroundImageFix" result="effect1_dropShadow_1149_10"/>
<feColorMatrix in="SourceAlpha" type="matrix" values="0 0 0 0 0 0 0 0 0 0 0 0 0 0 0 0 0 0 127 0" result="hardAlpha"/>
<feOffset dx="-1"/>
<feGaussianBlur stdDeviation="1"/>
<feComposite in2="hardAlpha" operator="out"/>
<feColorMatrix type="matrix" values="0 0 0 0 0 0 0 0 0 0 0 0 0 0 0 0 0 0 0.25 0"/>
<feBlend mode="normal" in2="effect1_dropShadow_1149_10" result="effect2_dropShadow_1149_10"/>
<feBlend mode="normal" in="SourceGraphic" in2="effect2_dropShadow_1149_10" result="shape"/>
</filter>
<filter id="filter20_dd_1149_10" x="94.3149" y="98.3583" width="5" height="17.7297" filterUnits="userSpaceOnUse" color-interpolation-filters="sRGB">
<feFlood flood-opacity="0" result="BackgroundImageFix"/>
<feColorMatrix in="SourceAlpha" type="matrix" values="0 0 0 0 0 0 0 0 0 0 0 0 0 0 0 0 0 0 127 0" result="hardAlpha"/>
<feOffset dx="1" dy="-1"/>
<feColorMatrix type="matrix" values="0 0 0 0 1 0 0 0 0 1 0 0 0 0 1 0 0 0 1 0"/>
<feBlend mode="normal" in2="BackgroundImageFix" result="effect1_dropShadow_1149_10"/>
<feColorMatrix in="SourceAlpha" type="matrix" values="0 0 0 0 0 0 0 0 0 0 0 0 0 0 0 0 0 0 127 0" result="hardAlpha"/>
<feOffset dx="-1"/>
<feGaussianBlur stdDeviation="1"/>
<feComposite in2="hardAlpha" operator="out"/>
<feColorMatrix type="matrix" values="0 0 0 0 0 0 0 0 0 0 0 0 0 0 0 0 0 0 0.25 0"/>
<feBlend mode="normal" in2="effect1_dropShadow_1149_10" result="effect2_dropShadow_1149_10"/>
<feBlend mode="normal" in="SourceGraphic" in2="effect2_dropShadow_1149_10" result="shape"/>
</filter>
<filter id="filter21_dd_1149_10" x="101.11" y="85.9846" width="5" height="30.1034" filterUnits="userSpaceOnUse" color-interpolation-filters="sRGB">
<feFlood flood-opacity="0" result="BackgroundImageFix"/>
<feColorMatrix in="SourceAlpha" type="matrix" values="0 0 0 0 0 0 0 0 0 0 0 0 0 0 0 0 0 0 127 0" result="hardAlpha"/>
<feOffset dx="1" dy="-1"/>
<feColorMatrix type="matrix" values="0 0 0 0 1 0 0 0 0 1 0 0 0 0 1 0 0 0 1 0"/>
<feBlend mode="normal" in2="BackgroundImageFix" result="effect1_dropShadow_1149_10"/>
<feColorMatrix in="SourceAlpha" type="matrix" values="0 0 0 0 0 0 0 0 0 0 0 0 0 0 0 0 0 0 127 0" result="hardAlpha"/>
<feOffset dx="-1"/>
<feGaussianBlur stdDeviation="1"/>
<feComposite in2="hardAlpha" operator="out"/>
<feColorMatrix type="matrix" values="0 0 0 0 0 0 0 0 0 0 0 0 0 0 0 0 0 0 0.25 0"/>
<feBlend mode="normal" in2="effect1_dropShadow_1149_10" result="effect2_dropShadow_1149_10"/>
<feBlend mode="normal" in="SourceGraphic" in2="effect2_dropShadow_1149_10" result="shape"/>
</filter>
<filter id="filter22_ii_1149_10" x="67.1843" y="81.1181" width="5.25854" height="24.0388" filterUnits="userSpaceOnUse" color-interpolation-filters="sRGB">
<feFlood flood-opacity="0" result="BackgroundImageFix"/>
<feBlend mode="normal" in="SourceGraphic" in2="BackgroundImageFix" result="shape"/>
<feColorMatrix in="SourceAlpha" type="matrix" values="0 0 0 0 0 0 0 0 0 0 0 0 0 0 0 0 0 0 127 0" result="hardAlpha"/>
<feOffset dy="-4"/>
<feGaussianBlur stdDeviation="0.5"/>
<feComposite in2="hardAlpha" operator="arithmetic" k2="-1" k3="1"/>
<feColorMatrix type="matrix" values="0 0 0 0 1 0 0 0 0 1 0 0 0 0 1 0 0 0 0.25 0"/>
<feBlend mode="normal" in2="shape" result="effect1_innerShadow_1149_10"/>
<feColorMatrix in="SourceAlpha" type="matrix" values="0 0 0 0 0 0 0 0 0 0 0 0 0 0 0 0 0 0 127 0" result="hardAlpha"/>
<feMorphology radius="1" operator="erode" in="SourceAlpha" result="effect2_innerShadow_1149_10"/>
<feOffset dy="-2"/>
<feGaussianBlur stdDeviation="0.5"/>
<feComposite in2="hardAlpha" operator="arithmetic" k2="-1" k3="1"/>
<feColorMatrix type="matrix" values="0 0 0 0 1 0 0 0 0 1 0 0 0 0 1 0 0 0 0.5 0"/>
<feBlend mode="normal" in2="effect1_innerShadow_1149_10" result="effect2_innerShadow_1149_10"/>
</filter>
<filter id="filter23_ii_1149_10" x="75.2998" y="81.1567" width="5.25854" height="24.0388" filterUnits="userSpaceOnUse" color-interpolation-filters="sRGB">
<feFlood flood-opacity="0" result="BackgroundImageFix"/>
<feBlend mode="normal" in="SourceGraphic" in2="BackgroundImageFix" result="shape"/>
<feColorMatrix in="SourceAlpha" type="matrix" values="0 0 0 0 0 0 0 0 0 0 0 0 0 0 0 0 0 0 127 0" result="hardAlpha"/>
<feOffset dy="-4"/>
<feGaussianBlur stdDeviation="0.5"/>
<feComposite in2="hardAlpha" operator="arithmetic" k2="-1" k3="1"/>
<feColorMatrix type="matrix" values="0 0 0 0 1 0 0 0 0 1 0 0 0 0 1 0 0 0 0.25 0"/>
<feBlend mode="normal" in2="shape" result="effect1_innerShadow_1149_10"/>
<feColorMatrix in="SourceAlpha" type="matrix" values="0 0 0 0 0 0 0 0 0 0 0 0 0 0 0 0 0 0 127 0" result="hardAlpha"/>
<feMorphology radius="1" operator="erode" in="SourceAlpha" result="effect2_innerShadow_1149_10"/>
<feOffset dy="-2"/>
<feGaussianBlur stdDeviation="0.5"/>
<feComposite in2="hardAlpha" operator="arithmetic" k2="-1" k3="1"/>
<feColorMatrix type="matrix" values="0 0 0 0 1 0 0 0 0 1 0 0 0 0 1 0 0 0 0.5 0"/>
<feBlend mode="normal" in2="effect1_innerShadow_1149_10" result="effect2_innerShadow_1149_10"/>
</filter>
<filter id="filter24_ii_1149_10" x="87.7285" y="81.1567" width="5.25854" height="24.0388" filterUnits="userSpaceOnUse" color-interpolation-filters="sRGB">
<feFlood flood-opacity="0" result="BackgroundImageFix"/>
<feBlend mode="normal" in="SourceGraphic" in2="BackgroundImageFix" result="shape"/>
<feColorMatrix in="SourceAlpha" type="matrix" values="0 0 0 0 0 0 0 0 0 0 0 0 0 0 0 0 0 0 127 0" result="hardAlpha"/>
<feOffset dy="-4"/>
<feGaussianBlur stdDeviation="0.5"/>
<feComposite in2="hardAlpha" operator="arithmetic" k2="-1" k3="1"/>
<feColorMatrix type="matrix" values="0 0 0 0 1 0 0 0 0 1 0 0 0 0 1 0 0 0 0.25 0"/>
<feBlend mode="normal" in2="shape" result="effect1_innerShadow_1149_10"/>
<feColorMatrix in="SourceAlpha" type="matrix" values="0 0 0 0 0 0 0 0 0 0 0 0 0 0 0 0 0 0 127 0" result="hardAlpha"/>
<feMorphology radius="1" operator="erode" in="SourceAlpha" result="effect2_innerShadow_1149_10"/>
<feOffset dy="-2"/>
<feGaussianBlur stdDeviation="0.5"/>
<feComposite in2="hardAlpha" operator="arithmetic" k2="-1" k3="1"/>
<feColorMatrix type="matrix" values="0 0 0 0 1 0 0 0 0 1 0 0 0 0 1 0 0 0 0.5 0"/>
<feBlend mode="normal" in2="effect1_innerShadow_1149_10" result="effect2_innerShadow_1149_10"/>
</filter>
<filter id="filter25_ii_1149_10" x="94.844" y="81.1567" width="5.25854" height="24.0388" filterUnits="userSpaceOnUse" color-interpolation-filters="sRGB">
<feFlood flood-opacity="0" result="BackgroundImageFix"/>
<feBlend mode="normal" in="SourceGraphic" in2="BackgroundImageFix" result="shape"/>
<feColorMatrix in="SourceAlpha" type="matrix" values="0 0 0 0 0 0 0 0 0 0 0 0 0 0 0 0 0 0 127 0" result="hardAlpha"/>
<feOffset dy="-4"/>
<feGaussianBlur stdDeviation="0.5"/>
<feComposite in2="hardAlpha" operator="arithmetic" k2="-1" k3="1"/>
<feColorMatrix type="matrix" values="0 0 0 0 1 0 0 0 0 1 0 0 0 0 1 0 0 0 0.25 0"/>
<feBlend mode="normal" in2="shape" result="effect1_innerShadow_1149_10"/>
<feColorMatrix in="SourceAlpha" type="matrix" values="0 0 0 0 0 0 0 0 0 0 0 0 0 0 0 0 0 0 127 0" result="hardAlpha"/>
<feMorphology radius="1" operator="erode" in="SourceAlpha" result="effect2_innerShadow_1149_10"/>
<feOffset dy="-2"/>
<feGaussianBlur stdDeviation="0.5"/>
<feComposite in2="hardAlpha" operator="arithmetic" k2="-1" k3="1"/>
<feColorMatrix type="matrix" values="0 0 0 0 1 0 0 0 0 1 0 0 0 0 1 0 0 0 0.5 0"/>
<feBlend mode="normal" in2="effect1_innerShadow_1149_10" result="effect2_innerShadow_1149_10"/>
</filter>
<filter id="filter26_ii_1149_10" x="102.481" y="81.0201" width="5.25854" height="24.0388" filterUnits="userSpaceOnUse" color-interpolation-filters="sRGB">
<feFlood flood-opacity="0" result="BackgroundImageFix"/>
<feBlend mode="normal" in="SourceGraphic" in2="BackgroundImageFix" result="shape"/>
<feColorMatrix in="SourceAlpha" type="matrix" values="0 0 0 0 0 0 0 0 0 0 0 0 0 0 0 0 0 0 127 0" result="hardAlpha"/>
<feOffset dy="-4"/>
<feGaussianBlur stdDeviation="0.5"/>
<feComposite in2="hardAlpha" operator="arithmetic" k2="-1" k3="1"/>
<feColorMatrix type="matrix" values="0 0 0 0 1 0 0 0 0 1 0 0 0 0 1 0 0 0 0.25 0"/>
<feBlend mode="normal" in2="shape" result="effect1_innerShadow_1149_10"/>
<feColorMatrix in="SourceAlpha" type="matrix" values="0 0 0 0 0 0 0 0 0 0 0 0 0 0 0 0 0 0 127 0" result="hardAlpha"/>
<feMorphology radius="1" operator="erode" in="SourceAlpha" result="effect2_innerShadow_1149_10"/>
<feOffset dy="-2"/>
<feGaussianBlur stdDeviation="0.5"/>
<feComposite in2="hardAlpha" operator="arithmetic" k2="-1" k3="1"/>
<feColorMatrix type="matrix" values="0 0 0 0 1 0 0 0 0 1 0 0 0 0 1 0 0 0 0.5 0"/>
<feBlend mode="normal" in2="effect1_innerShadow_1149_10" result="effect2_innerShadow_1149_10"/>
</filter>
<filter id="filter27_d_1149_10" x="14.0149" y="60.5787" width="100.042" height="19.5682" filterUnits="userSpaceOnUse" color-interpolation-filters="sRGB">
<feFlood flood-opacity="0" result="BackgroundImageFix"/>
<feColorMatrix in="SourceAlpha" type="matrix" values="0 0 0 0 0 0 0 0 0 0 0 0 0 0 0 0 0 0 127 0" result="hardAlpha"/>
<feOffset dy="1"/>
<feColorMatrix type="matrix" values="0 0 0 0 0.443137 0 0 0 0 0.439216 0 0 0 0 0.439216 0 0 0 1 0"/>
<feBlend mode="normal" in2="BackgroundImageFix" result="effect1_dropShadow_1149_10"/>
<feBlend mode="normal" in="SourceGraphic" in2="effect1_dropShadow_1149_10" result="shape"/>
</filter>
<filter id="filter28_dd_1149_10" x="69.3594" y="63" width="19.5308" height="21.5308" filterUnits="userSpaceOnUse" color-interpolation-filters="sRGB">
<feFlood flood-opacity="0" result="BackgroundImageFix"/>
<feColorMatrix in="SourceAlpha" type="matrix" values="0 0 0 0 0 0 0 0 0 0 0 0 0 0 0 0 0 0 127 0" result="hardAlpha"/>
<feOffset dy="2"/>
<feGaussianBlur stdDeviation="2"/>
<feColorMatrix type="matrix" values="0 0 0 0 0 0 0 0 0 0 0 0 0 0 0 0 0 0 0.75 0"/>
<feBlend mode="normal" in2="BackgroundImageFix" result="effect1_dropShadow_1149_10"/>
<feColorMatrix in="SourceAlpha" type="matrix" values="0 0 0 0 0 0 0 0 0 0 0 0 0 0 0 0 0 0 127 0" result="hardAlpha"/>
<feOffset dy="-2"/>
<feGaussianBlur stdDeviation="1"/>
<feColorMatrix type="matrix" values="0 0 0 0 1 0 0 0 0 1 0 0 0 0 1 0 0 0 0.15 0"/>
<feBlend mode="normal" in2="effect1_dropShadow_1149_10" result="effect2_dropShadow_1149_10"/>
<feBlend mode="normal" in="SourceGraphic" in2="effect2_dropShadow_1149_10" result="shape"/>
</filter>
<filter id="filter29_dd_1149_10" x="89.2678" y="63" width="19.5308" height="21.5308" filterUnits="userSpaceOnUse" color-interpolation-filters="sRGB">
<feFlood flood-opacity="0" result="BackgroundImageFix"/>
<feColorMatrix in="SourceAlpha" type="matrix" values="0 0 0 0 0 0 0 0 0 0 0 0 0 0 0 0 0 0 127 0" result="hardAlpha"/>
<feOffset dy="2"/>
<feGaussianBlur stdDeviation="2"/>
<feColorMatrix type="matrix" values="0 0 0 0 0 0 0 0 0 0 0 0 0 0 0 0 0 0 0.75 0"/>
<feBlend mode="normal" in2="BackgroundImageFix" result="effect1_dropShadow_1149_10"/>
<feColorMatrix in="SourceAlpha" type="matrix" values="0 0 0 0 0 0 0 0 0 0 0 0 0 0 0 0 0 0 127 0" result="hardAlpha"/>
<feOffset dy="-2"/>
<feGaussianBlur stdDeviation="1"/>
<feColorMatrix type="matrix" values="0 0 0 0 1 0 0 0 0 1 0 0 0 0 1 0 0 0 0.15 0"/>
<feBlend mode="normal" in2="effect1_dropShadow_1149_10" result="effect2_dropShadow_1149_10"/>
<feBlend mode="normal" in="SourceGraphic" in2="effect2_dropShadow_1149_10" result="shape"/>
</filter>
<filter id="filter30_ii_1149_10" x="70" y="97" width="38.5496" height="15" filterUnits="userSpaceOnUse" color-interpolation-filters="sRGB">
<feFlood flood-opacity="0" result="BackgroundImageFix"/>
<feBlend mode="normal" in="SourceGraphic" in2="BackgroundImageFix" result="shape"/>
<feColorMatrix in="SourceAlpha" type="matrix" values="0 0 0 0 0 0 0 0 0 0 0 0 0 0 0 0 0 0 127 0" result="hardAlpha"/>
<feOffset dy="2"/>
<feComposite in2="hardAlpha" operator="arithmetic" k2="-1" k3="1"/>
<feColorMatrix type="matrix" values="0 0 0 0 1 0 0 0 0 1 0 0 0 0 1 0 0 0 0.25 0"/>
<feBlend mode="normal" in2="shape" result="effect1_innerShadow_1149_10"/>
<feColorMatrix in="SourceAlpha" type="matrix" values="0 0 0 0 0 0 0 0 0 0 0 0 0 0 0 0 0 0 127 0" result="hardAlpha"/>
<feOffset dy="-2"/>
<feComposite in2="hardAlpha" operator="arithmetic" k2="-1" k3="1"/>
<feColorMatrix type="matrix" values="0 0 0 0 0 0 0 0 0 0 0 0 0 0 0 0 0 0 0.25 0"/>
<feBlend mode="normal" in2="effect1_innerShadow_1149_10" result="effect2_innerShadow_1149_10"/>
</filter>
<filter id="filter31_d_1149_10" x="79.3405" y="101.464" width="20.8433" height="7.09844" filterUnits="userSpaceOnUse" color-interpolation-filters="sRGB">
<feFlood flood-opacity="0" result="BackgroundImageFix"/>
<feColorMatrix in="SourceAlpha" type="matrix" values="0 0 0 0 0 0 0 0 0 0 0 0 0 0 0 0 0 0 127 0" result="hardAlpha"/>
<feOffset dy="0.7"/>
<feColorMatrix type="matrix" values="0 0 0 0 0 0 0 0 0 0 0 0 0 0 0 0 0 0 0.3 0"/>
<feBlend mode="normal" in2="BackgroundImageFix" result="effect1_dropShadow_1149_10"/>
<feBlend mode="normal" in="SourceGraphic" in2="effect1_dropShadow_1149_10" result="shape"/>
</filter>
<radialGradient id="paint0_radial_1149_10" cx="0" cy="0" r="1" gradientUnits="userSpaceOnUse" gradientTransform="translate(64 118) scale(55 6)">
<stop/>
<stop offset="1" stop-opacity="0"/>
</radialGradient>
<radialGradient id="paint1_radial_1149_10" cx="0" cy="0" r="1" gradientUnits="userSpaceOnUse" gradientTransform="translate(103.769 118.5) scale(14.2374 2.5)">
<stop stop-color="#181818"/>
<stop offset="1" stop-color="#181818" stop-opacity="0"/>
</radialGradient>
<radialGradient id="paint2_radial_1149_10" cx="0" cy="0" r="1" gradientUnits="userSpaceOnUse" gradientTransform="translate(24.2305 118.5) rotate(180) scale(14.2374 2.5)">
<stop stop-color="#181818"/>
<stop offset="1" stop-color="#181818" stop-opacity="0"/>
</radialGradient>
<linearGradient id="paint3_linear_1149_10" x1="67.0073" y1="121.02" x2="67.0073" y2="116" gradientUnits="userSpaceOnUse">
<stop stop-color="#181818" stop-opacity="0"/>
<stop offset="0.5" stop-color="#181818"/>
<stop offset="1" stop-color="#181818" stop-opacity="0"/>
</linearGradient>
<linearGradient id="paint4_linear_1149_10" x1="62.8716" y1="15.9073" x2="62.8716" y2="118.427" gradientUnits="userSpaceOnUse">
<stop stop-color="#373737"/>
<stop offset="1" stop-color="#1A1A1A"/>
</linearGradient>
<linearGradient id="paint5_linear_1149_10" x1="64" y1="15.1351" x2="64" y2="118.865" gradientUnits="userSpaceOnUse">
<stop stop-color="white"/>
<stop offset="0.0631645" stop-color="white" stop-opacity="0.12"/>
<stop offset="0.950563" stop-color="white" stop-opacity="0.12"/>
<stop offset="1" stop-color="white" stop-opacity="0.5"/>
</linearGradient>
<radialGradient id="paint6_radial_1149_10" cx="0" cy="0" r="1" gradientUnits="userSpaceOnUse" gradientTransform="translate(46.3257 34.7969) rotate(90) scale(43.7386)">
<stop stop-color="#666666"/>
<stop offset="1"/>
</radialGradient>
<radialGradient id="paint7_radial_1149_10" cx="0" cy="0" r="1" gradientUnits="userSpaceOnUse" gradientTransform="translate(46.3257 30.989) rotate(90) scale(40.4143)">
<stop stop-color="#A62100"/>
<stop offset="1" stop-color="#F37329"/>
</radialGradient>
<linearGradient id="paint8_linear_1149_10" x1="46.3257" y1="24.6376" x2="46.3257" y2="74.3508" gradientUnits="userSpaceOnUse">
<stop stop-color="#3C2000"/>
<stop offset="0.817708"/>
<stop offset="0.9999"/>
</linearGradient>
<linearGradient id="paint9_linear_1149_10" x1="45.826" y1="26.4943" x2="45.826" y2="70.9943" gradientUnits="userSpaceOnUse">
<stop stop-color="#AA5002"/>
<stop offset="1" stop-color="#FC9F11"/>
</linearGradient>
<radialGradient id="paint10_radial_1149_10" cx="0" cy="0" r="1" gradientUnits="userSpaceOnUse" gradientTransform="translate(46.3258 45.7642) rotate(90) scale(10.6778)">
<stop stop-color="#777777"/>
<stop offset="1"/>
</radialGradient>
<linearGradient id="paint11_linear_1149_10" x1="46.3258" y1="42.5464" x2="46.3258" y2="56.4419" gradientUnits="userSpaceOnUse">
<stop/>
<stop offset="1" stop-color="#591500"/>
</linearGradient>
<radialGradient id="paint12_radial_1149_10" cx="0" cy="0" r="1" gradientUnits="userSpaceOnUse" gradientTransform="translate(93.268 27.9667) rotate(90) scale(27.4844)">
<stop stop-color="#666666"/>
<stop offset="1"/>
</radialGradient>
<radialGradient id="paint13_radial_1149_10" cx="0" cy="0" r="1" gradientUnits="userSpaceOnUse" gradientTransform="translate(93.2678 27.5238) rotate(90) scale(21.1367)">
<stop stop-color="#A62100"/>
<stop offset="1" stop-color="#F37329"/>
</radialGradient>
<linearGradient id="paint14_linear_1149_10" x1="93.2678" y1="24.2021" x2="93.2678" y2="50.2021" gradientUnits="userSpaceOnUse">
<stop stop-color="#381800"/>
<stop offset="1"/>
</linearGradient>
<linearGradient id="paint15_linear_1149_10" x1="93.2681" y1="25.2021" x2="93.2681" y2="49.2021" gradientUnits="userSpaceOnUse">
<stop stop-color="#AA5002"/>
<stop offset="1" stop-color="#FC9F11"/>
</linearGradient>
<radialGradient id="paint16_radial_1149_10" cx="0" cy="0" r="1" gradientUnits="userSpaceOnUse" gradientTransform="translate(93.2678 33.472) rotate(90) scale(10.6778)">
<stop stop-color="#777777"/>
<stop offset="1"/>
</radialGradient>
<linearGradient id="paint17_linear_1149_10" x1="93.2678" y1="30.2543" x2="93.2678" y2="44.1498" gradientUnits="userSpaceOnUse">
<stop/>
<stop offset="1" stop-color="#591500"/>
</linearGradient>
<linearGradient id="paint18_linear_1149_10" x1="64.0417" y1="61.0787" x2="64.0417" y2="117.002" gradientUnits="userSpaceOnUse">
<stop stop-color="#4F4C4C"/>
<stop offset="1" stop-color="#262626"/>
</linearGradient>
<radialGradient id="paint19_radial_1149_10" cx="0" cy="0" r="1" gradientUnits="userSpaceOnUse" gradientTransform="translate(79.1248 69.9794) rotate(90) scale(8.55142)">
<stop stop-color="#2B2B2B"/>
<stop offset="1" stop-color="#4F4F4F"/>
</radialGradient>
<radialGradient id="paint20_radial_1149_10" cx="0" cy="0" r="1" gradientUnits="userSpaceOnUse" gradientTransform="translate(99.0332 69.9794) rotate(90) scale(8.55142)">
<stop stop-color="#2B2B2B"/>
<stop offset="1" stop-color="#4F4F4F"/>
</radialGradient>
<linearGradient id="paint21_linear_1149_10" x1="68.5" y1="62" x2="114.5" y2="62" gradientUnits="userSpaceOnUse">
<stop stop-color="#717070" stop-opacity="0"/>
<stop offset="0.543822" stop-color="#9F816F"/>
<stop offset="1" stop-color="#717070" stop-opacity="0"/>
</linearGradient>
<linearGradient id="paint22_linear_1149_10" x1="50.0003" y1="79.5003" x2="68.3846" y2="62.0003" gradientUnits="userSpaceOnUse">
<stop stop-color="#717070" stop-opacity="0"/>
<stop offset="0.786458" stop-color="#F0821A" stop-opacity="0.51"/>
<stop offset="1" stop-color="#717070" stop-opacity="0"/>
</linearGradient>
</defs>
</svg>
