<svg width="128" height="128" viewBox="0 0 128 128" fill="none" xmlns="http://www.w3.org/2000/svg">
<path opacity="0.2" d="M119 118.002C118.997 119.593 113.201 121.119 102.887 122.244C92.5726 123.369 78.5849 124.001 64 124.001C49.4151 124.001 35.4274 123.369 25.1133 122.244C14.7991 121.119 9.00311 119.593 9 118.002C8.99846 117.214 10.4199 116.433 13.1833 115.705C15.9466 114.977 19.9976 114.316 25.105 113.758C30.2124 113.201 36.276 112.759 42.9497 112.457C49.6234 112.156 56.7763 112.001 64 112.001C71.2237 112.001 78.3766 112.156 85.0503 112.457C91.724 112.759 97.7876 113.201 102.895 113.758C108.002 114.316 112.053 114.977 114.817 115.705C117.58 116.433 119.002 117.214 119 118.002Z" fill="url(#paint0_radial_677_280)"/>
<g opacity="0.4">
<path d="M118 116.002H103.79V121.002H118V116.002Z" fill="url(#paint1_radial_677_280)"/>
<path d="M9.99992 121.002H24.2104V116.002H9.99992V121.002Z" fill="url(#paint2_radial_677_280)"/>
<path d="M103.789 116.002H24.2104V121.002H103.789V116.002Z" fill="url(#paint3_linear_677_280)"/>
</g>
<path d="M105.5 15.5018H22.5C16.9772 15.5018 12.5 19.979 12.5 25.5018V108.502C12.5 114.025 16.9772 118.502 22.5 118.502H105.5C111.023 118.502 115.5 114.025 115.5 108.502V25.5018C115.5 19.979 111.023 15.5018 105.5 15.5018Z" fill="url(#paint4_linear_677_280)" stroke="#AD5F00" stroke-opacity="0.5" stroke-width="0.999998"/>
<path opacity="0.5" d="M105.5 16.5018H22.5C17.5294 16.5018 13.5 20.5313 13.5 25.5018V108.502C13.5 113.472 17.5294 117.502 22.5 117.502H105.5C110.471 117.502 114.5 113.472 114.5 108.502V25.5018C114.5 20.5313 110.471 16.5018 105.5 16.5018Z" stroke="url(#paint5_linear_677_280)" stroke-linecap="round" stroke-linejoin="round"/>
<path d="M13 25.5C13 20.2533 17.2533 16 22.5 16H64V67H13V25.5Z" fill="white" fill-opacity="0.3"/>
<path d="M115 108.5C115 113.747 110.747 118 105.5 118L64 118L64 67L115 67L115 108.5Z" fill="white" fill-opacity="0.3"/>
<g filter="url(#filter0_i_677_280)">
<path d="M53.0232 41.0179C53.0232 48.7499 46.7552 55.0179 39.0232 55.0179C31.2912 55.0179 25.0232 48.7499 25.0232 41.0179C25.0232 33.286 31.2912 27.0179 39.0232 27.0179C46.7552 27.0179 53.0232 33.286 53.0232 41.0179Z" fill="url(#paint6_linear_677_280)"/>
</g>
<path d="M48.8005 30.9984C54.3343 36.3985 42.6731 33.7345 37.2731 39.2683C31.873 44.8021 34.779 56.4381 29.2452 51.0381C23.7114 45.638 23.6029 36.7744 29.003 31.2406C34.4031 25.7068 43.2667 25.5983 48.8005 30.9984Z" fill="url(#paint7_linear_677_280)"/>
<g filter="url(#filter1_d_677_280)">
<path d="M48.6231 40.9774C48.6231 46.2794 44.325 50.5774 39.0231 50.5774C33.7212 50.5774 29.4231 46.2794 29.4231 40.9774C29.4231 35.6755 33.7212 31.3774 39.0231 31.3774C44.325 31.3774 48.6231 35.6755 48.6231 40.9774Z" fill="white"/>
</g>
<path d="M48.8474 38.297C47.2523 40.4079 47.1704 37.137 43.4888 34.4076C39.8072 31.6782 36.7475 32.62 38.3426 30.5091C39.9377 28.3983 43.5824 28.4305 46.4832 30.5811C49.384 32.7316 50.4425 36.1862 48.8474 38.297Z" fill="url(#paint8_linear_677_280)"/>
<path fill-rule="evenodd" clip-rule="evenodd" d="M39.0229 54.0179C46.2027 54.0179 52.0229 48.1976 52.0229 41.0179C52.0229 33.8382 46.2027 28.0179 39.0229 28.0179C31.8432 28.0179 26.0229 33.8382 26.0229 41.0179C26.0229 48.1976 31.8432 54.0179 39.0229 54.0179ZM39.0229 55.0179C46.7549 55.0179 53.0229 48.7499 53.0229 41.0179C53.0229 33.286 46.7549 27.0179 39.0229 27.0179C31.291 27.0179 25.0229 33.286 25.0229 41.0179C25.0229 48.7499 31.291 55.0179 39.0229 55.0179Z" fill="url(#paint9_linear_677_280)"/>
<path d="M49.6068 45.9864C49.0632 47.1106 48.0486 47.7498 47.3406 47.4139C46.6327 47.0781 46.4994 45.8945 47.0431 44.7702C47.5867 43.646 48.6013 43.0069 49.3092 43.3427C50.0172 43.6785 50.1504 44.8622 49.6068 45.9864Z" fill="url(#paint10_linear_677_280)"/>
<path d="M32.7718 36.887C31.5146 38.5974 29.6222 39.3544 28.5451 38.5776C27.468 37.8009 27.614 35.7847 28.8713 34.0743C30.1285 32.3638 32.0209 31.6069 33.098 32.3836C34.1751 33.1603 34.0291 35.1766 32.7718 36.887Z" fill="url(#paint11_linear_677_280)"/>
<path fill-rule="evenodd" clip-rule="evenodd" d="M38.4234 77C47.8987 77 53.7857 85.6067 52.915 90.7387C52.609 92.5421 52.1051 93.8895 51.6285 95.1638C50.7489 97.5156 49.9625 99.6184 50.6855 103.88C50.6855 104.759 49.7364 104.644 48.5773 104.505C47.3722 104.359 45.9401 104.187 45.1117 105.075C44.2957 105.949 44.3758 106.824 44.4773 107.933C44.5144 108.339 44.5544 108.776 44.5544 109.256C40.6528 111.048 37.8659 111.048 33.9644 109.256C33.9644 107.464 33.9643 106.269 32.8497 105.075C32.009 104.174 30.7115 104.354 29.6467 104.501C28.635 104.642 27.8333 104.753 27.8333 103.88C28.1611 100.015 27.3269 97.9602 26.4738 95.8586C25.8764 94.3871 25.2698 92.8928 25.0465 90.7387C24.489 85.3627 28.9481 77 38.4234 77Z" fill="#AD5F00" fill-opacity="0.25"/>
<path fill-rule="evenodd" clip-rule="evenodd" d="M48.2219 84.0774C46.0134 81.8071 42.6802 80.0534 38.5548 80.0534C30.3458 80.0534 26.6045 86.8138 27.0637 90.9648C27.2543 92.6883 27.7649 93.8764 28.3195 95.1573C29.1029 96.9664 29.9189 98.8573 29.7037 102.188C29.8543 102.175 30.0259 102.153 30.2343 102.126L30.2723 102.121C30.7461 102.059 31.3863 101.975 32.0181 102.027C32.6878 102.082 33.4459 102.295 34.0615 102.913C35.2264 104.084 35.3729 105.319 35.3908 106.607C36.8639 107.185 38.115 107.453 39.3351 107.453C40.5463 107.453 41.7879 107.189 43.2471 106.62C43.2362 106.487 43.2232 106.353 43.2099 106.217C43.2081 106.199 43.2064 106.181 43.2046 106.163C43.1609 105.718 43.1074 105.172 43.1924 104.636C43.2898 104.021 43.5585 103.446 44.0886 102.913C44.7138 102.285 45.5175 102.086 46.2068 102.033C46.8734 101.983 47.5679 102.061 48.1058 102.122L48.1441 102.126C48.4209 102.158 48.6524 102.183 48.8574 102.196C48.8804 102.198 48.9023 102.199 48.9233 102.2C48.7251 100.902 48.6937 99.8071 48.7807 98.8321C48.3312 99.6448 47.535 100.162 46.6749 100.404C45.6715 100.687 44.5015 100.628 43.3818 100.222C42.2621 99.8148 41.3266 99.1082 40.7363 98.2479C40.1474 97.3896 39.8611 96.3007 40.2424 95.2413C40.624 94.181 41.539 93.5261 42.5406 93.244C43.544 92.9614 44.7141 93.0198 45.8337 93.4266C46.9535 93.8334 47.8889 94.5399 48.4792 95.4002C48.7992 95.8665 49.0298 96.4009 49.1126 96.9616C49.3407 96.1054 49.6443 95.3446 49.9378 94.6088L49.9508 94.5762C50.3948 93.4633 50.8304 92.3665 51.0963 90.8967C51.4239 89.0864 50.4725 86.391 48.2219 84.0774ZM49.9995 102.573C49.3247 98.8445 50.0587 97.0046 50.8797 94.9467C51.3245 93.8317 51.7948 92.6528 52.0804 91.0747C52.893 86.5842 47.3985 79.0534 38.5548 79.0534C29.7112 79.0534 25.5494 86.3707 26.0697 91.0747C26.2782 92.9596 26.8444 94.2671 27.4019 95.5547C28.1981 97.3936 28.9767 99.1918 28.6708 102.573C28.6708 103.337 29.419 103.24 30.3633 103.117C31.3571 102.988 32.5681 102.83 33.3527 103.619C34.3931 104.664 34.3931 105.709 34.3931 107.277C38.0346 108.845 40.6356 108.845 44.2772 107.277C44.2772 106.857 44.2398 106.475 44.2051 106.119C44.1104 105.149 44.0357 104.384 44.7973 103.619C45.5704 102.842 46.9071 102.993 48.0319 103.12C49.1137 103.242 49.9995 103.342 49.9995 102.573ZM49.2967 102.187C49.2967 102.187 49.295 102.187 49.2912 102.188C49.2947 102.187 49.2967 102.187 49.2967 102.187ZM37.7443 98.2479C37.154 99.1082 36.2185 99.8148 35.0988 100.222C33.9791 100.628 32.8091 100.687 31.8057 100.404C30.804 100.122 29.889 99.4671 29.5074 98.4068C29.1261 97.3474 29.4124 96.2585 30.0014 95.4002C30.5917 94.5399 31.5271 93.8334 32.6469 93.4266C33.7665 93.0198 34.9365 92.9614 35.9399 93.244C36.9416 93.5261 37.8566 94.181 38.2382 95.2413C38.6195 96.3007 38.3332 97.3896 37.7443 98.2479ZM37.3293 98.9661C37.9708 97.4034 40.1792 97.4034 40.8206 98.9661L41.7471 101.223C42.2554 102.462 41.3519 103.835 40.0015 103.835H38.1485C36.7981 103.835 35.8946 102.462 36.4029 101.223L37.3293 98.9661ZM37.2973 95.5799C37.7858 96.9372 36.6486 98.5946 34.7573 99.2817C32.866 99.9688 30.9368 99.4255 30.4483 98.0682C29.9598 96.7109 31.097 95.0536 32.9883 94.3665C34.8796 93.6794 36.8088 94.2227 37.2973 95.5799ZM43.7233 99.2817C41.832 98.5946 40.6948 96.9372 41.1833 95.5799C41.6718 94.2227 43.601 93.6794 45.4923 94.3665C47.3835 95.0536 48.5207 96.7109 48.0323 98.0682C47.5438 99.4255 45.6146 99.9688 43.7233 99.2817ZM38.2544 99.3458C38.5564 98.6101 39.5936 98.6101 39.8955 99.3458L40.822 101.603C41.0629 102.19 40.6334 102.835 40.0015 102.835H38.1485C37.5166 102.835 37.0871 102.19 37.328 101.603L38.2544 99.3458Z" fill="#AD5F00"/>
<path fill-rule="evenodd" clip-rule="evenodd" d="M38.5548 78.0266C47.3985 78.0266 52.893 85.5574 52.0804 90.0479C51.7948 91.626 51.3245 92.8049 50.8797 93.9199C50.0587 95.9778 49.3247 97.8177 49.9995 101.547C49.9995 102.315 49.1137 102.215 48.0319 102.093C46.9071 101.966 45.5704 101.815 44.7973 102.592C44.0357 103.357 44.1104 104.122 44.2051 105.093C44.2398 105.448 44.2772 105.83 44.2772 106.251C40.6356 107.819 38.0346 107.819 34.3931 106.251C34.3931 104.683 34.3931 103.637 33.3527 102.592C32.5681 101.804 31.3571 101.961 30.3633 102.09C29.419 102.213 28.6708 102.311 28.6708 101.547C28.9767 98.165 28.1981 96.3668 27.4019 94.5279C26.8444 93.2403 26.2782 91.9328 26.0697 90.0479C25.5494 85.3439 29.7112 78.0266 38.5548 78.0266ZM34.7573 98.2549C36.6486 97.5678 37.7858 95.9104 37.2973 94.5532C36.8088 93.1959 34.8796 92.6526 32.9883 93.3397C31.097 94.0268 29.9598 95.6841 30.4483 97.0414C30.9368 98.3987 32.866 98.942 34.7573 98.2549ZM41.1833 94.5532C40.6948 95.9104 41.832 97.5678 43.7233 98.2549C45.6146 98.942 47.5438 98.3987 48.0323 97.0414C48.5207 95.6841 47.3835 94.0268 45.4923 93.3397C43.601 92.6526 41.6718 93.1959 41.1833 94.5532ZM39.8955 98.319C39.5936 97.5833 38.5564 97.5833 38.2544 98.319L37.328 100.576C37.0871 101.163 37.5166 101.808 38.1485 101.808H40.0015C40.6334 101.808 41.0629 101.163 40.822 100.576L39.8955 98.319Z" fill="white"/>
<path d="M90 29L104.722 55.25H75.2776L90 29Z" fill="#AD5F00" fill-opacity="0.25"/>
<path fill-rule="evenodd" clip-rule="evenodd" d="M89.9998 31.8872L77.2261 54.012H102.774L89.9998 31.8872ZM89.9998 37.8872L82.4222 51.012H97.5775L89.9998 37.8872Z" fill="#AD5F00"/>
<path fill-rule="evenodd" clip-rule="evenodd" d="M89.9998 31.1998L77.2261 53.3246H102.774L89.9998 31.1998ZM89.9998 37.1998L82.4222 50.3246H97.5775L89.9998 37.1998Z" fill="white"/>
<defs>
<filter id="filter0_i_677_280" x="25.0232" y="27.0179" width="32" height="32" filterUnits="userSpaceOnUse" color-interpolation-filters="sRGB">
<feFlood flood-opacity="0" result="BackgroundImageFix"/>
<feBlend mode="normal" in="SourceGraphic" in2="BackgroundImageFix" result="shape"/>
<feColorMatrix in="SourceAlpha" type="matrix" values="0 0 0 0 0 0 0 0 0 0 0 0 0 0 0 0 0 0 127 0" result="hardAlpha"/>
<feOffset dx="4" dy="4"/>
<feGaussianBlur stdDeviation="2"/>
<feComposite in2="hardAlpha" operator="arithmetic" k2="-1" k3="1"/>
<feColorMatrix type="matrix" values="0 0 0 0 0 0 0 0 0 0 0 0 0 0 0 0 0 0 0.5 0"/>
<feBlend mode="normal" in2="shape" result="effect1_innerShadow_677_280"/>
</filter>
<filter id="filter1_d_677_280" x="23.4231" y="25.3774" width="31.2" height="31.2" filterUnits="userSpaceOnUse" color-interpolation-filters="sRGB">
<feFlood flood-opacity="0" result="BackgroundImageFix"/>
<feColorMatrix in="SourceAlpha" type="matrix" values="0 0 0 0 0 0 0 0 0 0 0 0 0 0 0 0 0 0 127 0" result="hardAlpha"/>
<feOffset/>
<feGaussianBlur stdDeviation="3"/>
<feComposite in2="hardAlpha" operator="out"/>
<feColorMatrix type="matrix" values="0 0 0 0 1 0 0 0 0 1 0 0 0 0 1 0 0 0 1 0"/>
<feBlend mode="normal" in2="BackgroundImageFix" result="effect1_dropShadow_677_280"/>
<feBlend mode="normal" in="SourceGraphic" in2="effect1_dropShadow_677_280" result="shape"/>
</filter>
<radialGradient id="paint0_radial_677_280" cx="0" cy="0" r="1" gradientUnits="userSpaceOnUse" gradientTransform="translate(64 118.002) scale(55 6)">
<stop/>
<stop offset="1" stop-opacity="0"/>
</radialGradient>
<radialGradient id="paint1_radial_677_280" cx="0" cy="0" r="1" gradientUnits="userSpaceOnUse" gradientTransform="translate(103.77 118.502) scale(14.2374 2.5)">
<stop stop-color="#181818"/>
<stop offset="1" stop-color="#181818" stop-opacity="0"/>
</radialGradient>
<radialGradient id="paint2_radial_677_280" cx="0" cy="0" r="1" gradientUnits="userSpaceOnUse" gradientTransform="translate(24.2304 118.502) rotate(180) scale(14.2374 2.5)">
<stop stop-color="#181818"/>
<stop offset="1" stop-color="#181818" stop-opacity="0"/>
</radialGradient>
<linearGradient id="paint3_linear_677_280" x1="67.0071" y1="121.022" x2="67.0071" y2="116.001" gradientUnits="userSpaceOnUse">
<stop stop-color="#181818" stop-opacity="0"/>
<stop offset="0.5" stop-color="#181818"/>
<stop offset="1" stop-color="#181818" stop-opacity="0"/>
</linearGradient>
<linearGradient id="paint4_linear_677_280" x1="62.7542" y1="17.042" x2="62.7542" y2="117.797" gradientUnits="userSpaceOnUse">
<stop stop-color="#F9C440"/>
<stop offset="1" stop-color="#D48E15"/>
</linearGradient>
<linearGradient id="paint5_linear_677_280" x1="64" y1="15.137" x2="64" y2="118.867" gradientUnits="userSpaceOnUse">
<stop stop-color="white"/>
<stop offset="0.0631645" stop-color="white" stop-opacity="0.235294"/>
<stop offset="0.950563" stop-color="white" stop-opacity="0.156863"/>
<stop offset="1" stop-color="white" stop-opacity="0.392157"/>
</linearGradient>
<linearGradient id="paint6_linear_677_280" x1="30.3399" y1="27.0179" x2="48.68" y2="53.0746" gradientUnits="userSpaceOnUse">
<stop offset="0.389307" stop-color="#FF698A"/>
<stop offset="1" stop-color="#79EBFF"/>
</linearGradient>
<linearGradient id="paint7_linear_677_280" x1="28.5231" y1="30.5183" x2="47.7731" y2="51.5183" gradientUnits="userSpaceOnUse">
<stop stop-color="white" stop-opacity="0.75"/>
<stop offset="1" stop-color="white" stop-opacity="0"/>
</linearGradient>
<linearGradient id="paint8_linear_677_280" x1="46.4831" y1="30.5811" x2="42.9194" y2="35.388" gradientUnits="userSpaceOnUse">
<stop offset="0.479901" stop-color="#F9F5AB"/>
<stop offset="1" stop-color="white" stop-opacity="0.5"/>
</linearGradient>
<linearGradient id="paint9_linear_677_280" x1="28.6666" y1="30.3219" x2="49.9723" y2="49.7517" gradientUnits="userSpaceOnUse">
<stop stop-color="white"/>
<stop offset="0.5" stop-color="white" stop-opacity="0"/>
<stop offset="1" stop-color="#99E9FF"/>
</linearGradient>
<linearGradient id="paint10_linear_677_280" x1="49.8688" y1="44.8281" x2="47.4338" y2="44.6412" gradientUnits="userSpaceOnUse">
<stop stop-color="#D7F9FF"/>
<stop offset="1" stop-color="#D7F9FF" stop-opacity="0"/>
</linearGradient>
<linearGradient id="paint11_linear_677_280" x1="30.0199" y1="34.6642" x2="35.0872" y2="38.9434" gradientUnits="userSpaceOnUse">
<stop stop-color="white"/>
<stop offset="1" stop-color="white" stop-opacity="0"/>
</linearGradient>
</defs>
</svg>
