<svg width="16" height="16" viewBox="0 0 16 16" fill="none" xmlns="http://www.w3.org/2000/svg">
<path d="M12.5 1.5H3.5C2.39543 1.5 1.5 2.39543 1.5 3.5V12.5C1.5 13.6046 2.39543 14.5 3.5 14.5H12.5C13.6046 14.5 14.5 13.6046 14.5 12.5V3.5C14.5 2.39543 13.6046 1.5 12.5 1.5Z" fill="url(#paint0_linear_677_261)" stroke="#AD5F00" stroke-opacity="0.5" stroke-width="0.999998"/>
<path d="M10.9999 2.17737L14.3104 7.91127H7.68945L10.9999 2.17737Z" fill="#AD5F00" fill-opacity="0.2"/>
<path fill-rule="evenodd" clip-rule="evenodd" d="M10.9998 4.34497L9.44678 7.03492H12.5529L10.9998 4.34497Z" fill="#AD5F00"/>
<path d="M10.9998 3.89661L12.5529 6.58655H9.44678L10.9998 3.89661Z" fill="white"/>
<path d="M14 12.5C14 13.3284 13.3284 14 12.5 14L8 14L8 8L14 8L14 12.5Z" fill="white" fill-opacity="0.3"/>
<path d="M2 3.5C2 2.67157 2.67157 2 3.5 2L8 2V8L2 8L2 3.5Z" fill="white" fill-opacity="0.3"/>
<path opacity="0.35" d="M12.5 2.5H3.5C2.94772 2.5 2.5 2.94772 2.5 3.5V12.5C2.5 13.0523 2.94772 13.5 3.5 13.5H12.5C13.0523 13.5 13.5 13.0523 13.5 12.5V3.5C13.5 2.94772 13.0523 2.5 12.5 2.5Z" stroke="url(#paint1_linear_677_261)" stroke-linecap="round" stroke-linejoin="round"/>
<g filter="url(#filter0_i_677_261)">
<path d="M7 5C7 6.10457 6.10457 7 5 7C3.89543 7 3 6.10457 3 5C3 3.89543 3.89543 3 5 3C6.10457 3 7 3.89543 7 5Z" fill="url(#paint2_linear_677_261)"/>
</g>
<g filter="url(#filter1_d_677_261)">
<path d="M6.37152 4.99417C6.37152 5.75159 5.75751 6.3656 5.00009 6.3656C4.24267 6.3656 3.62866 5.75159 3.62866 4.99417C3.62866 4.23675 4.24267 3.62274 5.00009 3.62274C5.75751 3.62274 6.37152 4.23675 6.37152 4.99417Z" fill="white"/>
</g>
<path d="M4.11629 4.4098C3.93669 4.65415 3.66635 4.76229 3.51248 4.65133C3.3586 4.54037 3.37946 4.25233 3.55907 4.00798C3.73868 3.76364 4.00902 3.6555 4.16289 3.76646C4.31676 3.87742 4.2959 4.16546 4.11629 4.4098Z" fill="white"/>
<path d="M6.45373 4.26993C6.27402 4.50775 6.2648 4.13924 5.85001 3.83173C5.43522 3.52422 5.0905 3.63033 5.27021 3.39251C5.44993 3.15469 5.86055 3.15832 6.18737 3.40061C6.5142 3.6429 6.63345 4.03211 6.45373 4.26993Z" fill="url(#paint3_linear_677_261)"/>
<path d="M6.5545 5.70972C6.47684 5.87032 6.3319 5.96163 6.23076 5.91365C6.12962 5.86567 6.11059 5.69659 6.18824 5.53598C6.2659 5.37537 6.41085 5.28407 6.51198 5.33205C6.61312 5.38002 6.63215 5.54911 6.5545 5.70972Z" fill="#9EE2EE"/>
<path fill-rule="evenodd" clip-rule="evenodd" d="M5.0752 7.84082C6.71599 7.84082 7.73542 9.3312 7.58465 10.2199C7.53166 10.5322 7.4444 10.7655 7.36187 10.9862C7.20956 11.3934 7.07337 11.7575 7.19858 12.4955C7.19858 12.6476 7.03422 12.6278 6.83351 12.6037C6.62482 12.5785 6.37683 12.5487 6.23339 12.7024C6.09208 12.8538 6.10595 13.0053 6.12352 13.1973C6.12995 13.2676 6.13689 13.3433 6.13689 13.4264C5.46125 13.7368 4.97867 13.7368 4.30306 13.4264C4.30306 13.1161 4.30305 12.9093 4.11002 12.7024C3.96444 12.5464 3.73977 12.5775 3.55539 12.6031C3.38018 12.6274 3.24136 12.6467 3.24136 12.4955C3.29813 11.8263 3.15366 11.4704 3.00594 11.1065C2.9025 10.8517 2.79746 10.5929 2.75878 10.2199C2.66224 9.28895 3.4344 7.84082 5.0752 7.84082Z" fill="#AD5F00" fill-opacity="0.2"/>
<path fill-rule="evenodd" clip-rule="evenodd" d="M5.11351 8.875C6.12872 8.875 6.75947 9.73951 6.66619 10.255C6.6334 10.4362 6.57941 10.5715 6.52835 10.6995C6.43411 10.9357 6.34984 11.1469 6.42731 11.575C6.42731 11.6632 6.32562 11.6518 6.20144 11.6377C6.07231 11.6232 5.91887 11.6058 5.83012 11.695C5.74269 11.7828 5.75127 11.8707 5.76214 11.9821C5.76612 12.0228 5.77041 12.0668 5.77041 12.115C5.35238 12.295 5.05379 12.295 4.63576 12.115C4.63576 11.935 4.63576 11.815 4.51633 11.695C4.42625 11.6045 4.28724 11.6226 4.17316 11.6374C4.06475 11.6515 3.97886 11.6627 3.97886 11.575C4.01398 11.1868 3.9246 10.9804 3.8332 10.7693C3.76919 10.6215 3.7042 10.4714 3.68027 10.255C3.62054 9.715 4.0983 8.875 5.11351 8.875ZM4.67757 11.1971C4.89468 11.1182 5.02523 10.928 4.96915 10.7722C4.91307 10.6164 4.69161 10.554 4.4745 10.6329C4.25738 10.7118 4.12684 10.902 4.18292 11.0578C4.23899 11.2136 4.46046 11.276 4.67757 11.1971ZM5.41525 10.7722C5.35917 10.928 5.48971 11.1182 5.70683 11.1971C5.92394 11.276 6.1454 11.2136 6.20148 11.0578C6.25756 10.902 6.12701 10.7118 5.9099 10.6329C5.69279 10.554 5.47132 10.6164 5.41525 10.7722ZM5.26742 11.2045C5.23275 11.12 5.11369 11.12 5.07903 11.2045L4.97267 11.4636C4.94501 11.531 4.99432 11.605 5.06687 11.605H5.27958C5.35212 11.605 5.40143 11.531 5.37377 11.4636L5.26742 11.2045Z" fill="white"/>
<defs>
<filter id="filter0_i_677_261" x="3" y="1" width="4" height="6" filterUnits="userSpaceOnUse" color-interpolation-filters="sRGB">
<feFlood flood-opacity="0" result="BackgroundImageFix"/>
<feBlend mode="normal" in="SourceGraphic" in2="BackgroundImageFix" result="shape"/>
<feColorMatrix in="SourceAlpha" type="matrix" values="0 0 0 0 0 0 0 0 0 0 0 0 0 0 0 0 0 0 127 0" result="hardAlpha"/>
<feOffset dy="-2"/>
<feGaussianBlur stdDeviation="1"/>
<feComposite in2="hardAlpha" operator="arithmetic" k2="-1" k3="1"/>
<feColorMatrix type="matrix" values="0 0 0 0 0 0 0 0 0 0 0 0 0 0 0 0 0 0 0.5 0"/>
<feBlend mode="normal" in2="shape" result="effect1_innerShadow_677_261"/>
</filter>
<filter id="filter1_d_677_261" x="2.62866" y="2.62274" width="4.74292" height="4.74286" filterUnits="userSpaceOnUse" color-interpolation-filters="sRGB">
<feFlood flood-opacity="0" result="BackgroundImageFix"/>
<feColorMatrix in="SourceAlpha" type="matrix" values="0 0 0 0 0 0 0 0 0 0 0 0 0 0 0 0 0 0 127 0" result="hardAlpha"/>
<feOffset/>
<feGaussianBlur stdDeviation="0.5"/>
<feComposite in2="hardAlpha" operator="out"/>
<feColorMatrix type="matrix" values="0 0 0 0 1 0 0 0 0 1 0 0 0 0 1 0 0 0 1 0"/>
<feBlend mode="normal" in2="BackgroundImageFix" result="effect1_dropShadow_677_261"/>
<feBlend mode="normal" in="SourceGraphic" in2="effect1_dropShadow_677_261" result="shape"/>
</filter>
<linearGradient id="paint0_linear_677_261" x1="7.84277" y1="1.6944" x2="7.84277" y2="14.411" gradientUnits="userSpaceOnUse">
<stop stop-color="#F9C440"/>
<stop offset="1" stop-color="#D48E15"/>
</linearGradient>
<linearGradient id="paint1_linear_677_261" x1="8" y1="3" x2="8" y2="13" gradientUnits="userSpaceOnUse">
<stop stop-color="white" stop-opacity="0.235294"/>
<stop offset="1" stop-color="white" stop-opacity="0.392157"/>
</linearGradient>
<linearGradient id="paint2_linear_677_261" x1="3.75953" y1="3" x2="6.37954" y2="6.72238" gradientUnits="userSpaceOnUse">
<stop stop-color="#FFBCB1"/>
<stop offset="1" stop-color="#B4F3FF"/>
</linearGradient>
<linearGradient id="paint3_linear_677_261" x1="6.18736" y1="3.40062" x2="5.78586" y2="3.94219" gradientUnits="userSpaceOnUse">
<stop offset="0.479901" stop-color="#F9F5AB"/>
<stop offset="1" stop-color="white" stop-opacity="0.5"/>
</linearGradient>
</defs>
</svg>
