<svg width="32" height="32" viewBox="0 0 32 32" fill="none" xmlns="http://www.w3.org/2000/svg">
<g opacity="0.4">
<path d="M29.9999 28H26.3157V31H29.9999V28Z" fill="url(#paint0_radial_677_234)"/>
<path d="M2.00012 31H5.68433V28H2.00012V31Z" fill="url(#paint1_radial_677_234)"/>
<path d="M26.3159 28H5.68433V31H26.3159V28Z" fill="url(#paint2_linear_677_234)"/>
</g>
<path d="M26.5 2.5H5.5C3.84315 2.5 2.5 3.84315 2.5 5.5V26.5C2.5 28.1569 3.84315 29.5 5.5 29.5H26.5C28.1569 29.5 29.5 28.1569 29.5 26.5V5.5C29.5 3.84315 28.1569 2.5 26.5 2.5Z" fill="url(#paint3_linear_677_234)" stroke="#AD5F00" stroke-opacity="0.5" stroke-width="0.999998"/>
<path opacity="0.35" d="M26.5 3.5H5.5C4.39543 3.5 3.5 4.39543 3.5 5.5V26.5C3.5 27.6046 4.39543 28.5 5.5 28.5H26.5C27.6046 28.5 28.5 27.6046 28.5 26.5V5.5C28.5 4.39543 27.6046 3.5 26.5 3.5Z" stroke="url(#paint4_linear_677_234)" stroke-linecap="round" stroke-linejoin="round"/>
<path d="M3 5.5C3 4.11929 4.11929 3 5.5 3H16V16H3V5.5Z" fill="white" fill-opacity="0.3"/>
<path d="M29 26.5C29 27.8807 27.8807 29 26.5 29L16 29L16 16L29 16L29 26.5Z" fill="white" fill-opacity="0.3"/>
<path d="M22.0001 5L27.1963 14H16.804L22.0001 5Z" fill="#AD5F00" fill-opacity="0.2"/>
<path fill-rule="evenodd" clip-rule="evenodd" d="M22.0001 7.68994L18.894 13.0698H25.1062L22.0001 7.68994ZM22.0001 9.68994L20.6261 12.0698H23.3742L22.0001 9.68994Z" fill="#AD5F00"/>
<path fill-rule="evenodd" clip-rule="evenodd" d="M22.0001 6.79327L18.894 12.1732H25.1062L22.0001 6.79327ZM22.0001 8.79327L20.6261 11.1732H23.3742L22.0001 8.79327Z" fill="white"/>
<path fill-rule="evenodd" clip-rule="evenodd" d="M9.8113 17C12.9133 17 14.8406 19.8177 14.5556 21.4978C14.4554 22.0882 14.2904 22.5293 14.1344 22.9465C13.8465 23.7164 13.589 24.4048 13.8257 25.8C13.8257 26.0876 13.515 26.0502 13.1355 26.0045C12.741 25.957 12.2721 25.9005 12.001 26.1911C11.7338 26.4774 11.76 26.7637 11.7932 27.1267C11.8054 27.2596 11.8185 27.4028 11.8185 27.56C10.5412 28.1467 9.62881 28.1467 8.35152 27.56C8.35152 26.9733 8.3515 26.5822 7.98657 26.1911C7.71135 25.8961 7.28658 25.9551 6.938 26.0035C6.60677 26.0494 6.34432 26.0858 6.34432 25.8C6.45163 24.5348 6.17852 23.862 5.89923 23.174C5.70367 22.6922 5.50509 22.203 5.43196 21.4978C5.24945 19.7378 6.70927 17 9.8113 17Z" fill="#AD5F00" fill-opacity="0.2"/>
<path fill-rule="evenodd" clip-rule="evenodd" d="M12.0462 20.7447C11.548 20.2326 10.7935 19.8333 9.84914 19.8333C8.00212 19.8333 7.25476 21.3297 7.3396 22.0967C7.35458 22.2321 7.37805 22.3512 7.40941 22.4653C7.5746 22.352 7.75557 22.2595 7.94564 22.1905C8.38503 22.0308 8.86793 21.9983 9.31037 22.1229C9.56048 22.1933 9.8233 22.3246 10.0415 22.5296C10.2597 22.3246 10.5225 22.1933 10.7726 22.1229C11.215 21.9983 11.6979 22.0308 12.1373 22.1905C12.2887 22.2455 12.4343 22.3153 12.5708 22.3988C12.6062 22.2828 12.6363 22.1626 12.6606 22.0286C12.6959 21.8335 12.5864 21.3001 12.0462 20.7447ZM13.3426 23.2054C13.4565 22.9178 13.5719 22.6083 13.6446 22.2066C13.8726 20.9466 12.3308 18.8333 9.84914 18.8333C7.36751 18.8333 6.19966 20.8866 6.34566 22.2066C6.39819 22.6815 6.53162 23.0258 6.67157 23.3527C6.68749 23.3899 6.7035 23.4269 6.71948 23.4638C6.84052 23.7433 6.9601 24.0195 7.03064 24.3648C7.07756 24.5944 7.10278 24.8546 7.09231 25.1666C7.08946 25.2516 7.08397 25.3403 7.07556 25.4333C7.07556 25.6477 7.28551 25.6204 7.5505 25.5859C7.66972 25.5704 7.80009 25.5534 7.92749 25.5564C8.00127 25.5581 8.07407 25.5665 8.14312 25.5857C8.23369 25.6109 8.31784 25.6548 8.38936 25.7266C8.6813 26.02 8.68131 26.3133 8.68131 26.7533C9.70314 27.1933 10.433 27.1933 11.4549 26.7533C11.4549 26.6354 11.4444 26.528 11.4347 26.4284C11.4081 26.1561 11.3871 25.9414 11.6009 25.7266C11.6675 25.6597 11.7491 25.6173 11.8393 25.5917C11.9109 25.5714 11.988 25.5617 12.0673 25.5588C12.0938 25.5578 12.1205 25.5575 12.1474 25.5579C12.2049 25.5587 12.2631 25.5623 12.3207 25.5672C12.3845 25.5727 12.4476 25.5798 12.5085 25.5867C12.8121 25.621 13.0607 25.649 13.0607 25.4333C13.0424 25.3322 13.0278 25.2361 13.0165 25.1443C12.9786 24.8354 12.9788 24.5766 13.0042 24.3475C13.0495 23.9403 13.1745 23.627 13.3076 23.2932C13.3192 23.2641 13.3309 23.2348 13.3426 23.2054ZM11.9878 24.5701C11.9052 24.5875 11.8169 24.5952 11.7252 24.5926C11.588 24.5888 11.4433 24.5619 11.2995 24.5096C11.2993 24.5095 11.2997 24.5097 11.2995 24.5096C11.1348 24.4497 10.9899 24.3633 10.8733 24.2617C10.6277 24.0474 10.5051 23.7641 10.5739 23.5114C10.5776 23.4978 10.5819 23.4843 10.5867 23.4709C10.7238 23.09 11.2651 22.9375 11.7959 23.1303C11.9552 23.1882 12.0954 23.2706 12.21 23.3679C12.4771 23.5948 12.6045 23.9026 12.5086 24.1691C12.4382 24.3648 12.261 24.5002 12.0335 24.5594C12.0184 24.5633 12.0032 24.5669 11.9878 24.5701ZM9.78335 24.4908C9.88183 24.3283 10.1267 24.3336 10.2157 24.5066C10.2159 24.507 10.216 24.5073 10.2162 24.5076C10.2195 24.514 10.2225 24.5207 10.2254 24.5276M9.64545 24.8185L9.76485 24.5276C9.76768 24.5207 9.77074 24.514 9.77402 24.5076C9.77419 24.5073 9.77435 24.507 9.77451 24.5066C9.77731 24.5012 9.78026 24.4959 9.78335 24.4908M9.64545 24.8185L9.51275 25.1418ZM9.51275 25.1418L9.50487 25.161C9.50142 25.1694 9.49846 25.1779 9.49597 25.1863C9.48642 25.2188 9.48383 25.2516 9.48722 25.2831C9.49045 25.3129 9.49905 25.3417 9.5122 25.3681C9.54269 25.4292 9.5976 25.4775 9.66639 25.4971C9.68804 25.5033 9.71106 25.5066 9.73512 25.5066H10.2551C10.2791 25.5066 10.3022 25.5033 10.3238 25.4971C10.3926 25.4775 10.4475 25.4292 10.478 25.3681C10.4991 25.3257 10.5085 25.2772 10.5027 25.2277C10.5011 25.2139 10.4983 25.2001 10.4942 25.1863C10.4917 25.1779 10.4888 25.1694 10.4853 25.161L10.2551 24.6M8.67732 24.5436C8.71268 24.5338 8.74812 24.5225 8.7835 24.5096C8.93442 24.4548 9.06823 24.3779 9.1793 24.2873C9.45792 24.0599 9.59347 23.7455 9.4972 23.4735C9.49689 23.4726 9.49657 23.4717 9.49626 23.4709C9.35918 23.09 8.81783 22.9375 8.28711 23.1303C8.08886 23.2024 7.92015 23.3124 7.7937 23.4418C7.58164 23.6589 7.48848 23.9305 7.57435 24.1691C7.6458 24.3676 7.82707 24.5041 8.05943 24.5619C8.06338 24.5629 8.06735 24.5639 8.07133 24.5648C8.13889 24.5808 8.21063 24.5901 8.28513 24.5925C8.4103 24.5965 8.54327 24.5808 8.67732 24.5436Z" fill="#AD5F00"/>
<path fill-rule="evenodd" clip-rule="evenodd" d="M9.84914 17.9167C12.3308 17.9167 13.8726 20.0299 13.6446 21.29C13.5644 21.7328 13.4325 22.0637 13.3076 22.3765C13.0773 22.954 12.8713 23.4703 13.0607 24.5167C13.0607 24.7324 12.8121 24.7043 12.5085 24.6701C12.1929 24.6344 11.8178 24.5921 11.6009 24.81C11.3871 25.0248 11.4081 25.2395 11.4347 25.5117C11.4444 25.6114 11.4549 25.7188 11.4549 25.8367C10.433 26.2767 9.70314 26.2767 8.68131 25.8367C8.68131 25.3967 8.6813 25.1034 8.38936 24.81C8.16918 24.5888 7.82936 24.633 7.5505 24.6693C7.28551 24.7038 7.07556 24.7311 7.07556 24.5167C7.16141 23.5678 6.94291 23.0632 6.71948 22.5472C6.56303 22.1858 6.40417 21.8189 6.34566 21.29C6.19966 19.97 7.36751 17.9167 9.84914 17.9167ZM8.7835 23.593C9.31422 23.4002 9.63333 22.9351 9.49626 22.5542C9.35918 22.1734 8.81783 22.0209 8.28711 22.2137C7.75639 22.4065 7.43728 22.8716 7.57435 23.2525C7.71143 23.6333 8.25278 23.7858 8.7835 23.593ZM10.5867 22.5542C10.4496 22.9351 10.7687 23.4002 11.2995 23.593C11.8302 23.7858 12.3715 23.6333 12.5086 23.2525C12.6457 22.8716 12.3266 22.4065 11.7959 22.2137C11.2651 22.0209 10.7238 22.1734 10.5867 22.5542ZM10.2254 23.611C10.1406 23.4045 9.84958 23.4045 9.76485 23.611L9.50487 24.2444C9.43726 24.4091 9.55779 24.59 9.73512 24.59H10.2551C10.4324 24.59 10.5529 24.4091 10.4853 24.2444L10.2254 23.611Z" fill="white"/>
<g filter="url(#filter0_i_677_234)">
<path d="M14.0066 10.0051C14.0066 12.2143 12.2157 14.0051 10.0066 14.0051C7.79745 14.0051 6.00659 12.2143 6.00659 10.0051C6.00659 7.79599 7.79745 6.00513 10.0066 6.00513C12.2157 6.00513 14.0066 7.79599 14.0066 10.0051Z" fill="url(#paint5_linear_677_234)"/>
</g>
<path d="M12.8001 7.14239C14.3812 8.68526 11.0495 7.92413 9.50659 9.50522C7.96372 11.0863 8.794 14.4109 7.21291 12.868C5.63182 11.3251 5.60084 8.79268 7.14371 7.21159C8.68659 5.6305 11.2191 5.59952 12.8001 7.14239Z" fill="url(#paint6_linear_677_234)"/>
<g filter="url(#filter1_d_677_234)">
<path d="M12.7496 9.99353C12.7496 11.5084 11.5216 12.7364 10.0068 12.7364C8.49194 12.7364 7.26392 11.5084 7.26392 9.99353C7.26392 8.47869 8.49194 7.25067 10.0068 7.25067C11.5216 7.25067 12.7496 8.47869 12.7496 9.99353Z" fill="white"/>
</g>
<path d="M12.8135 9.22769C12.3578 9.83079 12.3344 8.89626 11.2825 8.11643C10.2306 7.33659 9.35642 7.60568 9.81217 7.00259C10.2679 6.39949 11.3093 6.40869 12.1381 7.02313C12.9669 7.63758 13.2693 8.62459 12.8135 9.22769Z" fill="url(#paint7_linear_677_234)"/>
<path fill-rule="evenodd" clip-rule="evenodd" d="M10.0066 13.5051C11.9396 13.5051 13.5066 11.9381 13.5066 10.0051C13.5066 8.07213 11.9396 6.50513 10.0066 6.50513C8.0736 6.50513 6.50659 8.07213 6.50659 10.0051C6.50659 11.9381 8.0736 13.5051 10.0066 13.5051ZM10.0066 14.0051C12.2157 14.0051 14.0066 12.2143 14.0066 10.0051C14.0066 7.79599 12.2157 6.00513 10.0066 6.00513C7.79745 6.00513 6.00659 7.79599 6.00659 10.0051C6.00659 12.2143 7.79745 14.0051 10.0066 14.0051Z" fill="url(#paint8_linear_677_234)"/>
<path d="M13.0306 11.4247C12.8753 11.7459 12.5854 11.9285 12.3831 11.8326C12.1809 11.7366 12.1428 11.3984 12.2981 11.0772C12.4534 10.756 12.7433 10.5734 12.9456 10.6693C13.1479 10.7653 13.1859 11.1035 13.0306 11.4247Z" fill="url(#paint9_linear_677_234)"/>
<path d="M8.22062 8.82486C7.86141 9.31355 7.32073 9.52982 7.01299 9.3079C6.70524 9.08598 6.74697 8.50991 7.10618 8.02122C7.46539 7.53252 8.00607 7.31625 8.31381 7.53817C8.62156 7.76009 8.57984 8.33616 8.22062 8.82486Z" fill="url(#paint10_linear_677_234)"/>
<defs>
<filter id="filter0_i_677_234" x="6.00659" y="6.00513" width="10" height="10" filterUnits="userSpaceOnUse" color-interpolation-filters="sRGB">
<feFlood flood-opacity="0" result="BackgroundImageFix"/>
<feBlend mode="normal" in="SourceGraphic" in2="BackgroundImageFix" result="shape"/>
<feColorMatrix in="SourceAlpha" type="matrix" values="0 0 0 0 0 0 0 0 0 0 0 0 0 0 0 0 0 0 127 0" result="hardAlpha"/>
<feOffset dx="2" dy="2"/>
<feGaussianBlur stdDeviation="1"/>
<feComposite in2="hardAlpha" operator="arithmetic" k2="-1" k3="1"/>
<feColorMatrix type="matrix" values="0 0 0 0 0 0 0 0 0 0 0 0 0 0 0 0 0 0 0.5 0"/>
<feBlend mode="normal" in2="shape" result="effect1_innerShadow_677_234"/>
</filter>
<filter id="filter1_d_677_234" x="6.26392" y="6.25067" width="7.4856" height="7.48572" filterUnits="userSpaceOnUse" color-interpolation-filters="sRGB">
<feFlood flood-opacity="0" result="BackgroundImageFix"/>
<feColorMatrix in="SourceAlpha" type="matrix" values="0 0 0 0 0 0 0 0 0 0 0 0 0 0 0 0 0 0 127 0" result="hardAlpha"/>
<feOffset/>
<feGaussianBlur stdDeviation="0.5"/>
<feComposite in2="hardAlpha" operator="out"/>
<feColorMatrix type="matrix" values="0 0 0 0 1 0 0 0 0 1 0 0 0 0 1 0 0 0 1 0"/>
<feBlend mode="normal" in2="BackgroundImageFix" result="effect1_dropShadow_677_234"/>
<feBlend mode="normal" in="SourceGraphic" in2="effect1_dropShadow_677_234" result="shape"/>
</filter>
<radialGradient id="paint0_radial_677_234" cx="0" cy="0" r="1" gradientUnits="userSpaceOnUse" gradientTransform="translate(26.3105 29.5) scale(3.69118 1.5)">
<stop stop-color="#181818"/>
<stop offset="1" stop-color="#181818" stop-opacity="0"/>
</radialGradient>
<radialGradient id="paint1_radial_677_234" cx="0" cy="0" r="1" gradientUnits="userSpaceOnUse" gradientTransform="translate(5.6895 29.5) rotate(180) scale(3.69118 1.5)">
<stop stop-color="#181818"/>
<stop offset="1" stop-color="#181818" stop-opacity="0"/>
</radialGradient>
<linearGradient id="paint2_linear_677_234" x1="16.7798" y1="31.0119" x2="16.7798" y2="27.9998" gradientUnits="userSpaceOnUse">
<stop stop-color="#181818" stop-opacity="0"/>
<stop offset="0.5" stop-color="#181818"/>
<stop offset="1" stop-color="#181818" stop-opacity="0"/>
</linearGradient>
<linearGradient id="paint3_linear_677_234" x1="15.6734" y1="2.90374" x2="15.6734" y2="29.3152" gradientUnits="userSpaceOnUse">
<stop stop-color="#F9C440"/>
<stop offset="1" stop-color="#D48E15"/>
</linearGradient>
<linearGradient id="paint4_linear_677_234" x1="16" y1="4" x2="16" y2="28" gradientUnits="userSpaceOnUse">
<stop stop-color="white"/>
<stop offset="0.0416667" stop-color="white" stop-opacity="0.235294"/>
<stop offset="0.958333" stop-color="white" stop-opacity="0.156863"/>
<stop offset="1" stop-color="white" stop-opacity="0.392157"/>
</linearGradient>
<linearGradient id="paint5_linear_677_234" x1="7.52565" y1="6.00513" x2="12.7657" y2="13.4499" gradientUnits="userSpaceOnUse">
<stop offset="0.389307" stop-color="#FF698A"/>
<stop offset="1" stop-color="#79EBFF"/>
</linearGradient>
<linearGradient id="paint6_linear_677_234" x1="7.00659" y1="7.00522" x2="12.5066" y2="13.0052" gradientUnits="userSpaceOnUse">
<stop stop-color="white" stop-opacity="0.75"/>
<stop offset="1" stop-color="white" stop-opacity="0"/>
</linearGradient>
<linearGradient id="paint7_linear_677_234" x1="12.138" y1="7.02314" x2="11.1198" y2="8.39655" gradientUnits="userSpaceOnUse">
<stop offset="0.479901" stop-color="#F9F5AB"/>
<stop offset="1" stop-color="white" stop-opacity="0.5"/>
</linearGradient>
<linearGradient id="paint8_linear_677_234" x1="7.04765" y1="6.94912" x2="13.135" y2="12.5005" gradientUnits="userSpaceOnUse">
<stop stop-color="white"/>
<stop offset="0.5" stop-color="white" stop-opacity="0"/>
<stop offset="1" stop-color="#99E9FF"/>
</linearGradient>
<linearGradient id="paint9_linear_677_234" x1="13.1055" y1="11.0937" x2="12.4098" y2="11.0403" gradientUnits="userSpaceOnUse">
<stop stop-color="#D7F9FF"/>
<stop offset="1" stop-color="#D7F9FF" stop-opacity="0"/>
</linearGradient>
<linearGradient id="paint10_linear_677_234" x1="7.43436" y1="8.18978" x2="8.88217" y2="9.4124" gradientUnits="userSpaceOnUse">
<stop stop-color="white"/>
<stop offset="1" stop-color="white" stop-opacity="0"/>
</linearGradient>
</defs>
</svg>
