# Blender 4.2.3 LTS
# www.blender.org
mtllib sand_stone_north_door.mtl
o Plane
v 0.500000 0.750000 0.500000
v 0.500000 -1.000000 0.500000
v 0.500000 0.750000 -0.500000
v 0.500000 -1.000000 -0.500000
v 0.438000 0.750000 0.500000
v 0.438000 0.750000 -0.500000
v 0.438000 0.813000 0.500000
v 0.438000 0.813000 -0.500000
v 0.368000 0.813000 0.500000
v 0.368000 0.813000 -0.500000
v 0.368000 0.893000 0.500000
v 0.368000 0.893000 -0.500000
v 0.309466 0.893000 0.500000
v 0.309466 0.893000 -0.500000
v 0.309466 0.973000 0.500000
v 0.309466 0.973000 -0.500000
v 0.241466 0.973000 0.500000
v 0.241466 0.973000 -0.500000
v -0.398534 7.503000 0.500000
v -0.398534 7.503000 -0.500000
v 0.501466 7.503000 0.500000
v 0.501466 7.503000 -0.500000
v 0.501466 8.503000 0.500000
v 0.501466 8.503000 -0.500000
v -0.998534 8.503000 0.500000
v -0.998534 8.503000 -0.500000
v 0.132663 1.039229 0.300000
v 0.132663 1.039229 -0.300000
v 0.132663 2.444750 0.300000
v 0.132663 2.444750 -0.300000
v -0.398534 3.286923 0.272094
v -0.398534 3.286923 -0.272094
v -0.398534 5.839285 -0.272094
v -0.398534 5.839285 0.272094
v 0.241466 2.916471 -0.400000
v 0.241466 2.539094 -0.400000
v 0.241466 2.916471 0.400000
v 0.241466 2.539094 0.400000
v 0.301466 2.582729 -0.358525
v 0.301466 2.872837 -0.358525
v 0.301466 2.872837 0.358525
v 0.301466 2.582729 0.358525
v 0.301466 2.539094 -0.400000
v 0.301466 2.916471 -0.400000
v 0.301466 2.916471 0.400000
v 0.301466 2.539094 0.400000
v 0.269110 2.582729 -0.358525
v 0.269110 2.872837 -0.358525
v 0.269110 2.872837 0.358525
v 0.269110 2.582729 0.358525
v -0.998534 -0.997000 0.500000
v -0.998534 -0.997000 -0.500000
v 0.226452 3.003000 0.492493
v 0.241466 2.987986 0.500000
v 0.226452 3.003000 -0.492493
v 0.241466 2.987986 -0.500000
v -0.398534 3.003000 0.500000
v -0.398534 3.003000 0.492493
v -0.398534 3.003000 -0.492493
v -0.398534 3.003000 -0.500000
v 0.241466 2.452633 0.308356
v 0.226466 2.444750 0.300000
v 0.241466 1.024229 0.308323
v 0.226466 1.039229 0.300000
v 0.226466 2.444750 -0.300000
v 0.241466 2.452633 -0.308356
v 0.241466 1.024229 -0.308323
v 0.226466 1.039229 -0.300000
v -0.398534 3.256066 -0.300000
v -0.398534 3.256066 0.300000
v -0.398534 5.870142 -0.300000
v -0.398534 5.870142 0.300000
v -0.374168 3.256066 -0.300000
v -0.374168 3.256066 0.300000
v -0.374168 5.870142 -0.300000
v -0.374168 5.870142 0.300000
v -0.374168 3.286923 -0.272094
v -0.374168 3.286923 0.272094
v -0.374168 5.839285 -0.272094
v -0.374168 5.839285 0.272094
vn 1.0000 -0.0000 -0.0000
vn -0.0000 1.0000 -0.0000
vn -0.0000 -0.0000 -1.0000
vn -0.0000 -0.0000 1.0000
vn 0.0107 0.4557 -0.8901
vn 0.7071 0.7071 -0.0000
vn 0.4652 -0.8852 -0.0000
vn 0.4852 -0.0000 -0.8744
vn 0.4852 -0.0000 0.8744
vn 0.0107 0.4557 0.8901
vn 0.4866 -0.0000 -0.8736
vn 0.4866 -0.0000 0.8736
vt 0.821987 0.210460
vt 0.624912 0.000000
vt 0.821987 0.000000
vt 0.502447 0.934555
vt 0.495465 0.724095
vt 0.502447 0.724095
vt 0.990227 0.229722
vt 0.997322 0.440181
vt 0.990227 0.440181
vt 0.972795 0.210460
vt 0.964912 0.000000
vt 0.972795 0.000000
vt 0.935289 0.000000
vt 0.944299 0.210460
vt 0.935289 0.210460
vt 1.000000 0.210460
vt 0.993408 0.000000
vt 1.000000 0.000000
vt 0.937247 0.229722
vt 0.946257 0.440181
vt 0.937247 0.440181
vt 0.564801 0.871998
vt 0.554237 0.724095
vt 0.564801 0.724095
vt 0.914676 0.001580
vt 0.844294 0.208880
vt 0.844294 0.001580
vt 0.533624 0.724095
vt 0.523060 0.871998
vt 0.523060 0.724095
vt 0.581775 0.657596
vt 0.422233 0.648498
vt 0.561135 0.648498
vt 0.189535 0.999684
vt 0.257103 0.578765
vt 0.329177 0.792381
vt 0.780662 0.440181
vt 0.893277 0.229722
vt 0.893277 0.440181
vt 0.686857 0.755535
vt 0.697420 0.881811
vt 0.686857 0.881811
vt 0.379070 0.473535
vt 0.559253 0.301709
vt 0.604298 0.473535
vt 0.808033 0.459443
vt 0.814789 0.499154
vt 0.808033 0.499154
vt 0.624912 0.524062
vt 0.793833 0.734522
vt 0.624912 0.734522
vt 0.982897 0.524062
vt 0.990555 0.734522
vt 0.982897 0.734522
vt 0.863304 0.489971
vt 0.859660 0.459443
vt 0.863304 0.459443
vt 0.780662 0.459443
vt 0.787419 0.499154
vt 0.780662 0.499154
vt 0.592171 0.892463
vt 0.585414 0.724095
vt 0.592171 0.724095
vt 0.416654 0.883734
vt 0.379070 0.892463
vt 0.383984 0.883734
vt 0.379070 0.724095
vt 0.383984 0.732824
vt 0.416654 0.732824
vt 0.421568 0.892463
vt 0.421568 0.724095
vt 0.442181 0.875005
vt 0.474851 0.724095
vt 0.474851 0.875005
vt 0.718034 0.753784
vt 0.721677 0.904694
vt 0.718034 0.904694
vt 0.839047 0.489971
vt 0.835403 0.459443
vt 0.839047 0.459443
vt 0.581775 0.697308
vt 0.379070 0.704833
vt 0.401593 0.697308
vt 0.914676 0.000000
vt 0.842600 0.000000
vt 0.914676 0.210460
vt 0.914676 0.208880
vt 0.842600 0.210460
vt 0.139642 0.207619
vt 0.067569 0.421235
vt 0.000000 0.000316
vt 0.652267 0.753784
vt 0.654012 0.881818
vt 0.652267 0.883577
vt 0.685165 0.753784
vt 0.424115 0.499766
vt 0.422241 0.498187
vt 0.559253 0.499766
vt 0.561127 0.498187
vt 0.604298 0.492796
vt 0.379070 0.492796
vt 0.559253 0.026630
vt 0.379070 0.000000
vt 0.380761 0.000000
vt 0.936182 0.524062
vt 0.938926 0.799141
vt 0.936182 0.799141
vt 0.966870 0.229722
vt 0.969614 0.498306
vt 0.966870 0.498306
vt 0.913890 0.504801
vt 0.916634 0.229722
vt 0.916634 0.504801
vt 0.631197 0.232969
vt 0.760049 0.229722
vt 0.753764 0.232969
vt 0.753764 0.501553
vt 0.624912 0.504801
vt 0.631197 0.501553
vt 0.760049 0.504801
vt 0.624912 0.229722
vt 0.959539 0.524062
vt 0.962283 0.792647
vt 0.959539 0.792647
vt 0.769284 0.880060
vt 0.766540 0.753784
vt 0.769284 0.753784
vt 0.815992 0.868313
vt 0.813248 0.753784
vt 0.815992 0.753784
vt 0.624912 0.210460
vt 0.495465 0.934555
vt 0.997322 0.229722
vt 0.964912 0.210460
vt 0.944299 0.000000
vt 0.993408 0.210460
vt 0.946257 0.229722
vt 0.554237 0.871998
vt 0.533624 0.871998
vt 0.401593 0.657596
vt 0.358291 0.815848
vt 0.358291 1.000000
vt 0.189535 0.000000
vt 0.358456 0.000000
vt 0.358456 0.105230
vt 0.257103 0.105230
vt 0.351309 0.815848
vt 0.343426 0.809218
vt 0.351309 0.809218
vt 0.336834 0.800800
vt 0.343426 0.800800
vt 0.336834 0.792381
vt 0.329177 0.580345
vt 0.780662 0.229722
vt 0.697420 0.755535
vt 0.424116 0.026630
vt 0.424115 0.301709
vt 0.604298 0.000000
vt 0.814789 0.459443
vt 0.793833 0.524062
vt 0.990555 0.524062
vt 0.859660 0.489971
vt 0.787419 0.459443
vt 0.585414 0.892463
vt 0.442181 0.724095
vt 0.721677 0.753784
vt 0.835403 0.489971
vt 0.604298 0.704833
vt 0.168756 0.000000
vt 0.168756 0.184152
vt 0.161774 0.184152
vt 0.161774 0.190782
vt 0.153891 0.190782
vt 0.153891 0.199200
vt 0.147300 0.199200
vt 0.147300 0.207619
vt 0.139642 0.419655
vt 0.067569 0.894770
vt 0.168921 0.894770
vt 0.168921 1.000000
vt 0.000000 1.000000
vt 0.654012 0.755542
vt 0.685165 0.883563
vt 0.424115 0.647669
vt 0.559253 0.647669
vt 0.602608 0.000000
vt 0.938926 0.524062
vt 0.969614 0.229722
vt 0.913890 0.229722
vt 0.962283 0.524062
vt 0.766540 0.880060
vt 0.813248 0.868313
s 0
usemtl Material.001
f 4/1/1 1/2/1 2/3/1
f 5/4/2 3/5/2 6/6/2
f 7/7/1 6/8/1 8/9/1
f 9/10/2 8/11/2 10/12/2
f 11/13/1 10/14/1 12/15/1
f 13/16/2 12/17/2 14/18/2
f 15/19/1 14/20/1 16/21/1
f 64/22/3 29/23/3 62/24/3
f 59/25/2 53/26/2 55/27/2
f 68/28/4 30/29/4 28/30/4
f 36/31/1 61/32/1 66/33/1
f 52/34/3 60/35/3 18/36/3
f 24/37/1 21/38/1 22/39/1
f 68/40/2 27/41/2 64/42/2
f 19/43/1 71/44/1 20/45/1
f 35/46/3 43/47/3 36/48/3
f 24/49/2 25/50/2 23/51/2
f 16/52/2 17/53/2 15/54/2
f 42/55/3 49/56/3 41/57/3
f 38/58/4 45/59/4 37/60/4
f 37/61/2 44/62/2 35/63/2
f 39/64/1 44/65/1 40/66/1
f 40/66/1 45/67/1 41/68/1
f 42/69/1 43/70/1 39/64/1
f 41/68/1 46/71/1 42/69/1
f 48/72/1 50/73/1 47/74/1
f 39/75/2 50/76/2 42/77/2
f 40/78/4 47/79/4 39/80/4
f 35/81/1 54/82/1 37/83/1
f 60/84/5 55/27/5 56/85/5
f 57/86/2 53/26/2 58/87/2
f 55/27/6 54/88/6 56/85/6
f 17/89/4 57/90/4 51/91/4
f 61/92/7 65/93/7 66/94/7
f 64/42/6 67/95/6 68/40/6
f 64/96/8 61/32/8 63/97/8
f 66/33/9 68/98/9 67/99/9
f 18/100/1 63/97/1 17/101/1
f 69/102/1 57/103/1 58/104/1
f 71/105/3 73/106/3 69/107/3
f 34/108/3 78/109/3 31/110/3
f 72/111/4 74/112/4 76/113/4
f 78/114/1 73/115/1 77/116/1
f 79/117/1 76/118/1 80/119/1
f 77/116/1 75/120/1 79/117/1
f 80/119/1 74/121/1 78/114/1
f 32/122/4 79/123/4 33/124/4
f 72/125/2 75/126/2 71/127/2
f 31/128/2 77/129/2 32/130/2
f 4/1/1 3/131/1 1/2/1
f 5/4/2 1/132/2 3/5/2
f 7/7/1 5/133/1 6/8/1
f 9/10/2 7/134/2 8/11/2
f 11/13/1 9/135/1 10/14/1
f 13/16/2 11/136/2 12/17/2
f 15/19/1 13/137/1 14/20/1
f 64/22/3 27/138/3 29/23/3
f 59/25/2 58/87/2 53/26/2
f 68/28/4 65/139/4 30/29/4
f 36/31/1 38/140/1 61/32/1
f 3/141/3 4/142/3 52/34/3
f 26/143/3 24/144/3 22/145/3
f 26/143/3 22/145/3 20/146/3
f 6/147/3 3/141/3 52/34/3
f 10/148/3 8/149/3 6/147/3
f 14/150/3 12/151/3 10/148/3
f 18/36/3 16/152/3 14/150/3
f 60/35/3 56/153/3 18/36/3
f 26/143/3 20/146/3 60/35/3
f 10/148/3 6/147/3 52/34/3
f 18/36/3 14/150/3 10/148/3
f 52/34/3 26/143/3 60/35/3
f 18/36/3 10/148/3 52/34/3
f 24/37/1 23/154/1 21/38/1
f 68/40/2 28/155/2 27/41/2
f 19/43/1 57/103/1 70/156/1
f 19/43/1 70/156/1 72/157/1
f 69/102/1 60/158/1 20/45/1
f 19/43/1 72/157/1 71/44/1
f 71/44/1 69/102/1 20/45/1
f 35/46/3 44/159/3 43/47/3
f 24/49/2 26/160/2 25/50/2
f 16/52/2 18/161/2 17/53/2
f 42/55/3 50/162/3 49/56/3
f 38/58/4 46/163/4 45/59/4
f 37/61/2 45/164/2 44/62/2
f 39/64/1 43/70/1 44/65/1
f 40/66/1 44/65/1 45/67/1
f 42/69/1 46/71/1 43/70/1
f 41/68/1 45/67/1 46/71/1
f 48/72/1 49/165/1 50/73/1
f 39/75/2 47/166/2 50/76/2
f 40/78/4 48/167/4 47/79/4
f 35/81/1 56/168/1 54/82/1
f 60/84/2 59/25/2 55/27/2
f 57/86/10 54/88/10 53/26/10
f 55/27/6 53/26/6 54/88/6
f 2/169/4 1/170/4 5/171/4
f 5/171/4 7/172/4 9/173/4
f 9/173/4 11/174/4 13/175/4
f 13/175/4 15/176/4 17/89/4
f 17/89/4 54/177/4 57/90/4
f 19/178/4 21/179/4 23/180/4
f 19/178/4 23/180/4 25/181/4
f 51/91/4 2/169/4 5/171/4
f 9/173/4 13/175/4 17/89/4
f 51/91/4 5/171/4 9/173/4
f 19/178/4 25/181/4 51/91/4
f 57/90/4 19/178/4 51/91/4
f 51/91/4 9/173/4 17/89/4
f 61/92/7 62/182/7 65/93/7
f 64/42/6 63/183/6 67/95/6
f 64/96/11 62/184/11 61/32/11
f 66/33/12 65/185/12 68/98/12
f 18/100/1 56/168/1 35/81/1
f 36/31/1 66/33/1 67/99/1
f 18/100/1 35/81/1 36/31/1
f 37/83/1 54/82/1 17/101/1
f 63/97/1 61/32/1 38/140/1
f 38/140/1 37/83/1 17/101/1
f 18/100/1 36/31/1 67/99/1
f 63/97/1 38/140/1 17/101/1
f 18/100/1 67/99/1 63/97/1
f 59/186/1 60/158/1 69/102/1
f 69/102/1 70/156/1 57/103/1
f 58/104/1 59/186/1 69/102/1
f 71/105/3 75/187/3 73/106/3
f 34/108/3 80/188/3 78/109/3
f 72/111/4 70/189/4 74/112/4
f 78/114/1 74/121/1 73/115/1
f 79/117/1 75/120/1 76/118/1
f 77/116/1 73/115/1 75/120/1
f 80/119/1 76/118/1 74/121/1
f 32/122/4 77/190/4 79/123/4
f 72/125/2 76/191/2 75/126/2
f 31/128/2 78/192/2 77/129/2
o Plane.001
v -0.398534 3.286923 0.272094
v -0.398534 3.286923 -0.272094
v -0.398534 5.839285 -0.272094
v -0.398534 5.839285 0.272094
vn 1.0000 -0.0000 -0.0000
vt 1.000000 0.000000
vt 0.000000 1.000000
vt 0.000000 0.000000
vt 1.000000 1.000000
s 0
f 82/193/13 84/194/13 81/195/13
f 82/193/13 83/196/13 84/194/13
o Plane.002
v 0.132663 1.039229 0.300000
v 0.132663 1.039229 -0.300000
v 0.132663 2.444750 0.300000
v 0.132663 2.444750 -0.300000
vn 1.0000 -0.0000 -0.0000
vt 1.000000 0.000000
vt 0.000000 1.000000
vt 0.000000 0.000000
vt 1.000000 1.000000
s 0
f 86/197/14 87/198/14 85/199/14
f 86/197/14 88/200/14 87/198/14
