# Blender 4.2.2 LTS
# www.blender.org
o Plane.001
v -1.000000 8.500000 0.500000
v -1.000000 0.000000 0.500000
v -1.000000 8.500000 -1.000000
v -1.000000 0.000000 -1.000000
v 0.500000 8.500000 -1.000000
v 0.500000 0.000000 -1.000000
v -1.000000 0.750000 0.500000
v 0.500000 0.750000 0.500000
v -1.000000 0.750000 -1.000000
v 0.500000 0.750000 -1.000000
v -1.000000 8.500000 0.500000
v 0.500000 8.500000 0.500000
v -1.000000 8.500000 -23.000000
v 0.500000 8.500000 -23.000000
vn 1.0000 -0.0000 -0.0000
vn -0.0000 -0.0000 1.0000
vn -0.0000 1.0000 -0.0000
vt 0.343226 1.000000
vt 0.343226 0.000000
vt 0.656774 0.000000
vt 0.656774 1.000000
vt 0.000000 1.000000
vt 0.000000 0.000000
vt 0.313548 0.000000
vt 0.313548 1.000000
vt 0.686452 0.176471
vt 0.686452 0.000000
vt 1.000000 0.000000
vt 1.000000 0.176471
vt 0.686452 0.369645
vt 0.686452 0.193174
vt 1.000000 0.193174
vt 1.000000 0.369645
s 0
f 1/1/1 2/2/1 4/3/1 3/4/1
f 3/5/2 4/6/2 6/7/2 5/8/2
f 7/9/3 8/10/3 10/11/3 9/12/3
f 11/13/3 12/14/3 14/15/3 13/16/3
