# Blender 4.2.2 LTS
# www.blender.org
o Cube.001
v -0.500000 8.500000 0.500000
v -0.500000 8.500000 -0.500000
v 0.500000 7.500000 0.500000
v 0.500000 7.500000 -0.500000
v 0.500000 8.489990 0.500000
v 0.489991 8.500000 0.500000
v 0.489991 8.500000 -0.500000
v 0.500000 8.489990 -0.500000
v -0.500000 0.749619 0.500000
v -0.500000 0.749619 -0.500000
v 0.500000 -0.750381 0.500000
v 0.500000 -0.750381 -0.500000
v 0.500000 0.734385 0.500000
v 0.489844 0.749619 0.500000
v 0.489844 0.749619 -0.500000
v 0.500000 0.734385 -0.500000
vn 1.0000 -0.0000 -0.0000
vn 0.7071 0.7071 -0.0000
vn -0.0000 1.0000 -0.0000
vn 0.8321 0.5547 -0.0000
vt 0.427507 0.792723
vt 0.427507 0.405132
vt 0.819017 0.405132
vt 0.819017 0.792723
vt 0.427507 0.399590
vt 0.819017 0.399590
vt 0.427507 0.011999
vt 0.819017 0.011999
vt 0.403509 0.011999
vt 0.403509 0.593299
vt 0.011999 0.593299
vt 0.011999 0.011999
vt 0.403509 0.600467
vt 0.011999 0.600467
vt 0.403509 0.988001
vt 0.011999 0.988001
s 0
f 4/1/1 8/2/1 5/3/1 3/4/1
f 7/5/2 6/6/2 5/3/2 8/2/2
f 7/5/3 2/7/3 1/8/3 6/6/3
f 12/9/1 16/10/1 13/11/1 11/12/1
f 15/13/4 14/14/4 13/11/4 16/10/4
f 15/13/3 10/15/3 9/16/3 14/14/3
