{"accessors":[{"bufferView":0,"byteOffset":0,"componentType":5126,"count":24,"max":[0.5,0.75,0.5],"min":[-0.5,-0.75,-0.5],"normalized":false,"type":"VEC3"},{"bufferView":1,"byteOffset":0,"componentType":5126,"count":24,"max":[1,0,1,1],"min":[-1,-0.00001525925472,-1,1],"normalized":false,"type":"VEC4"},{"bufferView":2,"byteOffset":0,"componentType":5126,"count":24,"max":[1,1,1],"min":[-1,-1,-1],"normalized":false,"type":"VEC3"},{"bufferView":3,"byteOffset":0,"componentType":5126,"count":24,"max":[1,1],"min":[0,0],"normalized":false,"type":"VEC2"},{"bufferView":4,"byteOffset":0,"componentType":5123,"count":36,"max":[23],"min":[0],"normalized":false,"type":"SCALAR"},{"bufferView":5,"byteOffset":0,"componentType":5126,"count":879,"max":[0.436988770961761,8.50327491760254,0.5],"min":[-1.00138056278229,-0.00000001490116,-0.50000005960464],"normalized":false,"type":"VEC3"},{"bufferView":6,"byteOffset":0,"componentType":5126,"count":879,"max":[0.00318391714245081,0.000123871606774628,0.0000763009302318096,1],"min":[-1,-1,-1,-1],"normalized":false,"type":"VEC4"},{"bufferView":7,"byteOffset":0,"componentType":5126,"count":879,"max":[1,1,1],"min":[-1,-1,-1],"normalized":false,"type":"VEC3"},{"bufferView":8,"byteOffset":0,"componentType":5126,"count":879,"max":[1,1],"min":[0,0],"normalized":false,"type":"VEC2"},{"bufferView":9,"byteOffset":0,"componentType":5123,"count":879,"max":[878],"min":[0],"normalized":false,"type":"SCALAR"},{"bufferView":10,"byteOffset":0,"componentType":5126,"count":24,"max":[0.5,0.5,0.5],"min":[-0.5,-0.5,-0.5],"normalized":false,"type":"VEC3"},{"bufferView":11,"byteOffset":0,"componentType":5126,"count":24,"max":[1,0,1,1],"min":[-1,-0.00001525925472,-1,1],"normalized":false,"type":"VEC4"},{"bufferView":12,"byteOffset":0,"componentType":5126,"count":24,"max":[1,1,1],"min":[-1,-1,-1],"normalized":false,"type":"VEC3"},{"bufferView":13,"byteOffset":0,"componentType":5126,"count":24,"max":[1,1],"min":[0,0],"normalized":false,"type":"VEC2"},{"bufferView":14,"byteOffset":0,"componentType":5123,"count":36,"max":[23],"min":[0],"normalized":false,"type":"SCALAR"},{"bufferView":15,"byteOffset":0,"componentType":5126,"count":4,"max":[0,2,0.5],"min":[0,-2,-0.5],"normalized":false,"type":"VEC3"},{"bufferView":16,"byteOffset":0,"componentType":5126,"count":4,"max":[0,0,-1,1],"min":[0,0,-1,1],"normalized":false,"type":"VEC4"},{"bufferView":17,"byteOffset":0,"componentType":5126,"count":4,"max":[1,0,-0.00001525902189],"min":[1,0,-0.00001525902189],"normalized":false,"type":"VEC3"},{"bufferView":18,"byteOffset":0,"componentType":5126,"count":4,"max":[1,1],"min":[0,0],"normalized":false,"type":"VEC2"},{"bufferView":19,"byteOffset":0,"componentType":5123,"count":6,"max":[3],"min":[0],"normalized":false,"type":"SCALAR"}],"asset":{"generator":"Godot Engine v4.3.stable.mono.official@77dcf97d82cbfe4e4615475fa52ca03da645dbd8","version":"2.0"},"bufferViews":[{"buffer":0,"byteLength":288,"byteOffset":0,"byteStride":12,"target":34962},{"buffer":0,"byteLength":384,"byteOffset":288,"byteStride":16,"target":34962},{"buffer":0,"byteLength":288,"byteOffset":672,"byteStride":12,"target":34962},{"buffer":0,"byteLength":192,"byteOffset":960,"byteStride":8,"target":34962},{"buffer":0,"byteLength":72,"byteOffset":1152,"target":34963},{"buffer":0,"byteLength":10548,"byteOffset":1224,"byteStride":12,"target":34962},{"buffer":0,"byteLength":14064,"byteOffset":11772,"byteStride":16,"target":34962},{"buffer":0,"byteLength":10548,"byteOffset":25836,"byteStride":12,"target":34962},{"buffer":0,"byteLength":7032,"byteOffset":36384,"byteStride":8,"target":34962},{"buffer":0,"byteLength":1758,"byteOffset":43416,"target":34963},{"buffer":0,"byteLength":288,"byteOffset":45176,"byteStride":12,"target":34962},{"buffer":0,"byteLength":384,"byteOffset":45464,"byteStride":16,"target":34962},{"buffer":0,"byteLength":288,"byteOffset":45848,"byteStride":12,"target":34962},{"buffer":0,"byteLength":192,"byteOffset":46136,"byteStride":8,"target":34962},{"buffer":0,"byteLength":72,"byteOffset":46328,"target":34963},{"buffer":0,"byteLength":48,"byteOffset":46400,"byteStride":12,"target":34962},{"buffer":0,"byteLength":64,"byteOffset":46448,"byteStride":16,"target":34962},{"buffer":0,"byteLength":48,"byteOffset":46512,"byteStride":12,"target":34962},{"buffer":0,"byteLength":32,"byteOffset":46560,"byteStride":8,"target":34962},{"buffer":0,"byteLength":12,"byteOffset":46592,"target":34963}],"buffers":[{"byteLength":46604,"uri":"sand_stone_north_door0.bin"}],"extensions":{"KHR_lights_punctual":{"lights":[{"color":[1,1,1],"intensity":2,"range":7.7979998588562,"spot":{"innerConeAngle":0.764263808727264,"outerConeAngle":0.934100210666656},"type":"spot"}]}},"extensionsUsed":["GODOT_single_root","KHR_lights_punctual","KHR_materials_emissive_strength"],"materials":[{"extensions":{},"pbrMetallicRoughness":{"baseColorFactor":[0.99999988079071,0.99999988079071,0.99999988079071,1],"metallicFactor":0,"roughnessFactor":1}},{"extensions":{},"pbrMetallicRoughness":{"baseColorFactor":[0.99999988079071,0.99999988079071,0.99999988079071,1],"metallicFactor":0,"roughnessFactor":1}},{"extensions":{},"pbrMetallicRoughness":{"baseColorFactor":[0.99999988079071,0.99999988079071,0.99999988079071,1],"metallicFactor":0,"roughnessFactor":1}},{"emissiveFactor":[0.999999940395355,0.999999940395355,0.999999940395355],"extensions":{"KHR_materials_emissive_strength":{"emissiveStrength":3}},"pbrMetallicRoughness":{"baseColorFactor":[0.99999988079071,0.99999988079071,0.99999988079071,1],"metallicFactor":0,"roughnessFactor":1}}],"meshes":[{"extras":{"targetNames":[]},"primitives":[{"attributes":{"NORMAL":2,"POSITION":0,"TANGENT":1,"TEXCOORD_0":3},"indices":4,"material":0,"mode":4}]},{"extras":{"targetNames":[]},"primitives":[{"attributes":{"NORMAL":7,"POSITION":5,"TANGENT":6,"TEXCOORD_0":8},"indices":9,"material":1,"mode":4}]},{"extras":{"targetNames":[]},"primitives":[{"attributes":{"NORMAL":12,"POSITION":10,"TANGENT":11,"TEXCOORD_0":13},"indices":14,"material":2,"mode":4}]},{"extras":{"targetNames":[]},"primitives":[{"attributes":{"NORMAL":17,"POSITION":15,"TANGENT":16,"TEXCOORD_0":18},"indices":19,"material":3,"mode":4}]}],"nodes":[{"children":[1,10,11],"mesh":0,"name":"SandStoneNorthDoor"},{"children":[2,3,4,5,6,7,8,9],"mesh":1,"name":"CSGCombiner3D2"},{"name":"CSGBox3D","translation":[-0.37982898950577,1.5,0]},{"name":"CSGBox3D8","translation":[-0.69902002811432,5.74426984786987,0]},{"name":"CSGBox3D2","translation":[-0.56408697366714,1.74102997779846,0]},{"name":"CSGBox3D5","translation":[-0.16754400730133,2.73123002052307,0]},{"name":"CSGBox3D6","translation":[0.304185003042221,2.73123002052307,0]},{"name":"CSGBox3D3","translation":[0.251480013132095,0.848560988903046,0]},{"name":"CSGBox3D4","translation":[0.342070013284683,0.811544001102448,0]},{"name":"CSGBox3D7","translation":[0.400999009609222,0.770986020565033,0]},{"mesh":2,"name":"MeshInstance3D2","translation":[0,8,0]},{"children":[12],"mesh":3,"name":"MeshInstance3D","translation":[0.137696996331215,0.878825008869171,0]},{"extensions":{"KHR_lights_punctual":{"light":0}},"name":"OmniLight3D","rotation":[-0.09229593724012,-0.70105743408203,-0.09229593724012,0.701057374477386],"translation":[-0.54205399751663,1.18614995479584,-0.000000133878]}],"scene":0,"scenes":[{"nodes":[0]}]}