{"accessors":[{"bufferView":0,"byteOffset":0,"componentType":5126,"count":24,"max":[0.5,0.75,0.5],"min":[-0.5,-0.75,-0.5],"normalized":false,"type":"VEC3"},{"bufferView":1,"byteOffset":0,"componentType":5126,"count":24,"max":[1,0,1,1],"min":[-1,-0.00001525925472,-1,1],"normalized":false,"type":"VEC4"},{"bufferView":2,"byteOffset":0,"componentType":5126,"count":24,"max":[1,1,1],"min":[-1,-1,-1],"normalized":false,"type":"VEC3"},{"bufferView":3,"byteOffset":0,"componentType":5126,"count":24,"max":[1,1],"min":[0,0],"normalized":false,"type":"VEC2"},{"bufferView":4,"byteOffset":0,"componentType":5123,"count":36,"max":[23],"min":[0],"normalized":false,"type":"SCALAR"},{"bufferView":5,"byteOffset":0,"componentType":5126,"count":24,"max":[0.0500000007450581,10,11],"min":[-0.05000000074506,-10,-11],"normalized":false,"type":"VEC3"},{"bufferView":6,"byteOffset":0,"componentType":5126,"count":24,"max":[1,0,1,1],"min":[-1,-0.00001525925472,-1,1],"normalized":false,"type":"VEC4"},{"bufferView":7,"byteOffset":0,"componentType":5126,"count":24,"max":[1,1,1],"min":[-1,-1,-1],"normalized":false,"type":"VEC3"},{"bufferView":8,"byteOffset":0,"componentType":5126,"count":24,"max":[1,1],"min":[0,0],"normalized":false,"type":"VEC2"},{"bufferView":9,"byteOffset":0,"componentType":5123,"count":36,"max":[23],"min":[0],"normalized":false,"type":"SCALAR"},{"bufferView":10,"byteOffset":0,"componentType":5126,"count":24,"max":[0.159999996423721,10,0.197500005364418],"min":[-0.15999999642372,-10,-0.19750000536442],"normalized":false,"type":"VEC3"},{"bufferView":11,"byteOffset":0,"componentType":5126,"count":24,"max":[1,0,1,1],"min":[-1,-0.00001525925472,-1,1],"normalized":false,"type":"VEC4"},{"bufferView":12,"byteOffset":0,"componentType":5126,"count":24,"max":[1,1,1],"min":[-1,-1,-1],"normalized":false,"type":"VEC3"},{"bufferView":13,"byteOffset":0,"componentType":5126,"count":24,"max":[1,1],"min":[0,0],"normalized":false,"type":"VEC2"},{"bufferView":14,"byteOffset":0,"componentType":5123,"count":36,"max":[23],"min":[0],"normalized":false,"type":"SCALAR"},{"bufferView":15,"byteOffset":0,"componentType":5126,"count":16,"max":[0.159999996423721,10,0.197500005364418],"min":[-0.15999999642372,-9.28606033325195,-0.19750000536442],"normalized":false,"type":"VEC3"},{"bufferView":16,"byteOffset":0,"componentType":5126,"count":16,"max":[1,0.0000152590218931437,0.000047936900955392,1],"min":[-1,-0.00003045622725,-1,1],"normalized":false,"type":"VEC4"},{"bufferView":17,"byteOffset":0,"componentType":5126,"count":16,"max":[1,1,1],"min":[-0.00004793690096,-0.00003051804379,-1],"normalized":false,"type":"VEC3"},{"bufferView":18,"byteOffset":0,"componentType":5126,"count":16,"max":[1,1],"min":[0,0],"normalized":false,"type":"VEC2"},{"bufferView":19,"byteOffset":0,"componentType":5123,"count":24,"max":[15],"min":[0],"normalized":false,"type":"SCALAR"},{"bufferView":20,"byteOffset":0,"componentType":5126,"count":16,"max":[1,1,1],"min":[-1,-1,-1],"normalized":false,"type":"VEC3"},{"bufferView":21,"byteOffset":0,"componentType":5126,"count":16,"max":[-0.00000002980232,-0.00003045622725,1,1],"min":[-1,-0.70717823505402,-0.00003057986032,1],"normalized":false,"type":"VEC4"},{"bufferView":22,"byteOffset":0,"componentType":5126,"count":16,"max":[1,1,0.000103205442428589],"min":[-0.70717829465866,-0.00003057986396,-0.00000002980233],"normalized":false,"type":"VEC3"},{"bufferView":23,"byteOffset":0,"componentType":5126,"count":16,"max":[0.998916625976563,0.998916625976563],"min":[0.00106813153252006,0.410955965518951],"normalized":false,"type":"VEC2"},{"bufferView":24,"byteOffset":0,"componentType":5123,"count":24,"max":[15],"min":[0],"normalized":false,"type":"SCALAR"},{"bufferView":25,"byteOffset":0,"componentType":5126,"count":1494,"max":[-0.74293553829193,0.148516565561295,0.499219357967377],"min":[-2.09844350814819,-0.09708110243082,-0.49921935796738],"normalized":false,"type":"VEC3"},{"bufferView":26,"byteOffset":0,"componentType":5126,"count":1494,"max":[1,1.00000011920929,1.00000011920929,1],"min":[-1,-1.00000011920929,-1,1],"normalized":false,"type":"VEC4"},{"bufferView":27,"byteOffset":0,"componentType":5126,"count":1494,"max":[1,1,1],"min":[-1,-1,-1],"normalized":false,"type":"VEC3"},{"bufferView":28,"byteOffset":0,"componentType":5126,"count":1494,"max":[0.994003176689148,0.994003176689148],"min":[0.00598153658211231,0.018829632550478],"normalized":false,"type":"VEC2"},{"bufferView":29,"byteOffset":0,"componentType":5123,"count":3006,"max":[1323],"min":[0],"normalized":false,"type":"SCALAR"},{"bufferView":30,"byteOffset":0,"componentType":5126,"count":4,"max":[1,0,1],"min":[-1,0,-1],"normalized":false,"type":"VEC3"},{"bufferView":31,"byteOffset":0,"componentType":5126,"count":4,"max":[1,0.0000152590218931437,-0.00001525865719,1],"min":[1,0.0000152590218931437,-0.00001525865719,1],"normalized":false,"type":"VEC4"},{"bufferView":32,"byteOffset":0,"componentType":5126,"count":4,"max":[-0.00001525865719,1,0.0000239175878959941],"min":[-0.00001525865719,1,0.0000239175878959941],"normalized":false,"type":"VEC3"},{"bufferView":33,"byteOffset":0,"componentType":5126,"count":4,"max":[1,1],"min":[0,0],"normalized":false,"type":"VEC2"},{"bufferView":34,"byteOffset":0,"componentType":5123,"count":6,"max":[3],"min":[0],"normalized":false,"type":"SCALAR"},{"bufferView":35,"byteOffset":0,"componentType":5126,"count":4,"max":[1,0,0.5],"min":[-1,0,-0.5],"normalized":false,"type":"VEC3"},{"bufferView":36,"byteOffset":0,"componentType":5126,"count":4,"max":[1,0.0000152590218931437,-0.00001525865719,1],"min":[1,0.0000152590218931437,-0.00001525865719,1],"normalized":false,"type":"VEC4"},{"bufferView":37,"byteOffset":0,"componentType":5126,"count":4,"max":[-0.00001525865719,1,0.0000239175878959941],"min":[-0.00001525865719,1,0.0000239175878959941],"normalized":false,"type":"VEC3"},{"bufferView":38,"byteOffset":0,"componentType":5126,"count":4,"max":[1,1],"min":[0,0],"normalized":false,"type":"VEC2"},{"bufferView":39,"byteOffset":0,"componentType":5123,"count":6,"max":[3],"min":[0],"normalized":false,"type":"SCALAR"},{"bufferView":40,"byteOffset":0,"componentType":5126,"count":40,"max":[-0.75,0.500000476837158,1],"min":[-8.5,-0.5,-1],"normalized":false,"type":"VEC3"},{"bufferView":41,"byteOffset":0,"componentType":5126,"count":40,"max":[0.0001220703125,1,1,1],"min":[-0.00007192691555,-1.00000011920929,-1,-1],"normalized":false,"type":"VEC4"},{"bufferView":42,"byteOffset":0,"componentType":5126,"count":40,"max":[0.0000736713409423828,1,1],"min":[-1,-0.00011929869652,-1],"normalized":false,"type":"VEC3"},{"bufferView":43,"byteOffset":0,"componentType":5126,"count":40,"max":[1,1],"min":[0,0],"normalized":false,"type":"VEC2"},{"bufferView":44,"byteOffset":0,"componentType":5123,"count":60,"max":[39],"min":[0],"normalized":false,"type":"SCALAR"},{"bufferView":45,"byteOffset":0,"componentType":5126,"count":4,"max":[0,3.5,0.75],"min":[0,-3.5,-0.75],"normalized":false,"type":"VEC3"},{"bufferView":46,"byteOffset":0,"componentType":5126,"count":4,"max":[0,0,-1,1],"min":[0,0,-1,1],"normalized":false,"type":"VEC4"},{"bufferView":47,"byteOffset":0,"componentType":5126,"count":4,"max":[1,0,-0.00001525902189],"min":[1,0,-0.00001525902189],"normalized":false,"type":"VEC3"},{"bufferView":48,"byteOffset":0,"componentType":5126,"count":4,"max":[1,1],"min":[0,0],"normalized":false,"type":"VEC2"},{"bufferView":49,"byteOffset":0,"componentType":5123,"count":6,"max":[3],"min":[0],"normalized":false,"type":"SCALAR"},{"bufferView":50,"byteOffset":0,"componentType":5126,"count":24,"max":[0.5,0.5,0.5],"min":[-0.5,-0.5,-0.5],"normalized":false,"type":"VEC3"},{"bufferView":51,"byteOffset":0,"componentType":5126,"count":24,"max":[1,0,1,1],"min":[-1,-0.00001525925472,-1,1],"normalized":false,"type":"VEC4"},{"bufferView":52,"byteOffset":0,"componentType":5126,"count":24,"max":[1,1,1],"min":[-1,-1,-1],"normalized":false,"type":"VEC3"},{"bufferView":53,"byteOffset":0,"componentType":5126,"count":24,"max":[1,1],"min":[0,0],"normalized":false,"type":"VEC2"},{"bufferView":54,"byteOffset":0,"componentType":5123,"count":36,"max":[23],"min":[0],"normalized":false,"type":"SCALAR"}],"asset":{"generator":"Godot Engine v4.3.stable.mono.official@77dcf97d82cbfe4e4615475fa52ca03da645dbd8","version":"2.0"},"bufferViews":[{"buffer":0,"byteLength":288,"byteOffset":0,"byteStride":12,"target":34962},{"buffer":0,"byteLength":384,"byteOffset":288,"byteStride":16,"target":34962},{"buffer":0,"byteLength":288,"byteOffset":672,"byteStride":12,"target":34962},{"buffer":0,"byteLength":192,"byteOffset":960,"byteStride":8,"target":34962},{"buffer":0,"byteLength":72,"byteOffset":1152,"target":34963},{"buffer":0,"byteLength":288,"byteOffset":1224,"byteStride":12,"target":34962},{"buffer":0,"byteLength":384,"byteOffset":1512,"byteStride":16,"target":34962},{"buffer":0,"byteLength":288,"byteOffset":1896,"byteStride":12,"target":34962},{"buffer":0,"byteLength":192,"byteOffset":2184,"byteStride":8,"target":34962},{"buffer":0,"byteLength":72,"byteOffset":2376,"target":34963},{"buffer":0,"byteLength":288,"byteOffset":2448,"byteStride":12,"target":34962},{"buffer":0,"byteLength":384,"byteOffset":2736,"byteStride":16,"target":34962},{"buffer":0,"byteLength":288,"byteOffset":3120,"byteStride":12,"target":34962},{"buffer":0,"byteLength":192,"byteOffset":3408,"byteStride":8,"target":34962},{"buffer":0,"byteLength":72,"byteOffset":3600,"target":34963},{"buffer":0,"byteLength":192,"byteOffset":3672,"byteStride":12,"target":34962},{"buffer":0,"byteLength":256,"byteOffset":3864,"byteStride":16,"target":34962},{"buffer":0,"byteLength":192,"byteOffset":4120,"byteStride":12,"target":34962},{"buffer":0,"byteLength":128,"byteOffset":4312,"byteStride":8,"target":34962},{"buffer":0,"byteLength":48,"byteOffset":4440,"target":34963},{"buffer":0,"byteLength":192,"byteOffset":4488,"byteStride":12,"target":34962},{"buffer":0,"byteLength":256,"byteOffset":4680,"byteStride":16,"target":34962},{"buffer":0,"byteLength":192,"byteOffset":4936,"byteStride":12,"target":34962},{"buffer":0,"byteLength":128,"byteOffset":5128,"byteStride":8,"target":34962},{"buffer":0,"byteLength":48,"byteOffset":5256,"target":34963},{"buffer":0,"byteLength":17928,"byteOffset":5304,"byteStride":12,"target":34962},{"buffer":0,"byteLength":23904,"byteOffset":23232,"byteStride":16,"target":34962},{"buffer":0,"byteLength":17928,"byteOffset":47136,"byteStride":12,"target":34962},{"buffer":0,"byteLength":11952,"byteOffset":65064,"byteStride":8,"target":34962},{"buffer":0,"byteLength":6012,"byteOffset":77016,"target":34963},{"buffer":0,"byteLength":48,"byteOffset":83028,"byteStride":12,"target":34962},{"buffer":0,"byteLength":64,"byteOffset":83076,"byteStride":16,"target":34962},{"buffer":0,"byteLength":48,"byteOffset":83140,"byteStride":12,"target":34962},{"buffer":0,"byteLength":32,"byteOffset":83188,"byteStride":8,"target":34962},{"buffer":0,"byteLength":12,"byteOffset":83220,"target":34963},{"buffer":0,"byteLength":48,"byteOffset":83232,"byteStride":12,"target":34962},{"buffer":0,"byteLength":64,"byteOffset":83280,"byteStride":16,"target":34962},{"buffer":0,"byteLength":48,"byteOffset":83344,"byteStride":12,"target":34962},{"buffer":0,"byteLength":32,"byteOffset":83392,"byteStride":8,"target":34962},{"buffer":0,"byteLength":12,"byteOffset":83424,"target":34963},{"buffer":0,"byteLength":480,"byteOffset":83436,"byteStride":12,"target":34962},{"buffer":0,"byteLength":640,"byteOffset":83916,"byteStride":16,"target":34962},{"buffer":0,"byteLength":480,"byteOffset":84556,"byteStride":12,"target":34962},{"buffer":0,"byteLength":320,"byteOffset":85036,"byteStride":8,"target":34962},{"buffer":0,"byteLength":120,"byteOffset":85356,"target":34963},{"buffer":0,"byteLength":48,"byteOffset":85476,"byteStride":12,"target":34962},{"buffer":0,"byteLength":64,"byteOffset":85524,"byteStride":16,"target":34962},{"buffer":0,"byteLength":48,"byteOffset":85588,"byteStride":12,"target":34962},{"buffer":0,"byteLength":32,"byteOffset":85636,"byteStride":8,"target":34962},{"buffer":0,"byteLength":12,"byteOffset":85668,"target":34963},{"buffer":0,"byteLength":288,"byteOffset":85680,"byteStride":12,"target":34962},{"buffer":0,"byteLength":384,"byteOffset":85968,"byteStride":16,"target":34962},{"buffer":0,"byteLength":288,"byteOffset":86352,"byteStride":12,"target":34962},{"buffer":0,"byteLength":192,"byteOffset":86640,"byteStride":8,"target":34962},{"buffer":0,"byteLength":72,"byteOffset":86832,"target":34963}],"buffers":[{"byteLength":86904,"uri":"sand_stone_south_east_corner0.bin"}],"extensionsUsed":["GODOT_single_root"],"images":[{"uri":"textures%2F_albedo000.png"},{"uri":"textures%2F_orm000.png"},{"uri":"textures%2F_albedo002.png"},{"uri":"textures%2F_orm002.png"},{"uri":"textures%2F_albedo003.png"}],"materials":[{"extensions":{},"pbrMetallicRoughness":{"baseColorFactor":[0.99999988079071,0.99999988079071,0.99999988079071,1],"metallicFactor":0,"roughnessFactor":1}},{"extensions":{},"pbrMetallicRoughness":{"baseColorFactor":[0.99999988079071,0.99999988079071,0.99999988079071,1],"metallicFactor":0,"roughnessFactor":1}},{"extensions":{},"pbrMetallicRoughness":{"baseColorFactor":[0.99999988079071,0.99999988079071,0.99999988079071,1],"metallicFactor":0,"roughnessFactor":1}},{"extensions":{},"pbrMetallicRoughness":{"baseColorFactor":[0.672443687915802,0.38642942905426,0.181164160370827,1],"metallicFactor":0,"roughnessFactor":1}},{"extensions":{},"pbrMetallicRoughness":{"baseColorFactor":[0.99999988079071,0.99999988079071,0.99999988079071,1],"baseColorTexture":{"index":0},"metallicFactor":0,"metallicRoughnessTexture":{"index":1},"roughnessFactor":0.899999976158142}},{"extensions":{},"pbrMetallicRoughness":{"baseColorFactor":[0.99999988079071,0.99999988079071,0.99999988079071,1],"baseColorTexture":{"index":2},"metallicFactor":0,"metallicRoughnessTexture":{"index":3},"roughnessFactor":0.949999988079071}},{"extensions":{},"pbrMetallicRoughness":{"baseColorFactor":[0.99999988079071,0.99999988079071,0.99999988079071,1],"metallicFactor":0,"roughnessFactor":1}},{"extensions":{},"pbrMetallicRoughness":{"baseColorFactor":[0.99999988079071,0.99999988079071,0.99999988079071,1],"baseColorTexture":{"index":4},"metallicFactor":0,"roughnessFactor":1}},{"extensions":{},"pbrMetallicRoughness":{"baseColorFactor":[0.99999988079071,0.99999988079071,0.99999988079071,1],"metallicFactor":0,"roughnessFactor":1}},{"extensions":{},"pbrMetallicRoughness":{"baseColorFactor":[0.99999988079071,0.99999988079071,0.99999988079071,1],"metallicFactor":0,"roughnessFactor":1}}],"meshes":[{"extras":{"targetNames":[]},"primitives":[{"attributes":{"NORMAL":2,"POSITION":0,"TANGENT":1,"TEXCOORD_0":3},"indices":4,"material":0,"mode":4}]},{"extras":{"targetNames":[]},"primitives":[{"attributes":{"NORMAL":7,"POSITION":5,"TANGENT":6,"TEXCOORD_0":8},"indices":9,"material":1,"mode":4}]},{"extras":{"targetNames":[]},"primitives":[{"attributes":{"NORMAL":12,"POSITION":10,"TANGENT":11,"TEXCOORD_0":13},"indices":14,"material":2,"mode":4}]},{"extras":{"targetNames":[]},"primitives":[{"attributes":{"NORMAL":17,"POSITION":15,"TANGENT":16,"TEXCOORD_0":18},"indices":19,"material":3,"mode":4}]},{"extras":{"targetNames":[]},"primitives":[{"attributes":{"NORMAL":22,"POSITION":20,"TANGENT":21,"TEXCOORD_0":23},"indices":24,"material":4,"mode":4}]},{"extras":{"targetNames":[]},"primitives":[{"attributes":{"NORMAL":27,"POSITION":25,"TANGENT":26,"TEXCOORD_0":28},"indices":29,"material":5,"mode":4}]},{"extras":{"targetNames":[]},"primitives":[{"attributes":{"NORMAL":32,"POSITION":30,"TANGENT":31,"TEXCOORD_0":33},"indices":34,"material":3,"mode":4}]},{"extras":{"targetNames":[]},"primitives":[{"attributes":{"NORMAL":37,"POSITION":35,"TANGENT":36,"TEXCOORD_0":38},"indices":39,"material":6,"mode":4}]},{"extras":{"targetNames":[]},"primitives":[{"attributes":{"NORMAL":42,"POSITION":40,"TANGENT":41,"TEXCOORD_0":43},"indices":44,"material":7,"mode":4}]},{"extras":{"targetNames":[]},"primitives":[{"attributes":{"NORMAL":47,"POSITION":45,"TANGENT":46,"TEXCOORD_0":48},"indices":49,"material":8,"mode":4}]},{"extras":{"targetNames":[]},"primitives":[{"attributes":{"NORMAL":52,"POSITION":50,"TANGENT":51,"TEXCOORD_0":53},"indices":54,"material":9,"mode":4}]}],"nodes":[{"children":[1,2,3,9,12],"mesh":0,"name":"Wall"},{"mesh":1,"name":"MeshInstance3D","translation":[0.300999999046326,-7.99599981307983,10.5]},{"mesh":2,"name":"MeshInstance3D3","translation":[0.439999997615814,-11.46399974823,0]},{"children":[4,5,6,7,8],"name":"sand_stone_wall"},{"mesh":3,"name":"SupportPillar","translation":[0.439999997615814,-11.46399974823,0]},{"mesh":4,"name":"Base","scale":[0.5,0.75,0.5]},{"mesh":5,"name":"MainWall","rotation":[0,0,-0.70710676908493,0.70710676908493],"translation":[0.35038560628891,0,0]},{"mesh":6,"name":"MassiveWall","rotation":[0,0,-0.70710676908493,0.70710676908493],"scale":[10,1,0.5],"translation":[0.35006257891655,-10.75,0]},{"mesh":7,"name":"Plane","rotation":[0.70710676908493,-0.70710676908493,0.0000000533851469697311,-0.00000005338515],"translation":[0.260259002447128,0.999988973140717,0]},{"children":[10,11],"name":"SandStoneOuterWall","rotation":[0,0.70710676908493,0,0.70710676908493],"translation":[0,0,1]},{"mesh":8,"name":"Plane2","rotation":[0,0,-0.70710676908493,0.70710676908493],"scale":[1,1,0.5]},{"mesh":9,"name":"MeshInstance3D2","rotation":[0,1,0,-0.0000000437114],"translation":[-0.40000000596046,4,0]},{"mesh":10,"name":"MeshInstance3D22","translation":[0,8,0]}],"samplers":[{"magFilter":9729,"minFilter":9987,"wrapS":10497,"wrapT":10497},{"magFilter":9729,"minFilter":9729,"wrapS":10497,"wrapT":10497}],"scene":0,"scenes":[{"nodes":[0]}],"textures":[{"sampler":0,"source":0},{"sampler":0,"source":1},{"sampler":1,"source":2},{"sampler":1,"source":3},{"sampler":0,"source":4}]}