{"accessors":[{"bufferView":0,"byteOffset":0,"componentType":5126,"count":24,"max":[0.5,0.75,0.5],"min":[-0.5,-0.75,-0.5],"normalized":false,"type":"VEC3"},{"bufferView":1,"byteOffset":0,"componentType":5126,"count":24,"max":[1,0,1,1],"min":[-1,-0.00001525925472,-1,1],"normalized":false,"type":"VEC4"},{"bufferView":2,"byteOffset":0,"componentType":5126,"count":24,"max":[1,1,1],"min":[-1,-1,-1],"normalized":false,"type":"VEC3"},{"bufferView":3,"byteOffset":0,"componentType":5126,"count":24,"max":[1,1],"min":[0,0],"normalized":false,"type":"VEC2"},{"bufferView":4,"byteOffset":0,"componentType":5123,"count":36,"max":[23],"min":[0],"normalized":false,"type":"SCALAR"},{"bufferView":5,"byteOffset":0,"componentType":5126,"count":24,"max":[10.5,0.5,0.5],"min":[-10.5,-0.5,-0.5],"normalized":false,"type":"VEC3"},{"bufferView":6,"byteOffset":0,"componentType":5126,"count":24,"max":[1,0,1,1],"min":[-1,-0.00001525925472,-1,1],"normalized":false,"type":"VEC4"},{"bufferView":7,"byteOffset":0,"componentType":5126,"count":24,"max":[1,1,1],"min":[-1,-1,-1],"normalized":false,"type":"VEC3"},{"bufferView":8,"byteOffset":0,"componentType":5126,"count":24,"max":[1,1],"min":[0,0],"normalized":false,"type":"VEC2"},{"bufferView":9,"byteOffset":0,"componentType":5123,"count":36,"max":[23],"min":[0],"normalized":false,"type":"SCALAR"},{"bufferView":10,"byteOffset":0,"componentType":5126,"count":702,"max":[0.0675047039985657,8,0.5],"min":[-0.50000047683716,0,-0.5],"normalized":false,"type":"VEC3"},{"bufferView":11,"byteOffset":0,"componentType":5126,"count":702,"max":[0.0000915639102458954,0.00452185841277242,0.0321063213050365,1],"min":[-1,-1,-1,-1],"normalized":false,"type":"VEC4"},{"bufferView":12,"byteOffset":0,"componentType":5126,"count":702,"max":[1,1,1],"min":[-1,-1,-1],"normalized":false,"type":"VEC3"},{"bufferView":13,"byteOffset":0,"componentType":5126,"count":702,"max":[1,1],"min":[0,0],"normalized":false,"type":"VEC2"},{"bufferView":14,"byteOffset":0,"componentType":5123,"count":702,"max":[701],"min":[0],"normalized":false,"type":"SCALAR"},{"bufferView":15,"byteOffset":0,"componentType":5126,"count":4,"max":[0,2,0.5],"min":[0,-2,-0.5],"normalized":false,"type":"VEC3"},{"bufferView":16,"byteOffset":0,"componentType":5126,"count":4,"max":[0,0,-1,1],"min":[0,0,-1,1],"normalized":false,"type":"VEC4"},{"bufferView":17,"byteOffset":0,"componentType":5126,"count":4,"max":[1,0,-0.00001525902189],"min":[1,0,-0.00001525902189],"normalized":false,"type":"VEC3"},{"bufferView":18,"byteOffset":0,"componentType":5126,"count":4,"max":[1,1],"min":[0,0],"normalized":false,"type":"VEC2"},{"bufferView":19,"byteOffset":0,"componentType":5123,"count":6,"max":[3],"min":[0],"normalized":false,"type":"SCALAR"}],"asset":{"generator":"Godot Engine v4.3.stable.mono.official@77dcf97d82cbfe4e4615475fa52ca03da645dbd8","version":"2.0"},"bufferViews":[{"buffer":0,"byteLength":288,"byteOffset":0,"byteStride":12,"target":34962},{"buffer":0,"byteLength":384,"byteOffset":288,"byteStride":16,"target":34962},{"buffer":0,"byteLength":288,"byteOffset":672,"byteStride":12,"target":34962},{"buffer":0,"byteLength":192,"byteOffset":960,"byteStride":8,"target":34962},{"buffer":0,"byteLength":72,"byteOffset":1152,"target":34963},{"buffer":0,"byteLength":288,"byteOffset":1224,"byteStride":12,"target":34962},{"buffer":0,"byteLength":384,"byteOffset":1512,"byteStride":16,"target":34962},{"buffer":0,"byteLength":288,"byteOffset":1896,"byteStride":12,"target":34962},{"buffer":0,"byteLength":192,"byteOffset":2184,"byteStride":8,"target":34962},{"buffer":0,"byteLength":72,"byteOffset":2376,"target":34963},{"buffer":0,"byteLength":8424,"byteOffset":2448,"byteStride":12,"target":34962},{"buffer":0,"byteLength":11232,"byteOffset":10872,"byteStride":16,"target":34962},{"buffer":0,"byteLength":8424,"byteOffset":22104,"byteStride":12,"target":34962},{"buffer":0,"byteLength":5616,"byteOffset":30528,"byteStride":8,"target":34962},{"buffer":0,"byteLength":1404,"byteOffset":36144,"target":34963},{"buffer":0,"byteLength":48,"byteOffset":37548,"byteStride":12,"target":34962},{"buffer":0,"byteLength":64,"byteOffset":37596,"byteStride":16,"target":34962},{"buffer":0,"byteLength":48,"byteOffset":37660,"byteStride":12,"target":34962},{"buffer":0,"byteLength":32,"byteOffset":37708,"byteStride":8,"target":34962},{"buffer":0,"byteLength":12,"byteOffset":37740,"target":34963}],"buffers":[{"byteLength":37752,"uri":"sand_stone_north_outer_wall_door0.bin"}],"extensions":{"KHR_lights_punctual":{"lights":[{"color":[0.996330976486206,0.570338010787964,0],"intensity":6,"range":12,"spot":{"innerConeAngle":0.949617743492126,"outerConeAngle":1.16064393520355},"type":"spot"}]}},"extensionsUsed":["GODOT_single_root","KHR_lights_punctual","KHR_materials_emissive_strength"],"materials":[{"extensions":{},"pbrMetallicRoughness":{"baseColorFactor":[0.99999988079071,0.99999988079071,0.99999988079071,1],"metallicFactor":0,"roughnessFactor":1}},{"extensions":{},"pbrMetallicRoughness":{"baseColorFactor":[0.99999988079071,0.99999988079071,0.99999988079071,1],"metallicFactor":0,"roughnessFactor":1}},{"extensions":{},"pbrMetallicRoughness":{"baseColorFactor":[0.99999988079071,0.99999988079071,0.99999988079071,1],"metallicFactor":0,"roughnessFactor":1}},{"emissiveFactor":[0.999999940395355,0.857687413692474,0.65055900812149],"extensions":{"KHR_materials_emissive_strength":{"emissiveStrength":2}},"pbrMetallicRoughness":{"baseColorFactor":[0.99999988079071,0.99999988079071,0.99999988079071,1],"metallicFactor":0,"roughnessFactor":1}}],"meshes":[{"extras":{"targetNames":[]},"primitives":[{"attributes":{"NORMAL":2,"POSITION":0,"TANGENT":1,"TEXCOORD_0":3},"indices":4,"material":0,"mode":4}]},{"extras":{"targetNames":[]},"primitives":[{"attributes":{"NORMAL":7,"POSITION":5,"TANGENT":6,"TEXCOORD_0":8},"indices":9,"material":1,"mode":4}]},{"extras":{"targetNames":[]},"primitives":[{"attributes":{"NORMAL":12,"POSITION":10,"TANGENT":11,"TEXCOORD_0":13},"indices":14,"material":2,"mode":4}]},{"extras":{"targetNames":[]},"primitives":[{"attributes":{"NORMAL":17,"POSITION":15,"TANGENT":16,"TEXCOORD_0":18},"indices":19,"material":3,"mode":4}]}],"nodes":[{"children":[1,2,8],"mesh":0,"name":"SandStoneNorthOuterWall"},{"mesh":1,"name":"MeshInstance3D2","translation":[-10,8,0]},{"children":[3,4,5,6,7],"mesh":2,"name":"CSGCombiner3D2"},{"name":"CSGBox3D","translation":[-0.25,4,0]},{"name":"CSGBox3D2","translation":[-0.37255901098251,1.53490996360779,0]},{"name":"CSGBox3D3","translation":[-0.05169679969549,5.16575002670288,0]},{"name":"CSGBox3D4","translation":[0.0811920017004013,5.17283010482788,0]},{"name":"CSGBox3D5","translation":[-0.22503699362278,2.60195994377136,0]},{"children":[9],"mesh":3,"name":"MeshInstance3D","translation":[-0.28900098800659,2.63450002670288,0]},{"extensions":{"KHR_lights_punctual":{"light":0}},"name":"OmniLight3D","rotation":[-0.09229593724012,-0.70105743408203,-0.09229593724012,0.701057374477386],"translation":[-0.45642200112343,-1.01011002063751,-0.000000133878]}],"scene":0,"scenes":[{"nodes":[0]}]}