<svg width="64" height="64" viewBox="0 0 64 64" fill="none" xmlns="http://www.w3.org/2000/svg">
<path opacity="0.6" d="M60 56.5H54V61.5H60V56.5Z" fill="url(#paint0_radial_677_310)"/>
<path opacity="0.6" d="M4 61.5H10V56.5H4V61.5Z" fill="url(#paint1_radial_677_310)"/>
<path opacity="0.6" d="M54 56.5H10V61.5H54V56.5Z" fill="url(#paint2_linear_677_310)"/>
<path d="M53.5 4.5H10.5C7.18629 4.5 4.5 7.18629 4.5 10.5V53.5C4.5 56.8137 7.18629 59.5 10.5 59.5H53.5C56.8137 59.5 59.5 56.8137 59.5 53.5V10.5C59.5 7.18629 56.8137 4.5 53.5 4.5Z" fill="url(#paint3_linear_677_310)" stroke="#AD5F00" stroke-opacity="0.5" stroke-width="0.999998"/>
<path opacity="0.5" d="M53.5 5.5H10.5C7.73858 5.5 5.5 7.73257 5.5 10.4866V53.5134C5.5 56.2674 7.73858 58.5 10.5 58.5H53.5C56.2614 58.5 58.5 56.2674 58.5 53.5134V10.4866C58.5 7.73257 56.2614 5.5 53.5 5.5Z" stroke="url(#paint4_linear_677_310)" stroke-linecap="round" stroke-linejoin="round"/>
<path d="M6 10.5C6 8.01472 8.01472 6 10.5 6H32V32H6V10.5Z" fill="white" fill-opacity="0.3"/>
<path d="M58 53.5C58 55.9853 55.9853 58 53.5 58L32 58L32 32L58 32L58 53.5Z" fill="white" fill-opacity="0.3"/>
<g filter="url(#filter0_i_677_310)">
<path d="M26.0117 19.0092C26.0117 22.8751 22.8777 26.0092 19.0117 26.0092C15.1457 26.0092 12.0117 22.8751 12.0117 19.0092C12.0117 15.1432 15.1457 12.0092 19.0117 12.0092C22.8777 12.0092 26.0117 15.1432 26.0117 19.0092Z" fill="url(#paint5_linear_677_310)"/>
</g>
<path d="M23.9001 13.9992C26.667 16.6992 20.8364 15.3672 18.1364 18.1341C15.4364 20.901 16.8894 26.719 14.1225 24.019C11.3556 21.319 11.3014 16.8872 14.0014 14.1203C16.7014 11.3534 21.1332 11.2991 23.9001 13.9992Z" fill="url(#paint6_linear_677_310)"/>
<g filter="url(#filter1_d_677_310)">
<path d="M23.8114 18.9887C23.8114 21.6397 21.6624 23.7887 19.0114 23.7887C16.3605 23.7887 14.2114 21.6397 14.2114 18.9887C14.2114 16.3378 16.3605 14.1887 19.0114 14.1887C21.6624 14.1887 23.8114 16.3378 23.8114 18.9887Z" fill="white"/>
</g>
<path d="M23.9237 17.6485C23.1261 18.7039 23.0852 17.0685 21.2444 15.7038C19.4036 14.3391 17.8737 14.81 18.6713 13.7545C19.4689 12.6991 21.2912 12.7152 22.7416 13.7905C24.192 14.8658 24.7213 16.5931 23.9237 17.6485Z" fill="url(#paint7_linear_677_310)"/>
<path fill-rule="evenodd" clip-rule="evenodd" d="M19.0117 25.0091C22.3254 25.0091 25.0117 22.3228 25.0117 19.0091C25.0117 15.6954 22.3254 13.0091 19.0117 13.0091C15.698 13.0091 13.0117 15.6954 13.0117 19.0091C13.0117 22.3228 15.698 25.0091 19.0117 25.0091ZM19.0117 26.0091C22.8777 26.0091 26.0117 22.8751 26.0117 19.0091C26.0117 15.1431 22.8777 12.0091 19.0117 12.0091C15.1457 12.0091 12.0117 15.1431 12.0117 19.0091C12.0117 22.8751 15.1457 26.0091 19.0117 26.0091Z" fill="url(#paint8_linear_677_310)"/>
<path d="M24.3034 21.4932C24.0316 22.0553 23.5243 22.3749 23.1703 22.207C22.8163 22.039 22.7497 21.4472 23.0215 20.8851C23.2933 20.323 23.8006 20.0034 24.1546 20.1714C24.5086 20.3393 24.5752 20.9311 24.3034 21.4932Z" fill="url(#paint9_linear_677_310)"/>
<path d="M15.8858 16.9435C15.2572 17.7987 14.311 18.1772 13.7724 17.7888C13.2339 17.4004 13.3069 16.3923 13.9355 15.5371C14.5641 14.6819 15.5103 14.3034 16.0489 14.6918C16.5874 15.0801 16.5144 16.0883 15.8858 16.9435Z" fill="url(#paint10_linear_677_310)"/>
<path fill-rule="evenodd" clip-rule="evenodd" d="M18.8069 36.4451C23.9128 36.4451 27.0852 41.0829 26.616 43.8484C26.4511 44.8202 26.1796 45.5463 25.9228 46.233C25.4488 47.5003 25.025 48.6334 25.4146 50.9298C25.4146 51.4033 24.9032 51.3417 24.2786 51.2664C23.6292 51.1882 22.8574 51.0952 22.4111 51.5736C21.9713 52.0449 22.0145 52.5161 22.0692 53.1137C22.0892 53.3324 22.1108 53.568 22.1108 53.8268C20.0083 54.7924 18.5065 54.7924 16.4041 53.8268C16.4041 52.8611 16.4041 52.2174 15.8034 51.5736C15.3504 51.0881 14.6512 51.1851 14.0775 51.2647C13.5323 51.3404 13.1003 51.4003 13.1003 50.9298C13.2769 48.8473 12.8274 47.7398 12.3676 46.6074C12.0458 45.8144 11.7189 45.0092 11.5985 43.8484C11.2981 40.9514 13.701 36.4451 18.8069 36.4451Z" fill="#AD5F00" fill-opacity="0.25"/>
<path fill-rule="evenodd" clip-rule="evenodd" d="M23.3702 41.4514C22.3504 40.4031 20.8095 39.5908 18.8951 39.5908C15.1079 39.5908 13.4475 42.6925 13.6465 44.4915C13.7327 45.271 13.9595 45.8049 14.2347 46.4404C14.5957 45.9345 15.1403 45.5363 15.7704 45.3074C16.4172 45.0724 17.1097 45.032 17.7232 45.2048C18.335 45.3771 18.9478 45.7944 19.2072 46.5154C19.2183 46.546 19.2285 46.5767 19.2378 46.6072C19.2472 46.5767 19.2574 46.546 19.2684 46.5154C19.5279 45.7944 20.1407 45.3771 20.7525 45.2048C21.366 45.032 22.0584 45.0724 22.7053 45.3074C23.2552 45.5072 23.74 45.8359 24.0945 46.2527C24.102 46.2337 24.1096 46.2148 24.1171 46.196L24.1287 46.1669C24.3502 45.6115 24.5506 45.1041 24.6738 44.4234C24.7983 43.7357 24.4321 42.543 23.3702 41.4514ZM24.6822 47.5825C24.7854 47.2195 24.919 46.8847 25.0575 46.5374C25.2799 45.9799 25.5151 45.3904 25.6579 44.6014C26.0642 42.3562 23.3169 38.5908 18.8951 38.5908C14.4733 38.5908 12.3924 42.2494 12.6525 44.6014C12.7568 45.5439 13.0399 46.1976 13.3186 46.8414C13.7167 47.7608 14.106 48.66 13.9531 50.3508C13.9531 50.7328 14.3272 50.6841 14.7993 50.6227C15.2962 50.558 15.9017 50.4792 16.294 50.8734C16.8142 51.3961 16.8142 51.9188 16.8142 52.7028C18.635 53.4868 19.9355 53.4868 21.7563 52.7028C21.7563 52.4927 21.7376 52.3014 21.7202 52.1238C21.6729 51.6386 21.6355 51.256 22.0163 50.8734C22.4029 50.4851 23.0712 50.5605 23.6336 50.624C24.1745 50.6851 24.6174 50.7351 24.6174 50.3508C24.4929 49.6628 24.4643 49.1034 24.4985 48.6197C24.5034 48.5503 24.5095 48.4824 24.5169 48.416C24.5504 48.1141 24.6086 47.8412 24.6822 47.5825ZM23.5219 48.3161C23.1676 48.8312 22.316 49.0089 21.4793 48.7049C20.5337 48.3613 19.9651 47.5327 20.2093 46.854C20.4536 46.1754 21.4182 45.9037 22.3638 46.2473C23.0538 46.498 23.5431 47.007 23.6623 47.5275C23.7064 47.7203 23.6998 47.9147 23.6338 48.0982C23.6057 48.1763 23.568 48.2491 23.5219 48.3161ZM23.5089 49.5888C23.5093 49.5941 23.5097 49.5993 23.5101 49.6046C23.5008 49.6036 23.4913 49.6027 23.4818 49.6018C23.4908 49.5975 23.4998 49.5932 23.5089 49.5888ZM20.7074 52.0358C20.6901 51.8314 20.6781 51.5684 20.72 51.3037C20.7851 50.893 20.9679 50.5092 21.3076 50.168C21.4607 50.0141 21.6274 49.8996 21.7968 49.8145C21.5752 49.7801 21.354 49.7233 21.1379 49.6448C21.0885 49.6269 21.0397 49.6079 20.9914 49.5879C21.2917 50.5048 20.6158 51.4814 19.6184 51.4814H18.6919C18.1903 51.4814 17.77 51.2344 17.5143 50.8721C17.7064 51.2585 17.7759 51.6474 17.8008 52.0147C18.3595 52.2071 18.8336 52.2908 19.2852 52.2908C19.72 52.2908 20.1755 52.2133 20.7074 52.0358ZM17.3735 50.6249C17.274 50.4708 17.1521 50.318 17.0028 50.168C16.8608 50.0253 16.7085 49.9156 16.5534 49.8315C16.8031 49.8023 17.0534 49.7445 17.2976 49.6591C17.2066 49.9933 17.2424 50.3318 17.3735 50.6249ZM16.9963 48.7049C17.942 48.3613 18.5106 47.5327 18.2663 46.854C18.0221 46.1754 17.0575 45.9037 16.1118 46.2473C15.1662 46.5908 14.5976 47.4195 14.8418 48.0982C15.0861 48.7768 16.0507 49.0484 16.9963 48.7049ZM18.7449 48.737C18.8959 48.3691 19.4145 48.3691 19.5654 48.737L20.0287 49.8656C20.1491 50.159 19.9344 50.4814 19.6184 50.4814H18.6919C18.376 50.4814 18.1612 50.159 18.2817 49.8656L18.7449 48.737Z" fill="#AD5F00"/>
<path fill-rule="evenodd" clip-rule="evenodd" d="M18.8951 37.6114C23.3169 37.6114 26.0642 41.3768 25.6579 43.6221C25.5151 44.4111 25.2799 45.0006 25.0575 45.558C24.647 46.587 24.28 47.5069 24.6174 49.3714C24.6174 49.7558 24.1745 49.7057 23.6336 49.6447C23.0712 49.5811 22.4029 49.5057 22.0163 49.8941C21.6355 50.2767 21.6729 50.6593 21.7202 51.1444C21.7376 51.322 21.7563 51.5133 21.7563 51.7234C19.9355 52.5074 18.635 52.5074 16.8142 51.7234C16.8142 50.9394 16.8142 50.4167 16.294 49.8941C15.9017 49.4999 15.2962 49.5786 14.7993 49.6433C14.3272 49.7047 13.9531 49.7534 13.9531 49.3714C14.106 47.6806 13.7167 46.7815 13.3186 45.862C13.0399 45.2182 12.7568 44.5645 12.6525 43.6221C12.3924 41.2701 14.4733 37.6114 18.8951 37.6114ZM16.9963 47.7255C17.942 47.382 18.5106 46.5533 18.2663 45.8747C18.0221 45.196 17.0575 44.9244 16.1118 45.2679C15.1662 45.6115 14.5976 46.4401 14.8418 47.1188C15.0861 47.7974 16.0507 48.0691 16.9963 47.7255ZM20.2093 45.8747C19.9651 46.5533 20.5337 47.382 21.4793 47.7255C22.425 48.0691 23.3896 47.7974 23.6338 47.1188C23.878 46.4401 23.3095 45.6115 22.3638 45.2679C21.4182 44.9244 20.4536 45.196 20.2093 45.8747ZM19.5654 47.7576C19.4145 47.3897 18.8959 47.3897 18.7449 47.7576L18.2817 48.8862C18.1612 49.1797 18.376 49.5021 18.6919 49.5021H19.6184C19.9344 49.5021 20.1491 49.1797 20.0287 48.8862L19.5654 47.7576Z" fill="white"/>
<path d="M45.4999 11L53.7272 26H37.2727L45.4999 11Z" fill="#AD5F00" fill-opacity="0.25"/>
<path fill-rule="evenodd" clip-rule="evenodd" d="M45.4998 14L39.0046 25.25H51.995L45.4998 14ZM45.4998 17L41.6027 23.75H49.3969L45.4998 17Z" fill="#AD5F00"/>
<path fill-rule="evenodd" clip-rule="evenodd" d="M45.4999 13.0999L39.113 24.1623H51.8868L45.4999 13.0999ZM45.4999 16.0999L41.7111 22.6623H49.2887L45.4999 16.0999Z" fill="white"/>
<defs>
<filter id="filter0_i_677_310" x="12.0117" y="12.0092" width="18" height="18" filterUnits="userSpaceOnUse" color-interpolation-filters="sRGB">
<feFlood flood-opacity="0" result="BackgroundImageFix"/>
<feBlend mode="normal" in="SourceGraphic" in2="BackgroundImageFix" result="shape"/>
<feColorMatrix in="SourceAlpha" type="matrix" values="0 0 0 0 0 0 0 0 0 0 0 0 0 0 0 0 0 0 127 0" result="hardAlpha"/>
<feOffset dx="4" dy="4"/>
<feGaussianBlur stdDeviation="2"/>
<feComposite in2="hardAlpha" operator="arithmetic" k2="-1" k3="1"/>
<feColorMatrix type="matrix" values="0 0 0 0 0 0 0 0 0 0 0 0 0 0 0 0 0 0 0.5 0"/>
<feBlend mode="normal" in2="shape" result="effect1_innerShadow_677_310"/>
</filter>
<filter id="filter1_d_677_310" x="11.2114" y="11.1887" width="15.6001" height="15.6" filterUnits="userSpaceOnUse" color-interpolation-filters="sRGB">
<feFlood flood-opacity="0" result="BackgroundImageFix"/>
<feColorMatrix in="SourceAlpha" type="matrix" values="0 0 0 0 0 0 0 0 0 0 0 0 0 0 0 0 0 0 127 0" result="hardAlpha"/>
<feOffset/>
<feGaussianBlur stdDeviation="1.5"/>
<feComposite in2="hardAlpha" operator="out"/>
<feColorMatrix type="matrix" values="0 0 0 0 1 0 0 0 0 1 0 0 0 0 1 0 0 0 1 0"/>
<feBlend mode="normal" in2="BackgroundImageFix" result="effect1_dropShadow_677_310"/>
<feBlend mode="normal" in="SourceGraphic" in2="effect1_dropShadow_677_310" result="shape"/>
</filter>
<radialGradient id="paint0_radial_677_310" cx="0" cy="0" r="1" gradientUnits="userSpaceOnUse" gradientTransform="translate(53.9916 59) scale(6.01135 2.5)">
<stop stop-color="#181818"/>
<stop offset="1" stop-color="#181818" stop-opacity="0"/>
</radialGradient>
<radialGradient id="paint1_radial_677_310" cx="0" cy="0" r="1" gradientUnits="userSpaceOnUse" gradientTransform="translate(10.0084 59) rotate(180) scale(6.01135 2.5)">
<stop stop-color="#181818"/>
<stop offset="1" stop-color="#181818" stop-opacity="0"/>
</radialGradient>
<linearGradient id="paint2_linear_677_310" x1="33.6627" y1="61.5198" x2="33.6627" y2="56.4996" gradientUnits="userSpaceOnUse">
<stop stop-color="#181818" stop-opacity="0"/>
<stop offset="0.5" stop-color="#181818"/>
<stop offset="1" stop-color="#181818" stop-opacity="0"/>
</linearGradient>
<linearGradient id="paint3_linear_677_310" x1="31.3348" y1="5.32244" x2="31.3348" y2="59.1236" gradientUnits="userSpaceOnUse">
<stop stop-color="#F9C440"/>
<stop offset="1" stop-color="#D48E15"/>
</linearGradient>
<linearGradient id="paint4_linear_677_310" x1="32" y1="4.78377" x2="32" y2="59.2162" gradientUnits="userSpaceOnUse">
<stop stop-color="white"/>
<stop offset="0.0631645" stop-color="white" stop-opacity="0.235294"/>
<stop offset="0.950563" stop-color="white" stop-opacity="0.156863"/>
<stop offset="1" stop-color="white" stop-opacity="0.392157"/>
</linearGradient>
<linearGradient id="paint5_linear_677_310" x1="14.6701" y1="12.0092" x2="23.8401" y2="25.0375" gradientUnits="userSpaceOnUse">
<stop offset="0.389307" stop-color="#FF698A"/>
<stop offset="1" stop-color="#79EBFF"/>
</linearGradient>
<linearGradient id="paint6_linear_677_310" x1="13.7614" y1="13.7591" x2="23.3864" y2="24.2591" gradientUnits="userSpaceOnUse">
<stop stop-color="white" stop-opacity="0.75"/>
<stop offset="1" stop-color="white" stop-opacity="0"/>
</linearGradient>
<linearGradient id="paint7_linear_677_310" x1="22.7415" y1="13.7905" x2="20.9597" y2="16.194" gradientUnits="userSpaceOnUse">
<stop offset="0.479901" stop-color="#F9F5AB"/>
<stop offset="1" stop-color="white" stop-opacity="0.5"/>
</linearGradient>
<linearGradient id="paint8_linear_677_310" x1="13.8336" y1="13.6611" x2="24.4864" y2="23.376" gradientUnits="userSpaceOnUse">
<stop stop-color="white"/>
<stop offset="0.5" stop-color="white" stop-opacity="0"/>
<stop offset="1" stop-color="#99E9FF"/>
</linearGradient>
<linearGradient id="paint9_linear_677_310" x1="24.4344" y1="20.9141" x2="23.2169" y2="20.8206" gradientUnits="userSpaceOnUse">
<stop stop-color="#D7F9FF"/>
<stop offset="1" stop-color="#D7F9FF" stop-opacity="0"/>
</linearGradient>
<linearGradient id="paint10_linear_677_310" x1="14.5098" y1="15.8321" x2="17.0435" y2="17.9717" gradientUnits="userSpaceOnUse">
<stop stop-color="white"/>
<stop offset="1" stop-color="white" stop-opacity="0"/>
</linearGradient>
</defs>
</svg>
