<svg width="64" height="64" viewBox="0 0 64 64" fill="none" xmlns="http://www.w3.org/2000/svg">
<g opacity="0.6">
<path opacity="0.6" d="M62.0001 56.5H54.1053V61.5H62.0001V56.5Z" fill="url(#paint0_radial_1357_2)"/>
<path opacity="0.6" d="M2.00002 61.5H9.89478V56.5H2.00002V61.5Z" fill="url(#paint1_radial_1357_2)"/>
<path opacity="0.6" d="M54.1054 56.5H9.89478V61.5H54.1054V56.5Z" fill="url(#paint2_linear_1357_2)"/>
</g>
<path d="M56.5 4.5H7.5C5.84315 4.5 4.5 5.84315 4.5 7.5V56.5C4.5 58.1569 5.84315 59.5 7.5 59.5H56.5C58.1569 59.5 59.5 58.1569 59.5 56.5V7.5C59.5 5.84315 58.1569 4.5 56.5 4.5Z" fill="url(#paint3_linear_1357_2)"/>
<path opacity="0.5" d="M56.5 5.42877H7.5C6.39543 5.42877 5.5 6.3242 5.5 7.42877V56.5713C5.5 57.6758 6.39543 58.5713 7.5 58.5713H56.5C57.6046 58.5713 58.5 57.6758 58.5 56.5713V7.42877C58.5 6.3242 57.6046 5.42877 56.5 5.42877Z" stroke="url(#paint4_linear_1357_2)" stroke-linecap="round" stroke-linejoin="round"/>
<path opacity="0.7" d="M56.5 4.5H7.5C5.84315 4.5 4.5 5.84315 4.5 7.5V56.5C4.5 58.1569 5.84315 59.5 7.5 59.5H56.5C58.1569 59.5 59.5 58.1569 59.5 56.5V7.5C59.5 5.84315 58.1569 4.5 56.5 4.5Z" stroke="black" stroke-linecap="round" stroke-linejoin="round"/>
<circle cx="22.1345" cy="22.4891" r="14.184" fill="url(#paint5_radial_1357_2)"/>
<circle cx="22.1345" cy="22.4891" r="14.684" stroke="black" stroke-opacity="0.75"/>
<g filter="url(#filter0_d_1357_2)">
<circle cx="22.1345" cy="22.4891" r="12.1402" fill="url(#paint6_radial_1357_2)"/>
<circle cx="22.1345" cy="22.4891" r="11.6402" stroke="black" stroke-opacity="0.75"/>
</g>
<path fill-rule="evenodd" clip-rule="evenodd" d="M11.4739 19.2633L12.1542 18.5831L11.8302 18.2591C11.9686 17.9215 12.1231 17.5922 12.2927 17.2722L12.8789 17.8584L13.6035 17.1337L12.8811 16.4112L12.6582 16.6342C13.624 15.0701 14.9651 13.763 16.5555 12.839L17.2269 13.5104L17.9516 12.7857L17.5104 12.3445C17.8473 12.1902 18.1932 12.0524 18.5471 11.9318L18.6763 12.061L18.9273 11.8099C19.5691 11.617 20.2353 11.4804 20.9201 11.4061L23.0155 13.5016L23.7402 12.7769L22.3053 11.342C22.8443 11.3502 23.374 11.3968 23.8918 11.4791L24.4649 12.0522L24.8435 11.6736C26.6236 12.1197 28.2338 12.9951 29.5583 14.1836L28.0773 15.6646L28.7997 16.3871L30.2869 14.9C31.4911 16.1971 32.3906 17.782 32.8713 19.5403L32.4121 19.9995L33.1244 20.7118C33.2075 21.2304 33.2549 21.7609 33.264 22.3007L31.6875 20.7242L30.9628 21.4488L33.2024 23.6884C33.1448 24.2299 33.0485 24.7597 32.9163 25.2751L32.4034 25.7881L32.6817 26.0665C32.562 26.4212 32.4249 26.7679 32.2716 27.1056L31.6787 26.5128L30.954 27.2374L31.7795 28.063C30.5568 30.1834 28.6573 31.863 26.3768 32.8057L25.8813 32.3102L25.1566 33.0348L25.3067 33.1849C24.6129 33.3913 23.8907 33.5317 23.1475 33.599L26.6082 30.1383L25.8857 29.4159L22.2623 33.0392L22.8453 33.6222C22.6097 33.6371 22.3722 33.6447 22.1328 33.6447C21.8847 33.6447 21.6384 33.6366 21.3943 33.6205L20.0927 32.3189L19.368 33.0436L19.7026 33.3782C19.1458 33.254 18.6048 33.0881 18.0829 32.8838L20.8196 30.1471L20.0971 29.4246L17.0861 32.4357C16.7707 32.2747 16.464 32.0992 16.1669 31.9099L16.4759 31.6009L15.7534 30.8784L15.3191 31.3127C15.0489 31.1029 14.7887 30.881 14.5391 30.6477L15.0309 30.1559L14.3085 29.4334L13.8252 29.9167C13.5975 29.6612 13.3814 29.3951 13.1777 29.1193L13.586 28.7109L12.8635 27.9885L12.5985 28.2535C12.4153 27.9499 12.2461 27.6368 12.0919 27.3152L15.0397 24.3673L14.3172 23.6448L11.6647 26.2974C11.5059 25.859 11.3737 25.4078 11.2702 24.9458L11.4207 25.0963L12.1454 24.3717L11.0254 23.2516C11.0085 23.0008 11 22.7478 11 22.4927C11 22.2594 11.0071 22.0279 11.0212 21.7981L11.4251 22.202L15.0485 18.5787L14.326 17.8562L11.0865 21.0957C11.1649 20.4672 11.2956 19.8549 11.4739 19.2633ZM15.7798 13.5125L15.0551 14.2372L15.7776 14.9597L16.5022 14.235L15.7798 13.5125ZM28.0795 14.2175L27.357 13.495L26.6323 14.2197L27.3548 14.9421L28.0795 14.2175ZM30.2469 16.3849L29.5222 17.1096L30.2447 17.8321L30.9694 17.1074L30.2469 16.3849ZM30.9518 28.6846L30.2293 27.9621L29.5047 28.6868L30.2271 29.4093L30.9518 28.6846ZM27.3284 32.308L28.0531 31.5833L27.3306 30.8608L26.606 31.5855L27.3284 32.308ZM12.1476 22.9245L12.8701 23.647L13.5948 22.9223L12.8723 22.1998L12.1476 22.9245ZM15.771 19.3012L15.0463 20.0258L15.7688 20.7483L16.4935 20.0236L15.771 19.3012ZM17.2181 19.299L17.9428 18.5743L14.3304 14.9619L13.6057 15.6866L17.2181 19.299ZM17.945 17.1271L18.6675 17.8496L19.3922 17.1249L18.6697 16.4025L17.945 17.1271ZM16.5 15.6822L17.2225 16.4047L20.8459 12.7813L20.1234 12.0588L16.5 15.6822ZM21.5684 13.5038L20.8437 14.2284L21.5662 14.9509L22.2908 14.2262L21.5684 13.5038ZM25.912 12.05L22.2887 15.6734L23.0111 16.3959L26.6345 12.7725L25.912 12.05ZM24.4583 16.3937L23.7336 17.1184L24.4561 17.8408L25.1808 17.1162L24.4583 16.3937ZM25.9076 14.9443L25.183 15.669L28.7953 19.2814L29.52 18.5567L25.9076 14.9443ZM28.0707 20.0061L27.3482 19.2836L26.6235 20.0083L27.346 20.7308L28.0707 20.0061ZM28.0685 21.4532L28.791 22.1757L32.4143 18.5523L31.6918 17.8299L28.0685 21.4532ZM30.2381 22.1735L29.5134 22.8982L30.2359 23.6207L30.9606 22.896L30.2381 22.1735ZM32.4055 24.341L31.6831 23.6185L28.0597 27.2418L28.7822 27.9643L32.4055 24.341ZM27.3372 26.5194L28.0619 25.7947L27.3394 25.0722L26.6147 25.7969L27.3372 26.5194ZM25.8901 26.5216L25.1654 27.2462L28.7778 30.8586L29.5025 30.1339L25.8901 26.5216ZM25.1632 28.6934L24.4407 27.9709L23.7161 28.6956L24.4385 29.4181L25.1632 28.6934ZM21.5398 32.3167L22.2645 31.5921L21.542 30.8696L20.8174 31.5943L21.5398 32.3167ZM18.6499 29.4268L19.3746 28.7022L18.6521 27.9797L17.9274 28.7044L18.6499 29.4268ZM17.2006 30.8762L17.9252 30.1515L14.3129 26.5391L13.5882 27.2638L17.2006 30.8762ZM15.0375 25.8144L15.76 26.5369L16.4847 25.8122L15.7622 25.0898L15.0375 25.8144ZM13.597 21.4752L17.2094 25.0876L17.934 24.3629L14.3216 20.7505L13.597 21.4752ZM17.9362 22.9157L18.6587 23.6382L19.3834 22.9136L18.6609 22.1911L17.9362 22.9157ZM16.4913 21.4708L17.2137 22.1933L20.8371 18.5699L20.1146 17.8474L16.4913 21.4708ZM21.5596 19.2924L20.8349 20.0171L21.5574 20.7395L22.2821 20.0149L21.5596 19.2924ZM23.0067 19.2902L23.7314 18.5655L20.119 14.9531L19.3943 15.6778L23.0067 19.2902ZM25.9032 17.8386L22.2799 21.462L23.0024 22.1845L26.6257 18.5611L25.9032 17.8386ZM24.4495 22.1823L23.7248 22.907L24.4473 23.6294L25.172 22.9048L24.4495 22.1823ZM25.8988 20.7329L25.1742 21.4576L28.7866 25.07L29.5112 24.3453L25.8988 20.7329ZM26.6169 24.3497L25.8945 23.6273L22.2711 27.2506L22.9936 27.9731L26.6169 24.3497ZM21.5486 26.5281L22.2733 25.8035L21.5508 25.081L20.8261 25.8057L21.5486 26.5281ZM20.1015 26.5303L19.3768 27.255L22.9892 30.8674L23.7139 30.1427L20.1015 26.5303ZM17.205 27.9819L20.8283 24.3585L20.1059 23.636L16.4825 27.2594L17.205 27.9819ZM19.3856 21.4664L22.998 25.0788L23.7226 24.3541L20.1102 20.7417L19.3856 21.4664Z" fill="url(#paint7_linear_1357_2)" fill-opacity="0.5"/>
<g filter="url(#filter1_di_1357_2)">
<circle cx="22.1347" cy="22.4891" r="3.39333" fill="url(#paint8_radial_1357_2)"/>
<circle cx="22.1347" cy="22.4891" r="2.89333" stroke="url(#paint9_linear_1357_2)"/>
</g>
<circle cx="46.5306" cy="16.2668" r="8.91294" fill="url(#paint10_radial_1357_2)"/>
<circle cx="46.5306" cy="16.2668" r="9.41294" stroke="black" stroke-opacity="0.75"/>
<g filter="url(#filter2_d_1357_2)">
<circle cx="46.5305" cy="16.2668" r="6.3493" fill="url(#paint11_radial_1357_2)"/>
<circle cx="46.5305" cy="16.2668" r="5.8493" stroke="black" stroke-opacity="0.75"/>
</g>
<g filter="url(#filter3_di_1357_2)">
<circle cx="46.5303" cy="16.2669" r="3.39333" fill="url(#paint12_radial_1357_2)"/>
<circle cx="46.5303" cy="16.2669" r="2.89333" stroke="url(#paint13_linear_1357_2)"/>
</g>
<path d="M6.50003 37.7289L6.50003 37.4083H24.4865C24.6238 37.4083 24.755 37.3519 24.8494 37.2522L34.0312 27.5624H57.4192L57.4214 28.3144L57.4312 31.6161L57.4609 41.6758C57.4825 49.0201 57.5041 56.4369 57.5041 56.7351C57.5041 56.8558 57.4185 57.071 57.2153 57.2769C57.0134 57.4814 56.7983 57.5723 56.6621 57.5723H56.6579H56.6525H56.6461H56.6387H56.6301H56.6205H56.6099H56.5982H56.5855H56.5717H56.5569H56.5411H56.5242H56.5063H56.4874H56.4675H56.4465H56.4246H56.4016H56.3777H56.3528H56.3268H56.2999H56.272H56.2431H56.2133H56.1825H56.1507H56.118H56.0843H56.0496H56.014H55.9775H55.94H55.9016H55.8622H55.8219H55.7808H55.7386H55.6956H55.6517H55.6068H55.5611H55.5144H55.4669H55.4185H55.3692H55.319H55.2679H55.216H55.1631H55.1095H55.0549H54.9995H54.9433H54.8862H54.8283H54.7695H54.7099H54.6495H54.5882H54.5261H54.4632H54.3995H54.335H54.2697H54.2036H54.1366H54.0689H54.0004H53.9311H53.8611H53.7902H53.7186H53.6462H53.5731H53.4992H53.4245H53.3491H53.2729H53.196H53.1184H53.04H52.9609H52.8811H52.8006H52.7193H52.6373H52.5546H52.4713H52.3872H52.3024H52.2169H52.1308H52.0439H51.9564H51.8682H51.7793H51.6898H51.5996H51.5087H51.4172H51.3251H51.2323H51.1388H51.0447H50.95H50.8547H50.7587H50.6621H50.5649H50.4671H50.3687H50.2697H50.17H50.0698H49.969H49.8676H49.7656H49.6631H49.5599H49.4562H49.352H49.2471H49.1417H49.0358H48.9293H48.8223H48.7147H48.6066H48.498H48.3888H48.2791H48.1689H48.0582H47.9469H47.8352H47.723H47.6102H47.497H47.3832H47.269H47.1543H47.0392H46.9235H46.8074H46.6908H46.5738H46.4563H46.3384H46.22H46.1011H45.9818H45.8621H45.742H45.6214H45.5004H45.379H45.2572H45.1349H45.0123H44.8893H44.7658H44.642H44.5178H44.3932H44.2682H44.1428H44.0171H43.891H43.7645H43.6377H43.5105H43.3829H43.2551H43.1268H42.9983H42.8694H42.7402H42.6106H42.4807H42.3505H42.22H42.0892H41.9581H41.8267H41.695H41.563H41.4307H41.2981H41.1652H41.0321H40.8987H40.765H40.6311H40.4969H40.3624H40.2277H40.0928H39.9576H39.8221H39.6865H39.5506H39.4145H39.2781H39.1416H39.0048H38.8678H38.7307H38.5933H38.4557H38.318H38.18H38.0419H37.9036H37.7651H37.6264H37.4876H37.3486H37.2094H37.0701H36.9307H36.7911H36.6514H36.5115H36.3715H36.2314H36.0911H35.9507H35.8102H35.6696H35.5289H35.3881H35.2472H35.1062H34.9651H34.8239H34.6826H34.5413H34.3999H34.2584H34.1168H33.9752H33.8335H33.6918H33.55H33.4082H33.2664H33.1245H32.9825H32.8406H32.6986H32.5566H32.4146H32.2726H32.1306H31.9885H31.8465H31.7045H31.5625H31.4205H31.2785H31.1365H30.9946H30.8527H30.7108H30.569H30.4272H30.2855H30.1438H30.0022H29.8606H29.7192H29.5777H29.4364H29.2951H29.1539H29.0128H28.8718H28.7308H28.59H28.4493H28.3087H28.1682H28.0278H27.8875H27.7474H27.6073H27.4675H27.3277H27.1881H27.0486H26.9093H26.7702H26.6312H26.4923H26.3536H26.2151H26.0768H25.9386H25.8007H25.6629H25.5253H25.3879H25.2507H25.1137H24.9769H24.8403H24.704H24.5678H24.4319H24.2962H24.1608H24.0255H23.8906H23.7558H23.6213H23.4871H23.3532H23.2194H23.086H22.9528H22.8199H22.6873H22.555H22.423H22.2912H22.1597H22.0286H21.8977H21.7672H21.637H21.5071H21.3775H21.2482H21.1193H20.9907H20.8624H20.7345H20.6069H20.4797H20.3528H20.2263H20.1002H19.9744H19.849H19.7239H19.5993H19.475H19.3511H19.2277H19.1046H18.9819H18.8596H18.7377H18.6163H18.4952H18.3746H18.2544H18.1346H18.0153H17.8964H17.778H17.66H17.5424H17.4253H17.3087H17.1925H17.0768H16.9616H16.8469H16.7326H16.6188H16.5055H16.3927H16.2804H16.1686H16.0573H15.9465H15.8363H15.7265H15.6173H15.5086H15.4004H15.2928H15.1857H15.0791H14.9731H14.8677H14.7628H14.6585H14.5547H14.4515H14.3489H14.2468H14.1453H14.0445H13.9442H13.8445H13.7454H13.6469H13.549H13.4517H13.3551H13.259H13.1636H13.0688H12.9747H12.8812H12.7883H12.696H12.6045H12.5135H12.4233H12.3336H12.2447H12.1564H12.0688H11.9819H11.8957H11.8101H11.7252H11.6411H11.5576H11.4748H11.3928H11.3114H11.2308H11.1509H11.0717H10.9933H10.9155H10.8386H10.7623H10.6868H10.6121H10.5381H10.4648H10.3924H10.3207H10.2497H10.1796H10.1102H10.0416H9.97379H9.90677H9.84055H9.77513H9.71052H9.64671H9.58372H9.52154H9.46019H9.39966H9.33996H9.28109H9.22306H9.16588H9.10954H9.05405H8.99942H8.94565H8.89274H8.84069H8.78952H8.73923H8.68981H8.64128H8.59364H8.54689H8.50104H8.45609H8.41204H8.36891H8.32669H8.28538H8.245H8.20555H8.16702H8.12943H8.09278H8.05707H8.02232H7.98851H7.95565H7.92376H7.89283H7.86287H7.83389H7.80588H7.77885H7.7528H7.72775H7.70369H7.68063H7.65857H7.63751H7.61747H7.59844H7.58043H7.56344H7.54748H7.53255H7.51866H7.50581H7.494H7.48324H7.47353H7.46488H7.45729H7.45076H7.44531C6.90387 57.5723 6.5 57.0846 6.5 56.656L6.50002 46.5263L6.50003 39.898L6.50003 37.7289Z" fill="url(#paint14_linear_1357_2)" stroke="#5B5B5B" stroke-linecap="round" stroke-linejoin="round"/>
<path d="M8.00317 40.0548H7.50317V40.5548V55.9719C7.50317 56.3032 7.7718 56.5719 8.10317 56.5719H55.861C56.1924 56.5719 56.461 56.3032 56.461 55.9719V40.5548V40.0548H55.961H8.00317Z" fill="#EEEEEE" stroke="black"/>
<g filter="url(#filter4_d_1357_2)">
<line x1="14.5662" y1="56.0728" x2="14.5662" y2="43.9322" stroke="black" stroke-opacity="0.75"/>
</g>
<g filter="url(#filter5_d_1357_2)">
<line x1="21.8748" y1="56.0728" x2="21.8748" y2="42.1273" stroke="black" stroke-opacity="0.75"/>
</g>
<line x1="28.8445" y1="56.0728" x2="28.8445" y2="40.5557" stroke="black" stroke-opacity="0.75"/>
<g filter="url(#filter6_d_1357_2)">
<line x1="35.4739" y1="56.0728" x2="35.4739" y2="50.7636" stroke="black" stroke-opacity="0.75"/>
</g>
<g filter="url(#filter7_d_1357_2)">
<line x1="42.6135" y1="56.0728" x2="42.6135" y2="48.9646" stroke="black" stroke-opacity="0.75"/>
</g>
<g filter="url(#filter8_d_1357_2)">
<line x1="49.5823" y1="56.0728" x2="49.5823" y2="42.5584" stroke="black" stroke-opacity="0.75"/>
</g>
<g filter="url(#filter9_i_1357_2)">
<path d="M11.6982 40.2979H16.0667V50.1302C16.0667 50.1854 16.0219 50.2302 15.9667 50.2302H11.7982C11.743 50.2302 11.6982 50.1854 11.6982 50.1302V40.2979Z" fill="#222222"/>
</g>
<path d="M11.6982 40.2979H16.0667V50.1302C16.0667 50.1854 16.0219 50.2302 15.9667 50.2302H11.7982C11.743 50.2302 11.6982 50.1854 11.6982 50.1302V40.2979Z" stroke="black" stroke-opacity="0.75"/>
<g filter="url(#filter10_i_1357_2)">
<path d="M20.0208 40.3165H24.3892V50.1488C24.3892 50.2041 24.3444 50.2488 24.2892 50.2488H20.1208C20.0655 50.2488 20.0208 50.2041 20.0208 50.1488V40.3165Z" fill="#222222"/>
</g>
<path d="M20.0208 40.3165H24.3892V50.1488C24.3892 50.2041 24.3444 50.2488 24.2892 50.2488H20.1208C20.0655 50.2488 20.0208 50.2041 20.0208 50.1488V40.3165Z" stroke="black" stroke-opacity="0.75"/>
<g filter="url(#filter11_i_1357_2)">
<path d="M32.7678 40.3165H37.1362V50.1488C37.1362 50.2041 37.0915 50.2488 37.0362 50.2488H32.8678C32.8126 50.2488 32.7678 50.2041 32.7678 50.1488V40.3165Z" fill="#222222"/>
</g>
<path d="M32.7678 40.3165H37.1362V50.1488C37.1362 50.2041 37.0915 50.2488 37.0362 50.2488H32.8678C32.8126 50.2488 32.7678 50.2041 32.7678 50.1488V40.3165Z" stroke="black" stroke-opacity="0.75"/>
<g filter="url(#filter12_i_1357_2)">
<path d="M40.0656 40.3165H44.434V50.1488C44.434 50.2041 44.3892 50.2488 44.334 50.2488H40.1656C40.1103 50.2488 40.0656 50.2041 40.0656 50.1488V40.3165Z" fill="#222222"/>
</g>
<path d="M40.0656 40.3165H44.434V50.1488C44.434 50.2041 44.3892 50.2488 44.334 50.2488H40.1656C40.1103 50.2488 40.0656 50.2041 40.0656 50.1488V40.3165Z" stroke="black" stroke-opacity="0.75"/>
<g filter="url(#filter13_i_1357_2)">
<path d="M47.899 40.3165H52.2675V50.0844C52.2675 50.1396 52.2227 50.1844 52.1675 50.1844H47.999C47.9438 50.1844 47.899 50.1396 47.899 50.0844V40.3165Z" fill="#222222"/>
</g>
<path d="M47.899 40.3165H52.2675V50.0844C52.2675 50.1396 52.2227 50.1844 52.1675 50.1844H47.999C47.9438 50.1844 47.899 50.1396 47.899 50.0844V40.3165Z" stroke="black" stroke-opacity="0.75"/>
<g filter="url(#filter14_d_1357_2)">
<path d="M6.49561 36.5985H24.5327L33.9615 26.757H57.4686" stroke="black" stroke-opacity="0.5" stroke-linecap="square" stroke-linejoin="round"/>
</g>
<g filter="url(#filter15_dd_1357_2)">
<circle cx="40.1228" cy="33.5985" r="3" fill="url(#paint15_radial_1357_2)"/>
<circle cx="40.1228" cy="33.5985" r="2.5" stroke="black" stroke-opacity="0.15"/>
</g>
<line x1="42.2939" y1="32.4058" x2="41.2075" y2="33.1169" stroke="white" stroke-opacity="0.15"/>
<g filter="url(#filter16_dd_1357_2)">
<circle cx="50.5139" cy="33.5985" r="3" fill="url(#paint16_radial_1357_2)"/>
<circle cx="50.5139" cy="33.5985" r="2.5" stroke="black" stroke-opacity="0.15"/>
</g>
<line x1="52.6842" y1="32.4058" x2="51.5979" y2="33.1169" stroke="white" stroke-opacity="0.15"/>
<path d="M56.5149 5.92084H7.45136C6.82646 5.92084 6.01965 6.4629 6.01965 7.33181V13.1664H57.9919V7.4258C57.9919 6.35548 57.0702 5.92084 56.5149 5.92084Z" fill="white" fill-opacity="0.15"/>
<g filter="url(#filter17_ii_1357_2)">
<rect x="18.7412" y="43.6528" width="39.3117" height="14.4195" rx="1.5" fill="#0062BC"/>
</g>
<rect x="19.2412" y="44.1528" width="38.3117" height="13.4195" rx="1" stroke="black" stroke-opacity="0.75"/>
<g filter="url(#filter18_d_1357_2)">
<path d="M30.747 51.451H29.1254L29.1166 50.7698H30.5888C30.832 50.7698 31.0444 50.7288 31.226 50.6468C31.4076 50.5648 31.5483 50.4476 31.6479 50.2952C31.7504 50.14 31.8017 49.9554 31.8017 49.7415C31.8017 49.5071 31.7563 49.3167 31.6655 49.1702C31.5776 49.0208 31.4413 48.9124 31.2568 48.845C31.0751 48.7747 30.8437 48.7396 30.5624 48.7396H29.3144V54.4437H28.4662V48.0452H30.5624C30.8906 48.0452 31.1835 48.0789 31.4413 48.1463C31.6991 48.2108 31.9174 48.3133 32.0961 48.4539C32.2778 48.5916 32.4155 48.7674 32.5092 48.9813C32.603 49.1951 32.6498 49.4515 32.6498 49.7503C32.6498 50.014 32.5824 50.2527 32.4477 50.4666C32.3129 50.6776 32.1254 50.8504 31.8852 50.9852C31.6479 51.1199 31.3696 51.2064 31.0502 51.2444L30.747 51.451ZM30.7074 54.4437H28.7914L29.2704 53.7537H30.7074C30.977 53.7537 31.2055 53.7068 31.393 53.6131C31.5834 53.5193 31.7284 53.3875 31.8281 53.2176C31.9277 53.0447 31.9775 52.8411 31.9775 52.6068C31.9775 52.3694 31.935 52.1644 31.85 51.9915C31.7651 51.8187 31.6318 51.6854 31.4501 51.5916C31.2685 51.4979 31.0341 51.451 30.747 51.451H29.5385L29.5473 50.7698H31.1996L31.3798 51.0159C31.6874 51.0423 31.9482 51.1302 32.162 51.2796C32.3759 51.4261 32.5385 51.6136 32.6498 51.8421C32.7641 52.0706 32.8212 52.3226 32.8212 52.598C32.8212 52.9964 32.7333 53.3333 32.5575 53.6087C32.3847 53.8812 32.1401 54.0892 31.8237 54.2327C31.5072 54.3734 31.1352 54.4437 30.7074 54.4437ZM38.1386 53.7537V54.4437H34.7504V53.7537H38.1386ZM34.9218 48.0452V54.4437H34.0737V48.0452H34.9218ZM37.6904 50.7962V51.4861H34.7504V50.7962H37.6904ZM38.0947 48.0452V48.7396H34.7504V48.0452H38.0947ZM41.641 48.0452V54.4437H40.8061V48.0452H41.641ZM43.6977 48.0452V48.7396H38.7538V48.0452H43.6977ZM46.664 48.6121L44.5458 54.4437H43.6801L46.1191 48.0452H46.6772L46.664 48.6121ZM48.4394 54.4437L46.3168 48.6121L46.3036 48.0452H46.8617L49.3095 54.4437H48.4394ZM48.3295 52.075V52.7693H44.7348V52.075H48.3295Z" fill="white"/>
</g>
<path d="M34.2744 27.7656H57.4685" stroke="url(#paint17_linear_1357_2)"/>
<defs>
<filter id="filter0_d_1357_2" x="8.99438" y="9.34894" width="26.2803" height="26.2803" filterUnits="userSpaceOnUse" color-interpolation-filters="sRGB">
<feFlood flood-opacity="0" result="BackgroundImageFix"/>
<feColorMatrix in="SourceAlpha" type="matrix" values="0 0 0 0 0 0 0 0 0 0 0 0 0 0 0 0 0 0 127 0" result="hardAlpha"/>
<feMorphology radius="1" operator="dilate" in="SourceAlpha" result="effect1_dropShadow_1357_2"/>
<feOffset/>
<feColorMatrix type="matrix" values="0 0 0 0 0 0 0 0 0 0 0 0 0 0 0 0 0 0 0.15 0"/>
<feBlend mode="normal" in2="BackgroundImageFix" result="effect1_dropShadow_1357_2"/>
<feBlend mode="normal" in="SourceGraphic" in2="effect1_dropShadow_1357_2" result="shape"/>
</filter>
<filter id="filter1_di_1357_2" x="17.7413" y="18.0958" width="8.78662" height="8.78668" filterUnits="userSpaceOnUse" color-interpolation-filters="sRGB">
<feFlood flood-opacity="0" result="BackgroundImageFix"/>
<feColorMatrix in="SourceAlpha" type="matrix" values="0 0 0 0 0 0 0 0 0 0 0 0 0 0 0 0 0 0 127 0" result="hardAlpha"/>
<feMorphology radius="1" operator="dilate" in="SourceAlpha" result="effect1_dropShadow_1357_2"/>
<feOffset/>
<feColorMatrix type="matrix" values="0 0 0 0 0 0 0 0 0 0 0 0 0 0 0 0 0 0 0.25 0"/>
<feBlend mode="normal" in2="BackgroundImageFix" result="effect1_dropShadow_1357_2"/>
<feBlend mode="normal" in="SourceGraphic" in2="effect1_dropShadow_1357_2" result="shape"/>
<feColorMatrix in="SourceAlpha" type="matrix" values="0 0 0 0 0 0 0 0 0 0 0 0 0 0 0 0 0 0 127 0" result="hardAlpha"/>
<feMorphology radius="1" operator="erode" in="SourceAlpha" result="effect2_innerShadow_1357_2"/>
<feOffset dy="-1"/>
<feGaussianBlur stdDeviation="1"/>
<feComposite in2="hardAlpha" operator="arithmetic" k2="-1" k3="1"/>
<feColorMatrix type="matrix" values="0 0 0 0 0.882353 0 0 0 0 0.380392 0 0 0 0 0.121569 0 0 0 0.5 0"/>
<feBlend mode="lighten" in2="shape" result="effect2_innerShadow_1357_2"/>
</filter>
<filter id="filter2_d_1357_2" x="39.1812" y="8.91754" width="14.6986" height="14.6986" filterUnits="userSpaceOnUse" color-interpolation-filters="sRGB">
<feFlood flood-opacity="0" result="BackgroundImageFix"/>
<feColorMatrix in="SourceAlpha" type="matrix" values="0 0 0 0 0 0 0 0 0 0 0 0 0 0 0 0 0 0 127 0" result="hardAlpha"/>
<feMorphology radius="1" operator="dilate" in="SourceAlpha" result="effect1_dropShadow_1357_2"/>
<feOffset/>
<feColorMatrix type="matrix" values="0 0 0 0 0 0 0 0 0 0 0 0 0 0 0 0 0 0 0.15 0"/>
<feBlend mode="normal" in2="BackgroundImageFix" result="effect1_dropShadow_1357_2"/>
<feBlend mode="normal" in="SourceGraphic" in2="effect1_dropShadow_1357_2" result="shape"/>
</filter>
<filter id="filter3_di_1357_2" x="42.137" y="11.8735" width="8.78662" height="8.78668" filterUnits="userSpaceOnUse" color-interpolation-filters="sRGB">
<feFlood flood-opacity="0" result="BackgroundImageFix"/>
<feColorMatrix in="SourceAlpha" type="matrix" values="0 0 0 0 0 0 0 0 0 0 0 0 0 0 0 0 0 0 127 0" result="hardAlpha"/>
<feMorphology radius="1" operator="dilate" in="SourceAlpha" result="effect1_dropShadow_1357_2"/>
<feOffset/>
<feColorMatrix type="matrix" values="0 0 0 0 0 0 0 0 0 0 0 0 0 0 0 0 0 0 0.25 0"/>
<feBlend mode="normal" in2="BackgroundImageFix" result="effect1_dropShadow_1357_2"/>
<feBlend mode="normal" in="SourceGraphic" in2="effect1_dropShadow_1357_2" result="shape"/>
<feColorMatrix in="SourceAlpha" type="matrix" values="0 0 0 0 0 0 0 0 0 0 0 0 0 0 0 0 0 0 127 0" result="hardAlpha"/>
<feMorphology radius="1" operator="erode" in="SourceAlpha" result="effect2_innerShadow_1357_2"/>
<feOffset dy="-1"/>
<feGaussianBlur stdDeviation="1"/>
<feComposite in2="hardAlpha" operator="arithmetic" k2="-1" k3="1"/>
<feColorMatrix type="matrix" values="0 0 0 0 0.882353 0 0 0 0 0.380392 0 0 0 0 0.121569 0 0 0 0.5 0"/>
<feBlend mode="lighten" in2="shape" result="effect2_innerShadow_1357_2"/>
</filter>
<filter id="filter4_d_1357_2" x="14.0662" y="42.9323" width="2" height="13.1405" filterUnits="userSpaceOnUse" color-interpolation-filters="sRGB">
<feFlood flood-opacity="0" result="BackgroundImageFix"/>
<feColorMatrix in="SourceAlpha" type="matrix" values="0 0 0 0 0 0 0 0 0 0 0 0 0 0 0 0 0 0 127 0" result="hardAlpha"/>
<feOffset dx="1" dy="-1"/>
<feColorMatrix type="matrix" values="0 0 0 0 1 0 0 0 0 1 0 0 0 0 1 0 0 0 1 0"/>
<feBlend mode="normal" in2="BackgroundImageFix" result="effect1_dropShadow_1357_2"/>
<feBlend mode="normal" in="SourceGraphic" in2="effect1_dropShadow_1357_2" result="shape"/>
</filter>
<filter id="filter5_d_1357_2" x="21.3748" y="41.1273" width="2" height="14.9455" filterUnits="userSpaceOnUse" color-interpolation-filters="sRGB">
<feFlood flood-opacity="0" result="BackgroundImageFix"/>
<feColorMatrix in="SourceAlpha" type="matrix" values="0 0 0 0 0 0 0 0 0 0 0 0 0 0 0 0 0 0 127 0" result="hardAlpha"/>
<feOffset dx="1" dy="-1"/>
<feColorMatrix type="matrix" values="0 0 0 0 1 0 0 0 0 1 0 0 0 0 1 0 0 0 1 0"/>
<feBlend mode="normal" in2="BackgroundImageFix" result="effect1_dropShadow_1357_2"/>
<feBlend mode="normal" in="SourceGraphic" in2="effect1_dropShadow_1357_2" result="shape"/>
</filter>
<filter id="filter6_d_1357_2" x="34.9739" y="49.7635" width="2" height="6.3092" filterUnits="userSpaceOnUse" color-interpolation-filters="sRGB">
<feFlood flood-opacity="0" result="BackgroundImageFix"/>
<feColorMatrix in="SourceAlpha" type="matrix" values="0 0 0 0 0 0 0 0 0 0 0 0 0 0 0 0 0 0 127 0" result="hardAlpha"/>
<feOffset dx="1" dy="-1"/>
<feColorMatrix type="matrix" values="0 0 0 0 1 0 0 0 0 1 0 0 0 0 1 0 0 0 1 0"/>
<feBlend mode="normal" in2="BackgroundImageFix" result="effect1_dropShadow_1357_2"/>
<feBlend mode="normal" in="SourceGraphic" in2="effect1_dropShadow_1357_2" result="shape"/>
</filter>
<filter id="filter7_d_1357_2" x="42.1135" y="47.9645" width="2" height="8.10822" filterUnits="userSpaceOnUse" color-interpolation-filters="sRGB">
<feFlood flood-opacity="0" result="BackgroundImageFix"/>
<feColorMatrix in="SourceAlpha" type="matrix" values="0 0 0 0 0 0 0 0 0 0 0 0 0 0 0 0 0 0 127 0" result="hardAlpha"/>
<feOffset dx="1" dy="-1"/>
<feColorMatrix type="matrix" values="0 0 0 0 1 0 0 0 0 1 0 0 0 0 1 0 0 0 1 0"/>
<feBlend mode="normal" in2="BackgroundImageFix" result="effect1_dropShadow_1357_2"/>
<feBlend mode="normal" in="SourceGraphic" in2="effect1_dropShadow_1357_2" result="shape"/>
</filter>
<filter id="filter8_d_1357_2" x="49.0823" y="41.5584" width="2" height="14.5143" filterUnits="userSpaceOnUse" color-interpolation-filters="sRGB">
<feFlood flood-opacity="0" result="BackgroundImageFix"/>
<feColorMatrix in="SourceAlpha" type="matrix" values="0 0 0 0 0 0 0 0 0 0 0 0 0 0 0 0 0 0 127 0" result="hardAlpha"/>
<feOffset dx="1" dy="-1"/>
<feColorMatrix type="matrix" values="0 0 0 0 1 0 0 0 0 1 0 0 0 0 1 0 0 0 1 0"/>
<feBlend mode="normal" in2="BackgroundImageFix" result="effect1_dropShadow_1357_2"/>
<feBlend mode="normal" in="SourceGraphic" in2="effect1_dropShadow_1357_2" result="shape"/>
</filter>
<filter id="filter9_i_1357_2" x="11.1982" y="39.7979" width="5.36841" height="10.9323" filterUnits="userSpaceOnUse" color-interpolation-filters="sRGB">
<feFlood flood-opacity="0" result="BackgroundImageFix"/>
<feBlend mode="normal" in="SourceGraphic" in2="BackgroundImageFix" result="shape"/>
<feColorMatrix in="SourceAlpha" type="matrix" values="0 0 0 0 0 0 0 0 0 0 0 0 0 0 0 0 0 0 127 0" result="hardAlpha"/>
<feOffset dy="-4"/>
<feComposite in2="hardAlpha" operator="arithmetic" k2="-1" k3="1"/>
<feColorMatrix type="matrix" values="0 0 0 0 1 0 0 0 0 1 0 0 0 0 1 0 0 0 0.5 0"/>
<feBlend mode="normal" in2="shape" result="effect1_innerShadow_1357_2"/>
</filter>
<filter id="filter10_i_1357_2" x="19.5208" y="39.8165" width="5.36841" height="10.9323" filterUnits="userSpaceOnUse" color-interpolation-filters="sRGB">
<feFlood flood-opacity="0" result="BackgroundImageFix"/>
<feBlend mode="normal" in="SourceGraphic" in2="BackgroundImageFix" result="shape"/>
<feColorMatrix in="SourceAlpha" type="matrix" values="0 0 0 0 0 0 0 0 0 0 0 0 0 0 0 0 0 0 127 0" result="hardAlpha"/>
<feOffset dy="-4"/>
<feComposite in2="hardAlpha" operator="arithmetic" k2="-1" k3="1"/>
<feColorMatrix type="matrix" values="0 0 0 0 1 0 0 0 0 1 0 0 0 0 1 0 0 0 0.25 0"/>
<feBlend mode="normal" in2="shape" result="effect1_innerShadow_1357_2"/>
</filter>
<filter id="filter11_i_1357_2" x="32.2678" y="39.8165" width="5.36841" height="10.9323" filterUnits="userSpaceOnUse" color-interpolation-filters="sRGB">
<feFlood flood-opacity="0" result="BackgroundImageFix"/>
<feBlend mode="normal" in="SourceGraphic" in2="BackgroundImageFix" result="shape"/>
<feColorMatrix in="SourceAlpha" type="matrix" values="0 0 0 0 0 0 0 0 0 0 0 0 0 0 0 0 0 0 127 0" result="hardAlpha"/>
<feOffset dy="-4"/>
<feComposite in2="hardAlpha" operator="arithmetic" k2="-1" k3="1"/>
<feColorMatrix type="matrix" values="0 0 0 0 1 0 0 0 0 1 0 0 0 0 1 0 0 0 0.25 0"/>
<feBlend mode="normal" in2="shape" result="effect1_innerShadow_1357_2"/>
</filter>
<filter id="filter12_i_1357_2" x="39.5656" y="39.8165" width="5.36841" height="10.9323" filterUnits="userSpaceOnUse" color-interpolation-filters="sRGB">
<feFlood flood-opacity="0" result="BackgroundImageFix"/>
<feBlend mode="normal" in="SourceGraphic" in2="BackgroundImageFix" result="shape"/>
<feColorMatrix in="SourceAlpha" type="matrix" values="0 0 0 0 0 0 0 0 0 0 0 0 0 0 0 0 0 0 127 0" result="hardAlpha"/>
<feOffset dy="-4"/>
<feComposite in2="hardAlpha" operator="arithmetic" k2="-1" k3="1"/>
<feColorMatrix type="matrix" values="0 0 0 0 1 0 0 0 0 1 0 0 0 0 1 0 0 0 0.25 0"/>
<feBlend mode="normal" in2="shape" result="effect1_innerShadow_1357_2"/>
</filter>
<filter id="filter13_i_1357_2" x="47.399" y="39.8165" width="5.36841" height="10.8678" filterUnits="userSpaceOnUse" color-interpolation-filters="sRGB">
<feFlood flood-opacity="0" result="BackgroundImageFix"/>
<feBlend mode="normal" in="SourceGraphic" in2="BackgroundImageFix" result="shape"/>
<feColorMatrix in="SourceAlpha" type="matrix" values="0 0 0 0 0 0 0 0 0 0 0 0 0 0 0 0 0 0 127 0" result="hardAlpha"/>
<feOffset dy="-4"/>
<feComposite in2="hardAlpha" operator="arithmetic" k2="-1" k3="1"/>
<feColorMatrix type="matrix" values="0 0 0 0 1 0 0 0 0 1 0 0 0 0 1 0 0 0 0.25 0"/>
<feBlend mode="normal" in2="shape" result="effect1_innerShadow_1357_2"/>
</filter>
<filter id="filter14_d_1357_2" x="5.99561" y="26.257" width="51.973" height="11.8415" filterUnits="userSpaceOnUse" color-interpolation-filters="sRGB">
<feFlood flood-opacity="0" result="BackgroundImageFix"/>
<feColorMatrix in="SourceAlpha" type="matrix" values="0 0 0 0 0 0 0 0 0 0 0 0 0 0 0 0 0 0 127 0" result="hardAlpha"/>
<feOffset dy="1"/>
<feColorMatrix type="matrix" values="0 0 0 0 0.443137 0 0 0 0 0.439216 0 0 0 0 0.439216 0 0 0 1 0"/>
<feBlend mode="normal" in2="BackgroundImageFix" result="effect1_dropShadow_1357_2"/>
<feBlend mode="normal" in="SourceGraphic" in2="effect1_dropShadow_1357_2" result="shape"/>
</filter>
<filter id="filter15_dd_1357_2" x="35.1228" y="28.5985" width="10" height="11" filterUnits="userSpaceOnUse" color-interpolation-filters="sRGB">
<feFlood flood-opacity="0" result="BackgroundImageFix"/>
<feColorMatrix in="SourceAlpha" type="matrix" values="0 0 0 0 0 0 0 0 0 0 0 0 0 0 0 0 0 0 127 0" result="hardAlpha"/>
<feOffset dy="1"/>
<feGaussianBlur stdDeviation="1"/>
<feColorMatrix type="matrix" values="0 0 0 0 0 0 0 0 0 0 0 0 0 0 0 0 0 0 0.75 0"/>
<feBlend mode="normal" in2="BackgroundImageFix" result="effect1_dropShadow_1357_2"/>
<feColorMatrix in="SourceAlpha" type="matrix" values="0 0 0 0 0 0 0 0 0 0 0 0 0 0 0 0 0 0 127 0" result="hardAlpha"/>
<feOffset dy="-1"/>
<feGaussianBlur stdDeviation="0.5"/>
<feColorMatrix type="matrix" values="0 0 0 0 1 0 0 0 0 1 0 0 0 0 1 0 0 0 0.15 0"/>
<feBlend mode="normal" in2="effect1_dropShadow_1357_2" result="effect2_dropShadow_1357_2"/>
<feBlend mode="normal" in="SourceGraphic" in2="effect2_dropShadow_1357_2" result="shape"/>
</filter>
<filter id="filter16_dd_1357_2" x="45.5139" y="28.5985" width="10" height="11" filterUnits="userSpaceOnUse" color-interpolation-filters="sRGB">
<feFlood flood-opacity="0" result="BackgroundImageFix"/>
<feColorMatrix in="SourceAlpha" type="matrix" values="0 0 0 0 0 0 0 0 0 0 0 0 0 0 0 0 0 0 127 0" result="hardAlpha"/>
<feOffset dy="1"/>
<feGaussianBlur stdDeviation="1"/>
<feColorMatrix type="matrix" values="0 0 0 0 0 0 0 0 0 0 0 0 0 0 0 0 0 0 0.75 0"/>
<feBlend mode="normal" in2="BackgroundImageFix" result="effect1_dropShadow_1357_2"/>
<feColorMatrix in="SourceAlpha" type="matrix" values="0 0 0 0 0 0 0 0 0 0 0 0 0 0 0 0 0 0 127 0" result="hardAlpha"/>
<feOffset dy="-1"/>
<feGaussianBlur stdDeviation="0.5"/>
<feColorMatrix type="matrix" values="0 0 0 0 1 0 0 0 0 1 0 0 0 0 1 0 0 0 0.15 0"/>
<feBlend mode="normal" in2="effect1_dropShadow_1357_2" result="effect2_dropShadow_1357_2"/>
<feBlend mode="normal" in="SourceGraphic" in2="effect2_dropShadow_1357_2" result="shape"/>
</filter>
<filter id="filter17_ii_1357_2" x="18.7412" y="43.6528" width="39.3118" height="14.4195" filterUnits="userSpaceOnUse" color-interpolation-filters="sRGB">
<feFlood flood-opacity="0" result="BackgroundImageFix"/>
<feBlend mode="normal" in="SourceGraphic" in2="BackgroundImageFix" result="shape"/>
<feColorMatrix in="SourceAlpha" type="matrix" values="0 0 0 0 0 0 0 0 0 0 0 0 0 0 0 0 0 0 127 0" result="hardAlpha"/>
<feOffset dy="2"/>
<feComposite in2="hardAlpha" operator="arithmetic" k2="-1" k3="1"/>
<feColorMatrix type="matrix" values="0 0 0 0 1 0 0 0 0 1 0 0 0 0 1 0 0 0 0.25 0"/>
<feBlend mode="normal" in2="shape" result="effect1_innerShadow_1357_2"/>
<feColorMatrix in="SourceAlpha" type="matrix" values="0 0 0 0 0 0 0 0 0 0 0 0 0 0 0 0 0 0 127 0" result="hardAlpha"/>
<feOffset dy="-2"/>
<feComposite in2="hardAlpha" operator="arithmetic" k2="-1" k3="1"/>
<feColorMatrix type="matrix" values="0 0 0 0 0 0 0 0 0 0 0 0 0 0 0 0 0 0 0.25 0"/>
<feBlend mode="normal" in2="effect1_innerShadow_1357_2" result="effect2_innerShadow_1357_2"/>
</filter>
<filter id="filter18_d_1357_2" x="28.4662" y="48.0452" width="20.8433" height="7.09844" filterUnits="userSpaceOnUse" color-interpolation-filters="sRGB">
<feFlood flood-opacity="0" result="BackgroundImageFix"/>
<feColorMatrix in="SourceAlpha" type="matrix" values="0 0 0 0 0 0 0 0 0 0 0 0 0 0 0 0 0 0 127 0" result="hardAlpha"/>
<feOffset dy="0.7"/>
<feColorMatrix type="matrix" values="0 0 0 0 0 0 0 0 0 0 0 0 0 0 0 0 0 0 0.3 0"/>
<feBlend mode="normal" in2="BackgroundImageFix" result="effect1_dropShadow_1357_2"/>
<feBlend mode="normal" in="SourceGraphic" in2="effect1_dropShadow_1357_2" result="shape"/>
</filter>
<radialGradient id="paint0_radial_1357_2" cx="0" cy="0" r="1" gradientUnits="userSpaceOnUse" gradientTransform="translate(54.0943 59) scale(7.90969 2.5)">
<stop stop-color="#181818"/>
<stop offset="1" stop-color="#181818" stop-opacity="0"/>
</radialGradient>
<radialGradient id="paint1_radial_1357_2" cx="0" cy="0" r="1" gradientUnits="userSpaceOnUse" gradientTransform="translate(9.90586 59) rotate(180) scale(7.90969 2.5)">
<stop stop-color="#181818"/>
<stop offset="1" stop-color="#181818" stop-opacity="0"/>
</radialGradient>
<linearGradient id="paint2_linear_1357_2" x1="33.6708" y1="61.5198" x2="33.6708" y2="56.4996" gradientUnits="userSpaceOnUse">
<stop stop-color="#181818" stop-opacity="0"/>
<stop offset="0.5" stop-color="#181818"/>
<stop offset="1" stop-color="#181818" stop-opacity="0"/>
</linearGradient>
<linearGradient id="paint3_linear_1357_2" x1="31.3975" y1="4.7175" x2="31.3975" y2="59.461" gradientUnits="userSpaceOnUse">
<stop stop-color="#4D4D4D"/>
<stop offset="1" stop-color="#1A1A1A"/>
</linearGradient>
<linearGradient id="paint4_linear_1357_2" x1="32" y1="4.71062" x2="32" y2="59.2894" gradientUnits="userSpaceOnUse">
<stop stop-color="white"/>
<stop offset="0.0631645" stop-color="white" stop-opacity="0.12"/>
<stop offset="0.950563" stop-color="white" stop-opacity="0.12"/>
<stop offset="1" stop-color="white" stop-opacity="0.5"/>
</linearGradient>
<radialGradient id="paint5_radial_1357_2" cx="0" cy="0" r="1" gradientUnits="userSpaceOnUse" gradientTransform="translate(22.1345 15.3108) rotate(90) scale(21.3623)">
<stop stop-color="#828282"/>
<stop offset="1" stop-color="#161616"/>
</radialGradient>
<radialGradient id="paint6_radial_1357_2" cx="0" cy="0" r="1" gradientUnits="userSpaceOnUse" gradientTransform="translate(22.1345 13.451) rotate(90) scale(19.7386)">
<stop stop-color="#A62100"/>
<stop offset="1" stop-color="#F37329"/>
</radialGradient>
<linearGradient id="paint7_linear_1357_2" x1="21.7341" y1="-0.765931" x2="21.7341" y2="43.7341" gradientUnits="userSpaceOnUse">
<stop stop-color="#AA5002"/>
<stop offset="1" stop-color="#FC9F11"/>
</linearGradient>
<radialGradient id="paint8_radial_1357_2" cx="0" cy="0" r="1" gradientUnits="userSpaceOnUse" gradientTransform="translate(22.1347 20.6673) rotate(90) scale(5.21511)">
<stop stop-color="#777777"/>
<stop offset="1"/>
</radialGradient>
<linearGradient id="paint9_linear_1357_2" x1="22.1347" y1="19.0958" x2="22.1347" y2="25.8824" gradientUnits="userSpaceOnUse">
<stop/>
<stop offset="1" stop-color="#591500"/>
</linearGradient>
<radialGradient id="paint10_radial_1357_2" cx="0" cy="0" r="1" gradientUnits="userSpaceOnUse" gradientTransform="translate(46.5306 11.7562) rotate(90) scale(13.4236)">
<stop stop-color="#828282"/>
<stop offset="1" stop-color="#161616"/>
</radialGradient>
<radialGradient id="paint11_radial_1357_2" cx="0" cy="0" r="1" gradientUnits="userSpaceOnUse" gradientTransform="translate(46.5305 11.5399) rotate(90) scale(10.3233)">
<stop stop-color="#A62100"/>
<stop offset="1" stop-color="#F37329"/>
</radialGradient>
<radialGradient id="paint12_radial_1357_2" cx="0" cy="0" r="1" gradientUnits="userSpaceOnUse" gradientTransform="translate(46.5303 14.4451) rotate(90) scale(5.21511)">
<stop stop-color="#777777"/>
<stop offset="1"/>
</radialGradient>
<linearGradient id="paint13_linear_1357_2" x1="46.5303" y1="12.8735" x2="46.5303" y2="19.6602" gradientUnits="userSpaceOnUse">
<stop/>
<stop offset="1" stop-color="#591500"/>
</linearGradient>
<linearGradient id="paint14_linear_1357_2" x1="31.9588" y1="27.0624" x2="31.9588" y2="58.0724" gradientUnits="userSpaceOnUse">
<stop stop-color="#4F4C4C"/>
<stop offset="1" stop-color="#262626"/>
</linearGradient>
<radialGradient id="paint15_radial_1357_2" cx="0" cy="0" r="1" gradientUnits="userSpaceOnUse" gradientTransform="translate(40.1228 32.1488) rotate(90) scale(4.4497)">
<stop stop-color="#2B2B2B"/>
<stop offset="1" stop-color="#4F4F4F"/>
</radialGradient>
<radialGradient id="paint16_radial_1357_2" cx="0" cy="0" r="1" gradientUnits="userSpaceOnUse" gradientTransform="translate(50.5139 32.1488) rotate(90) scale(4.4497)">
<stop stop-color="#2B2B2B"/>
<stop offset="1" stop-color="#4F4F4F"/>
</radialGradient>
<linearGradient id="paint17_linear_1357_2" x1="34.5293" y1="27.7656" x2="57.9783" y2="27.7656" gradientUnits="userSpaceOnUse">
<stop stop-color="#717070" stop-opacity="0"/>
<stop offset="0.543822" stop-color="#F16D20" stop-opacity="0.5"/>
<stop offset="1" stop-color="#717070" stop-opacity="0"/>
</linearGradient>
</defs>
</svg>
