# Blender 4.2.3 LTS
# www.blender.org
o Circle
v 0.000000 0.000000 -3.000000
v -0.585271 0.000000 -2.942356
v -1.148050 0.000000 -2.771638
v -1.666711 0.000000 -2.494409
v -2.121320 0.000000 -2.121320
v -2.494409 0.000000 -1.666711
v -2.771638 0.000000 -1.148050
v -2.942356 0.000000 -0.585271
v -3.000000 0.000000 0.000000
v -2.942356 0.000000 0.585271
v -2.771638 0.000000 1.148050
v -2.494409 0.000000 1.666711
v -2.121320 0.000000 2.121320
v -1.666711 0.000000 2.494409
v -1.148050 0.000000 2.771638
v -0.585271 0.000000 2.942356
v 0.000000 0.000000 3.000000
v 0.585271 0.000000 2.942356
v 1.148050 0.000000 2.771638
v 1.666711 0.000000 2.494409
v 2.121320 0.000000 2.121320
v 2.494409 0.000000 1.666711
v 2.771638 0.000000 1.148050
v 2.942356 0.000000 0.585271
v 3.000000 0.000000 0.000000
v 2.942356 0.000000 -0.585271
v 2.771638 0.000000 -1.148050
v 2.494409 0.000000 -1.666711
v 2.121320 0.000000 -2.121320
v 1.666711 0.000000 -2.494409
v 1.148050 0.000000 -2.771638
v 0.585271 0.000000 -2.942356
v -0.451491 0.000000 -2.269799
v 0.000000 0.000000 -2.314267
v -0.885632 0.000000 -2.138103
v -1.285738 0.000000 -1.924242
v -1.636434 0.000000 -1.636434
v -1.924242 0.000000 -1.285738
v -2.138103 0.000000 -0.885632
v -2.269799 0.000000 -0.451491
v -2.314267 0.000000 0.000000
v -2.269799 0.000000 0.451491
v -2.138103 0.000000 0.885632
v -1.924242 0.000000 1.285738
v -1.636434 0.000000 1.636434
v -1.285738 0.000000 1.924242
v -0.885632 0.000000 2.138103
v -0.451491 0.000000 2.269799
v 0.000000 0.000000 2.314267
v 0.451491 0.000000 2.269799
v 0.885632 0.000000 2.138103
v 1.285738 0.000000 1.924242
v 1.636434 0.000000 1.636434
v 1.924242 0.000000 1.285738
v 2.138103 0.000000 0.885632
v 2.269799 0.000000 0.451491
v 2.314267 0.000000 0.000000
v 2.269799 0.000000 -0.451491
v 2.138103 0.000000 -0.885632
v 1.924242 0.000000 -1.285738
v 1.636434 0.000000 -1.636434
v 1.285738 0.000000 -1.924242
v 0.885632 0.000000 -2.138103
v 0.451491 0.000000 -2.269799
vn -0.0000 1.0000 -0.0000
vt 0.158256 0.682666
vt 0.200458 0.745827
vt 0.111702 0.818668
vt 0.056994 0.736791
vt 0.129186 0.612485
vt 0.019311 0.645815
vt 0.114366 0.537982
vt 0.000100 0.549236
vt 0.114366 0.462018
vt 0.000100 0.450764
vt 0.129186 0.387515
vt 0.019311 0.354185
vt 0.158256 0.317334
vt 0.056994 0.263209
vt 0.200458 0.254173
vt 0.111702 0.181332
vt 0.254173 0.200458
vt 0.181332 0.111702
vt 0.317334 0.158256
vt 0.263209 0.056994
vt 0.387515 0.129186
vt 0.354185 0.019311
vt 0.462018 0.114366
vt 0.450764 0.000100
vt 0.537982 0.114366
vt 0.549236 0.000100
vt 0.612485 0.129186
vt 0.645815 0.019311
vt 0.682666 0.158256
vt 0.736791 0.056994
vt 0.745827 0.200458
vt 0.818668 0.111702
vt 0.799541 0.254173
vt 0.888298 0.181332
vt 0.841744 0.317334
vt 0.943006 0.263208
vt 0.870814 0.387515
vt 0.980689 0.354184
vt 0.885634 0.462018
vt 0.999900 0.450764
vt 0.885634 0.537982
vt 0.999900 0.549236
vt 0.870814 0.612485
vt 0.980689 0.645815
vt 0.841744 0.682666
vt 0.943006 0.736791
vt 0.799541 0.745827
vt 0.888298 0.818668
vt 0.745827 0.799541
vt 0.818668 0.888298
vt 0.682666 0.841744
vt 0.736791 0.943006
vt 0.612485 0.870814
vt 0.645815 0.980689
vt 0.537982 0.885634
vt 0.549236 0.999900
vt 0.462018 0.885634
vt 0.450764 0.999900
vt 0.387515 0.870814
vt 0.354185 0.980689
vt 0.317334 0.841745
vt 0.263209 0.943006
vt 0.254173 0.799542
vt 0.181332 0.888298
s 0
f 33/1/1 34/2/1 1/3/1 2/4/1
f 35/5/1 33/1/1 2/4/1 3/6/1
f 36/7/1 35/5/1 3/6/1 4/8/1
f 37/9/1 36/7/1 4/8/1 5/10/1
f 38/11/1 37/9/1 5/10/1 6/12/1
f 39/13/1 38/11/1 6/12/1 7/14/1
f 40/15/1 39/13/1 7/14/1 8/16/1
f 41/17/1 40/15/1 8/16/1 9/18/1
f 42/19/1 41/17/1 9/18/1 10/20/1
f 43/21/1 42/19/1 10/20/1 11/22/1
f 44/23/1 43/21/1 11/22/1 12/24/1
f 45/25/1 44/23/1 12/24/1 13/26/1
f 46/27/1 45/25/1 13/26/1 14/28/1
f 47/29/1 46/27/1 14/28/1 15/30/1
f 48/31/1 47/29/1 15/30/1 16/32/1
f 49/33/1 48/31/1 16/32/1 17/34/1
f 50/35/1 49/33/1 17/34/1 18/36/1
f 51/37/1 50/35/1 18/36/1 19/38/1
f 52/39/1 51/37/1 19/38/1 20/40/1
f 53/41/1 52/39/1 20/40/1 21/42/1
f 54/43/1 53/41/1 21/42/1 22/44/1
f 55/45/1 54/43/1 22/44/1 23/46/1
f 56/47/1 55/45/1 23/46/1 24/48/1
f 57/49/1 56/47/1 24/48/1 25/50/1
f 58/51/1 57/49/1 25/50/1 26/52/1
f 59/53/1 58/51/1 26/52/1 27/54/1
f 60/55/1 59/53/1 27/54/1 28/56/1
f 61/57/1 60/55/1 28/56/1 29/58/1
f 62/59/1 61/57/1 29/58/1 30/60/1
f 63/61/1 62/59/1 30/60/1 31/62/1
f 64/63/1 63/61/1 31/62/1 32/64/1
f 34/2/1 64/63/1 32/64/1 1/3/1
